Evolventa-Regular.ufo
<glyph name="exclam" format="1">
  <advance width="295"/>
  <unicode hex="0021"/>
  <outline>
    <contour>
      <point x="111" y="0" type="line"/>
      <point x="111" y="126" type="line"/>
      <point x="185" y="126" type="line"/>
      <point x="185" y="0" type="line"/>
    </contour>
    <contour>
      <point x="111" y="197" type="line"/>
      <point x="111" y="739" type="line"/>
      <point x="185" y="739" type="line"/>
      <point x="185" y="197" type="line"/>
    </contour>
  </outline>
</glyph>
<glyph name="quotedbl" format="1">
  <advance width="309"/>
  <unicode hex="0022"/>
  <outline>
    <contour>
      <point x="237" y="513" type="line"/>
      <point x="187" y="513" type="line"/>
      <point x="187" y="739" type="line"/>
      <point x="237" y="739" type="line"/>
    </contour>
    <contour>
      <point x="124" y="513" type="line"/>
      <point x="74" y="513" type="line"/>
      <point x="74" y="739" type="line"/>
      <point x="124" y="739" type="line"/>
    </contour>
  </outline>
</glyph>
<glyph name="numbersign" format="1">
  <advance width="554"/>
  <unicode hex="0023"/>
  <outline>
    <contour>
      <point x="534" y="298" type="line"/>
      <point x="534" y="237" type="line"/>
      <point x="399" y="237" type="line"/>
      <point x="356" y="0" type="line"/>
      <point x="290" y="0" type="line"/>
      <point x="333" y="237" type="line"/>
      <point x="169" y="237" type="line"/>
      <point x="124" y="0" type="line"/>
      <point x="59" y="0" type="line"/>
      <point x="104" y="237" type="line"/>
      <point x="5" y="237" type="line"/>
      <point x="5" y="298" type="line"/>
      <point x="116" y="298" type="line"/>
      <point x="145" y="453" type="line"/>
      <point x="21" y="453" type="line"/>
      <point x="21" y="514" type="line"/>
      <point x="156" y="514" type="line"/>
      <point x="198" y="739" type="line"/>
      <point x="262" y="739" type="line"/>
      <point x="221" y="514" type="line"/>
      <point x="384" y="514" type="line"/>
      <point x="424" y="739" type="line"/>
      <point x="491" y="739" type="line"/>
      <point x="450" y="514" type="line"/>
      <point x="549" y="514" type="line"/>
      <point x="549" y="453" type="line"/>
      <point x="439" y="453" type="line"/>
      <point x="411" y="298" type="line"/>
    </contour>
    <contour>
      <point x="373" y="453" type="line"/>
      <point x="210" y="453" type="line"/>
      <point x="181" y="298" type="line"/>
      <point x="344" y="298" type="line"/>
    </contour>
  </outline>
</glyph>
<glyph name="dollar" format="1">
  <advance width="554"/>
  <unicode hex="0024"/>
  <outline>
    <contour>
      <point x="245" y="-56" type="line"/>
      <point x="245" y="29" type="line"/>
      <point x="131" y="50"/>
      <point x="74" y="116"/>
      <point x="74" y="228" type="curve"/>
      <point x="144" y="228" type="line"/>
      <point x="149" y="141"/>
      <point x="198" y="90"/>
      <point x="277" y="90" type="curve" smooth="yes"/>
      <point x="352" y="90"/>
      <point x="405" y="146"/>
      <point x="405" y="224" type="curve" smooth="yes"/>
      <point x="405" y="264"/>
      <point x="390" y="298"/>
      <point x="363" y="321" type="curve" smooth="yes"/>
      <point x="343" y="337"/>
      <point x="320" y="348"/>
      <point x="270" y="363" type="curve" smooth="yes"/>
      <point x="195" y="386"/>
      <point x="165" y="403"/>
      <point x="139" y="436" type="curve" smooth="yes"/>
      <point x="114" y="466"/>
      <point x="100" y="508"/>
      <point x="100" y="552" type="curve" smooth="yes"/>
      <point x="100" y="643"/>
      <point x="156" y="710"/>
      <point x="245" y="728" type="curve"/>
      <point x="245" y="810" type="line"/>
      <point x="311" y="810" type="line"/>
      <point x="311" y="728" type="line"/>
      <point x="409" y="713"/>
      <point x="469" y="646"/>
      <point x="473" y="547" type="curve"/>
      <point x="403" y="547" type="line"/>
      <point x="399" y="621"/>
      <point x="356" y="665"/>
      <point x="287" y="665" type="curve" smooth="yes"/>
      <point x="218" y="665"/>
      <point x="174" y="619"/>
      <point x="174" y="546" type="curve" smooth="yes"/>
      <point x="174" y="484"/>
      <point x="201" y="458"/>
      <point x="296" y="428" type="curve" smooth="yes"/>
      <point x="367" y="405"/>
      <point x="397" y="390"/>
      <point x="424" y="363" type="curve" smooth="yes"/>
      <point x="460" y="329"/>
      <point x="479" y="280"/>
      <point x="479" y="226" type="curve" smooth="yes"/>
      <point x="479" y="120"/>
      <point x="410" y="39"/>
      <point x="311" y="29" type="curve"/>
      <point x="311" y="-56" type="line"/>
    </contour>
  </outline>
</glyph>
<glyph name="ampersand" format="1">
  <advance width="757"/>
  <unicode hex="0026"/>
  <outline>
    <contour>
      <point x="602" y="481" type="line"/>
      <point x="684" y="481" type="line"/>
      <point x="548" y="220" type="line"/>
      <point x="735" y="38" type="line"/>
      <point x="684" y="-13" type="line"/>
      <point x="513" y="153" type="line"/>
      <point x="455" y="36"/>
      <point x="388" y="-13"/>
      <point x="290" y="-13" type="curve" smooth="yes"/>
      <point x="157" y="-13"/>
      <point x="57" y="84"/>
      <point x="57" y="213" type="curve" smooth="yes"/>
      <point x="57" y="280"/>
      <point x="86" y="338"/>
      <point x="141" y="381" type="curve" smooth="yes"/>
      <point x="162" y="397"/>
      <point x="186" y="412"/>
      <point x="227" y="433" type="curve"/>
      <point x="165" y="498"/>
      <point x="145" y="536"/>
      <point x="145" y="588" type="curve" smooth="yes"/>
      <point x="145" y="680"/>
      <point x="222" y="752"/>
      <point x="320" y="752" type="curve" smooth="yes"/>
      <point x="422" y="752"/>
      <point x="498" y="680"/>
      <point x="498" y="583" type="curve" smooth="yes"/>
      <point x="498" y="528"/>
      <point x="476" y="486"/>
      <point x="428" y="453" type="curve" smooth="yes"/>
      <point x="413" y="441"/>
      <point x="397" y="433"/>
      <point x="354" y="411" type="curve"/>
      <point x="494" y="273" type="line"/>
    </contour>
    <contour>
      <point x="458" y="206" type="curve"/>
      <point x="280" y="380" type="line"/>
      <point x="170" y="327"/>
      <point x="130" y="280"/>
      <point x="130" y="205" type="curve" smooth="yes"/>
      <point x="130" y="121"/>
      <point x="198" y="54"/>
      <point x="285" y="54" type="curve" smooth="yes"/>
      <point x="356" y="54"/>
      <point x="404" y="96"/>
    </contour>
    <contour>
      <point x="300" y="464" type="curve"/>
      <point x="388" y="498"/>
      <point x="428" y="537"/>
      <point x="428" y="589" type="curve" smooth="yes"/>
      <point x="428" y="644"/>
      <point x="383" y="685"/>
      <point x="322" y="685" type="curve" smooth="yes"/>
      <point x="264" y="685"/>
      <point x="219" y="643"/>
      <point x="219" y="590" type="curve" smooth="yes"/>
      <point x="219" y="552"/>
      <point x="242" y="517"/>
    </contour>
  </outline>
</glyph>
<glyph name="quotesingle" format="1">
  <advance width="198"/>
  <unicode hex="0027"/>
  <outline>
    <contour>
      <point x="124" y="513" type="line"/>
      <point x="74" y="513" type="line"/>
      <point x="74" y="739" type="line"/>
      <point x="124" y="739" type="line"/>
    </contour>
  </outline>
</glyph>
<glyph name="parenleft" format="1">
  <advance width="369"/>
  <unicode hex="0028"/>
  <outline>
    <contour>
      <point x="335" y="739" type="curve"/>
      <point x="335" y="676" type="line"/>
      <point x="276" y="640"/>
      <point x="238" y="603"/>
      <point x="202" y="545" type="curve" smooth="yes"/>
      <point x="155" y="469"/>
      <point x="131" y="389"/>
      <point x="131" y="309" type="curve" smooth="yes"/>
      <point x="131" y="212"/>
      <point x="168" y="109"/>
      <point x="231" y="29" type="curve" smooth="yes"/>
      <point x="259" y="-6"/>
      <point x="288" y="-31"/>
      <point x="335" y="-60" type="curve"/>
      <point x="335" y="-125" type="line"/>
      <point x="257" y="-97"/>
      <point x="203" y="-53"/>
      <point x="148" y="26" type="curve" smooth="yes"/>
      <point x="87" y="113"/>
      <point x="57" y="207"/>
      <point x="57" y="309" type="curve" smooth="yes"/>
      <point x="57" y="436"/>
      <point x="111" y="565"/>
      <point x="201" y="656" type="curve" smooth="yes"/>
      <point x="242" y="698"/>
      <point x="277" y="719"/>
    </contour>
  </outline>
</glyph>
<glyph name="parenright" format="1">
  <advance width="369"/>
  <unicode hex="0029"/>
  <outline>
    <contour>
      <point x="34" y="-125" type="curve"/>
      <point x="34" y="-61" type="line"/>
      <point x="93" y="-26"/>
      <point x="131" y="11"/>
      <point x="167" y="70" type="curve" smooth="yes"/>
      <point x="214" y="146"/>
      <point x="238" y="225"/>
      <point x="238" y="306" type="curve" smooth="yes"/>
      <point x="238" y="402"/>
      <point x="201" y="506"/>
      <point x="138" y="585" type="curve" smooth="yes"/>
      <point x="110" y="620"/>
      <point x="81" y="645"/>
      <point x="34" y="674" type="curve"/>
      <point x="34" y="739" type="line"/>
      <point x="112" y="711"/>
      <point x="166" y="668"/>
      <point x="221" y="589" type="curve" smooth="yes"/>
      <point x="282" y="502"/>
      <point x="312" y="407"/>
      <point x="312" y="305" type="curve" smooth="yes"/>
      <point x="312" y="179"/>
      <point x="258" y="49"/>
      <point x="168" y="-42" type="curve" smooth="yes"/>
      <point x="127" y="-83"/>
      <point x="92" y="-105"/>
    </contour>
  </outline>
</glyph>
<glyph name="asterisk" format="1">
  <advance width="425"/>
  <unicode hex="002A"/>
  <outline>
    <contour>
      <point x="267" y="752" type="curve"/>
      <point x="267" y="752"/>
      <point x="314" y="724"/>
      <point x="314" y="724" type="curve"/>
      <point x="314" y="724"/>
      <point x="257" y="632"/>
      <point x="257" y="632" type="curve"/>
      <point x="257" y="632"/>
      <point x="360" y="635"/>
      <point x="360" y="635" type="curve"/>
      <point x="360" y="635"/>
      <point x="360" y="583"/>
      <point x="360" y="583" type="curve"/>
      <point x="360" y="583"/>
      <point x="258" y="585"/>
      <point x="258" y="585" type="curve"/>
      <point x="258" y="585"/>
      <point x="313" y="495"/>
      <point x="313" y="495" type="curve"/>
      <point x="313" y="495"/>
      <point x="266" y="468"/>
      <point x="266" y="468" type="curve"/>
      <point x="266" y="468"/>
      <point x="213" y="559"/>
      <point x="213" y="559" type="curve"/>
      <point x="213" y="559"/>
      <point x="160" y="468"/>
      <point x="160" y="468" type="curve"/>
      <point x="160" y="468"/>
      <point x="112" y="496"/>
      <point x="112" y="496" type="curve"/>
      <point x="112" y="496"/>
      <point x="169" y="585"/>
      <point x="169" y="585" type="curve"/>
      <point x="169" y="585"/>
      <point x="64" y="583"/>
      <point x="64" y="583" type="curve"/>
      <point x="64" y="583"/>
      <point x="64" y="635"/>
      <point x="64" y="635" type="curve"/>
      <point x="64" y="635"/>
      <point x="169" y="632"/>
      <point x="169" y="632" type="curve"/>
      <point x="169" y="632"/>
      <point x="113" y="724"/>
      <point x="113" y="724" type="curve"/>
      <point x="113" y="724"/>
      <point x="162" y="752"/>
      <point x="162" y="752" type="curve"/>
      <point x="162" y="752"/>
      <point x="215" y="662"/>
      <point x="215" y="662" type="curve"/>
      <point x="215" y="662"/>
      <point x="267" y="752"/>
    </contour>
  </outline>
</glyph>
<glyph name="plus" format="1">
  <advance width="606"/>
  <unicode hex="002B"/>
  <outline>
    <contour>
      <point x="265" y="341" type="curve"/>
      <point x="265" y="341"/>
      <point x="265" y="557"/>
      <point x="265" y="557" type="curve"/>
      <point x="265" y="557"/>
      <point x="342" y="557"/>
      <point x="342" y="557" type="curve"/>
      <point x="342" y="557"/>
      <point x="342" y="341"/>
      <point x="342" y="341" type="curve"/>
      <point x="342" y="341"/>
      <point x="555" y="341"/>
      <point x="555" y="341" type="curve"/>
      <point x="555" y="341"/>
      <point x="555" y="267"/>
      <point x="555" y="267" type="curve"/>
      <point x="555" y="267"/>
      <point x="342" y="267"/>
      <point x="342" y="267" type="curve"/>
      <point x="342" y="267"/>
      <point x="342" y="49"/>
      <point x="342" y="49" type="curve"/>
      <point x="342" y="49"/>
      <point x="265" y="49"/>
      <point x="265" y="49" type="curve"/>
      <point x="265" y="49"/>
      <point x="265" y="267"/>
      <point x="265" y="267" type="curve"/>
      <point x="265" y="267"/>
      <point x="51" y="267"/>
      <point x="51" y="267" type="curve"/>
      <point x="51" y="267"/>
      <point x="51" y="341"/>
      <point x="51" y="341" type="curve"/>
      <point x="51" y="341"/>
      <point x="265" y="341"/>
    </contour>
  </outline>
</glyph>
<glyph name="comma" format="1">
  <advance width="277"/>
  <unicode hex="002C"/>
  <outline>
    <contour>
      <point x="91" y="-67" type="curve"/>
      <point x="91" y="-67"/>
      <point x="179" y="126"/>
      <point x="179" y="126" type="curve"/>
      <point x="179" y="126"/>
      <point x="253" y="126"/>
      <point x="253" y="126" type="curve"/>
      <point x="253" y="126"/>
      <point x="165" y="-67"/>
      <point x="165" y="-67" type="curve"/>
      <point x="165" y="-67"/>
      <point x="91" y="-67"/>
    </contour>
  </outline>
</glyph>
<glyph name="hyphen" format="1">
  <advance width="332"/>
  <unicode hex="002D"/>
  <outline>
    <contour>
      <point x="31" y="296" type="curve"/>
      <point x="31" y="296"/>
      <point x="302" y="296"/>
      <point x="302" y="296" type="curve"/>
      <point x="302" y="296"/>
      <point x="302" y="233"/>
      <point x="302" y="233" type="curve"/>
      <point x="302" y="233"/>
      <point x="31" y="233"/>
      <point x="31" y="233" type="curve"/>
      <point x="31" y="233"/>
      <point x="31" y="296"/>
    </contour>
  </outline>
</glyph>
<glyph name="slash" format="1">
  <advance width="437"/>
  <unicode hex="002F"/>
  <outline>
    <contour>
      <point x="40" y="-128" type="curve"/>
      <point x="40" y="-128"/>
      <point x="327" y="739"/>
      <point x="327" y="739" type="curve"/>
      <point x="327" y="739"/>
      <point x="397" y="739"/>
      <point x="397" y="739" type="curve"/>
      <point x="397" y="739"/>
      <point x="107" y="-128"/>
      <point x="107" y="-128" type="curve"/>
      <point x="107" y="-128"/>
      <point x="40" y="-128"/>
    </contour>
  </outline>
</glyph>
<glyph name="two" format="1">
  <advance width="554"/>
  <unicode hex="0032"/>
  <outline>
    <contour>
      <point x="277" y="805" type="move" name="Anchor-0"/>
    </contour>
    <contour>
      <point x="33" y="0" type="line"/>
      <point x="33" y="67" type="line"/>
      <point x="292" y="317" type="line" smooth="yes"/>
      <point x="358" y="380"/>
      <point x="358" y="380"/>
      <point x="380" y="407" type="curve" smooth="yes"/>
      <point x="416" y="449"/>
      <point x="432" y="487"/>
      <point x="432" y="531" type="curve" smooth="yes"/>
      <point x="432" y="621"/>
      <point x="365" y="685"/>
      <point x="272" y="685" type="curve" smooth="yes"/>
      <point x="207" y="685"/>
      <point x="154" y="652"/>
      <point x="129" y="598" type="curve" smooth="yes"/>
      <point x="117" y="572"/>
      <point x="112" y="544"/>
      <point x="112" y="500" type="curve"/>
      <point x="39" y="500" type="line"/>
      <point x="39" y="552"/>
      <point x="42" y="573"/>
      <point x="55" y="608" type="curve" smooth="yes"/>
      <point x="89" y="698"/>
      <point x="170" y="752"/>
      <point x="273" y="752" type="curve" smooth="yes"/>
      <point x="408" y="752"/>
      <point x="506" y="658"/>
      <point x="506" y="527" type="curve" smooth="yes"/>
      <point x="506" y="448"/>
      <point x="474" y="393"/>
      <point x="370" y="294" type="curve" smooth="yes"/>
      <point x="133" y="67" type="line"/>
      <point x="502" y="67" type="line"/>
      <point x="502" y="0" type="line"/>
    </contour>
  </outline>
</glyph>
<glyph name="three" format="1">
  <advance width="554"/>
  <unicode hex="0033"/>
  <outline>
    <contour>
      <point x="277" y="805" type="move" name="Anchor-0"/>
    </contour>
    <contour>
      <point x="155" y="555" type="curve"/>
      <point x="82" y="555" type="line"/>
      <point x="86" y="676"/>
      <point x="158" y="752"/>
      <point x="269" y="752" type="curve" smooth="yes"/>
      <point x="379" y="752"/>
      <point x="455" y="675"/>
      <point x="455" y="565" type="curve" smooth="yes"/>
      <point x="455" y="504"/>
      <point x="431" y="459"/>
      <point x="379" y="423" type="curve"/>
      <point x="462" y="381"/>
      <point x="504" y="313"/>
      <point x="504" y="224" type="curve" smooth="yes"/>
      <point x="504" y="91"/>
      <point x="402" y="-13"/>
      <point x="273" y="-13" type="curve" smooth="yes"/>
      <point x="181" y="-13"/>
      <point x="102" y="33"/>
      <point x="62" y="108" type="curve" smooth="yes"/>
      <point x="43" y="144"/>
      <point x="35" y="180"/>
      <point x="33" y="231" type="curve"/>
      <point x="106" y="231" type="line"/>
      <point x="110" y="177"/>
      <point x="118" y="150"/>
      <point x="138" y="122" type="curve" smooth="yes"/>
      <point x="168" y="79"/>
      <point x="216" y="54"/>
      <point x="270" y="54" type="curve" smooth="yes"/>
      <point x="361" y="54"/>
      <point x="430" y="126"/>
      <point x="430" y="220" type="curve" smooth="yes"/>
      <point x="430" y="298"/>
      <point x="379" y="364"/>
      <point x="305" y="382" type="curve" smooth="yes"/>
      <point x="285" y="386"/>
      <point x="268" y="387"/>
      <point x="219" y="388" type="curve"/>
      <point x="219" y="454" type="line"/>
      <point x="248" y="452"/>
      <point x="249" y="452"/>
      <point x="255" y="452" type="curve" smooth="yes"/>
      <point x="332" y="452"/>
      <point x="381" y="497"/>
      <point x="381" y="569" type="curve" smooth="yes"/>
      <point x="381" y="637"/>
      <point x="335" y="685"/>
      <point x="269" y="685" type="curve" smooth="yes"/>
      <point x="197" y="685"/>
      <point x="156" y="638"/>
    </contour>
  </outline>
</glyph>
<glyph name="four" format="1">
  <advance width="554"/>
  <unicode hex="0034"/>
  <outline>
    <contour>
      <point x="277" y="805" type="move" name="Top"/>
    </contour>
    <contour>
      <point x="386" y="0" type="curve"/>
      <point x="386" y="0"/>
      <point x="386" y="135"/>
      <point x="386" y="135" type="curve"/>
      <point x="386" y="135"/>
      <point x="12" y="135"/>
      <point x="12" y="135" type="curve"/>
      <point x="12" y="135"/>
      <point x="12" y="202"/>
      <point x="12" y="202" type="curve"/>
      <point x="12" y="202"/>
      <point x="372" y="739"/>
      <point x="372" y="739" type="curve"/>
      <point x="372" y="739"/>
      <point x="459" y="739"/>
      <point x="459" y="739" type="curve"/>
      <point x="459" y="739"/>
      <point x="459" y="202"/>
      <point x="459" y="202" type="curve"/>
      <point x="459" y="202"/>
      <point x="527" y="202"/>
      <point x="527" y="202" type="curve"/>
      <point x="527" y="202"/>
      <point x="527" y="135"/>
      <point x="527" y="135" type="curve"/>
      <point x="527" y="135"/>
      <point x="459" y="135"/>
      <point x="459" y="135" type="curve"/>
      <point x="459" y="135"/>
      <point x="459" y="0"/>
      <point x="459" y="0" type="curve"/>
      <point x="459" y="0"/>
      <point x="386" y="0"/>
    </contour>
    <contour>
      <point x="386" y="202" type="curve"/>
      <point x="386" y="202"/>
      <point x="386" y="637"/>
      <point x="386" y="637" type="curve"/>
      <point x="386" y="637"/>
      <point x="97" y="202"/>
      <point x="97" y="202" type="curve"/>
      <point x="97" y="202"/>
      <point x="386" y="202"/>
    </contour>
  </outline>
</glyph>
<glyph name="five" format="1">
  <advance width="554"/>
  <unicode hex="0035"/>
  <outline>
    <contour>
      <point x="277" y="805" type="move" name="Anchor-0"/>
    </contour>
    <contour>
      <point x="67" y="375" type="line"/>
      <point x="133" y="739" type="line"/>
      <point x="466" y="739" type="line"/>
      <point x="466" y="672" type="line"/>
      <point x="192" y="672" type="line"/>
      <point x="156" y="468" type="line"/>
      <point x="201" y="493"/>
      <point x="239" y="503"/>
      <point x="283" y="503" type="curve" smooth="yes"/>
      <point x="421" y="503"/>
      <point x="528" y="391"/>
      <point x="528" y="246" type="curve" smooth="yes"/>
      <point x="528" y="100"/>
      <point x="419" y="-13"/>
      <point x="280" y="-13" type="curve" smooth="yes"/>
      <point x="181" y="-13"/>
      <point x="94" y="43"/>
      <point x="51" y="134" type="curve" smooth="yes"/>
      <point x="38" y="163"/>
      <point x="33" y="183"/>
      <point x="26" y="232" type="curve"/>
      <point x="98" y="232" type="line"/>
      <point x="111" y="126"/>
      <point x="183" y="54"/>
      <point x="277" y="54" type="curve" smooth="yes"/>
      <point x="377" y="54"/>
      <point x="454" y="138"/>
      <point x="454" y="246" type="curve" smooth="yes"/>
      <point x="454" y="354"/>
      <point x="378" y="436"/>
      <point x="277" y="436" type="curve" smooth="yes"/>
      <point x="219" y="436"/>
      <point x="169" y="409"/>
      <point x="124" y="353" type="curve"/>
    </contour>
  </outline>
</glyph>
<glyph name="six" format="1">
  <advance width="554"/>
  <unicode hex="0036"/>
  <outline>
    <contour>
      <point x="277" y="805" type="move" name="Anchor-0"/>
    </contour>
    <contour>
      <point x="296" y="739" type="line"/>
      <point x="381" y="739" type="line"/>
      <point x="207" y="482" type="line"/>
      <point x="240" y="498"/>
      <point x="262" y="503"/>
      <point x="293" y="503" type="curve" smooth="yes"/>
      <point x="425" y="503"/>
      <point x="529" y="391"/>
      <point x="529" y="249" type="curve" smooth="yes"/>
      <point x="529" y="97"/>
      <point x="424" y="-13"/>
      <point x="280" y="-13" type="curve" smooth="yes"/>
      <point x="134" y="-13"/>
      <point x="25" y="97"/>
      <point x="25" y="244" type="curve" smooth="yes"/>
      <point x="25" y="318"/>
      <point x="42" y="361"/>
      <point x="113" y="467" type="curve" smooth="yes"/>
    </contour>
    <contour>
      <point x="276" y="436" type="curve" smooth="yes"/>
      <point x="176" y="436"/>
      <point x="99" y="354"/>
      <point x="99" y="246" type="curve" smooth="yes"/>
      <point x="99" y="136"/>
      <point x="176" y="54"/>
      <point x="279" y="54" type="curve" smooth="yes"/>
      <point x="382" y="54"/>
      <point x="455" y="134"/>
      <point x="455" y="245" type="curve" smooth="yes"/>
      <point x="455" y="358"/>
      <point x="382" y="436"/>
    </contour>
  </outline>
</glyph>
<glyph name="seven" format="1">
  <advance width="554"/>
  <unicode hex="0037"/>
  <outline>
    <contour>
      <point x="277" y="805" type="move" name="Anchor-0"/>
    </contour>
    <contour>
      <point x="110" y="0" type="line"/>
      <point x="414" y="672" type="line"/>
      <point x="64" y="672" type="line"/>
      <point x="64" y="739" type="line"/>
      <point x="490" y="739" type="line"/>
      <point x="490" y="672" type="line"/>
      <point x="188" y="0" type="line"/>
    </contour>
  </outline>
</glyph>
<glyph name="eight" format="1">
  <advance width="554"/>
  <unicode hex="0038"/>
  <outline>
    <contour>
      <point x="277" y="805" type="move" name="Anchor-0"/>
    </contour>
    <contour>
      <point x="167" y="413" type="curve"/>
      <point x="141" y="428"/>
      <point x="130" y="437"/>
      <point x="117" y="452" type="curve" smooth="yes"/>
      <point x="94" y="481"/>
      <point x="81" y="520"/>
      <point x="81" y="561" type="curve" smooth="yes"/>
      <point x="81" y="670"/>
      <point x="166" y="752"/>
      <point x="278" y="752" type="curve" smooth="yes"/>
      <point x="392" y="752"/>
      <point x="473" y="673"/>
      <point x="473" y="561" type="curve" smooth="yes"/>
      <point x="473" y="488"/>
      <point x="445" y="441"/>
      <point x="385" y="413" type="curve"/>
      <point x="467" y="377"/>
      <point x="512" y="309"/>
      <point x="512" y="218" type="curve" smooth="yes"/>
      <point x="512" y="83"/>
      <point x="415" y="-13"/>
      <point x="280" y="-13" type="curve" smooth="yes"/>
      <point x="144" y="-13"/>
      <point x="42" y="85"/>
      <point x="42" y="215" type="curve" smooth="yes"/>
      <point x="42" y="304"/>
      <point x="86" y="374"/>
    </contour>
    <contour>
      <point x="275" y="375" type="curve" smooth="yes"/>
      <point x="182" y="375"/>
      <point x="116" y="308"/>
      <point x="116" y="213" type="curve" smooth="yes"/>
      <point x="116" y="121"/>
      <point x="184" y="54"/>
      <point x="279" y="54" type="curve" smooth="yes"/>
      <point x="372" y="54"/>
      <point x="438" y="121"/>
      <point x="438" y="216" type="curve" smooth="yes"/>
      <point x="438" y="310"/>
      <point x="372" y="375"/>
    </contour>
    <contour>
      <point x="275" y="685" type="curve" smooth="yes"/>
      <point x="205" y="685"/>
      <point x="155" y="635"/>
      <point x="155" y="566" type="curve" smooth="yes"/>
      <point x="155" y="496"/>
      <point x="209" y="444"/>
      <point x="280" y="444" type="curve" smooth="yes"/>
      <point x="348" y="444"/>
      <point x="399" y="496"/>
      <point x="399" y="565" type="curve" smooth="yes"/>
      <point x="399" y="637"/>
      <point x="349" y="685"/>
    </contour>
  </outline>
</glyph>
<glyph name="nine" format="1">
  <advance width="554"/>
  <unicode hex="0039"/>
  <outline>
    <contour>
      <point x="277" y="805" type="move" name="Anchor-0"/>
    </contour>
    <contour>
      <point x="258" y="0" type="line"/>
      <point x="173" y="0" type="line"/>
      <point x="347" y="257" type="line"/>
      <point x="314" y="241"/>
      <point x="292" y="236"/>
      <point x="261" y="236" type="curve" smooth="yes"/>
      <point x="129" y="236"/>
      <point x="25" y="348"/>
      <point x="25" y="490" type="curve" smooth="yes"/>
      <point x="25" y="642"/>
      <point x="130" y="752"/>
      <point x="274" y="752" type="curve" smooth="yes"/>
      <point x="420" y="752"/>
      <point x="529" y="642"/>
      <point x="529" y="495" type="curve" smooth="yes"/>
      <point x="529" y="421"/>
      <point x="512" y="378"/>
      <point x="441" y="272" type="curve" smooth="yes"/>
    </contour>
    <contour>
      <point x="272" y="685" type="curve" smooth="yes"/>
      <point x="172" y="685"/>
      <point x="99" y="604"/>
      <point x="99" y="493" type="curve" smooth="yes"/>
      <point x="99" y="382"/>
      <point x="173" y="303"/>
      <point x="276" y="303" type="curve" smooth="yes"/>
      <point x="378" y="303"/>
      <point x="455" y="384"/>
      <point x="455" y="493" type="curve" smooth="yes"/>
      <point x="455" y="604"/>
      <point x="378" y="685"/>
    </contour>
  </outline>
</glyph>
<glyph name="colon" format="1">
  <advance width="277"/>
  <unicode hex="003A"/>
  <outline>
    <contour>
      <point x="101" y="0" type="curve"/>
      <point x="101" y="0"/>
      <point x="101" y="126"/>
      <point x="101" y="126" type="curve"/>
      <point x="101" y="126"/>
      <point x="175" y="126"/>
      <point x="175" y="126" type="curve"/>
      <point x="175" y="126"/>
      <point x="175" y="0"/>
      <point x="175" y="0" type="curve"/>
      <point x="175" y="0"/>
      <point x="101" y="0"/>
    </contour>
    <contour>
      <point x="101" y="381" type="curve"/>
      <point x="101" y="381"/>
      <point x="101" y="507"/>
      <point x="101" y="507" type="curve"/>
      <point x="101" y="507"/>
      <point x="175" y="507"/>
      <point x="175" y="507" type="curve"/>
      <point x="175" y="507"/>
      <point x="175" y="381"/>
      <point x="175" y="381" type="curve"/>
      <point x="175" y="381"/>
      <point x="101" y="381"/>
    </contour>
  </outline>
</glyph>
<glyph name="semicolon" format="1">
  <advance width="277"/>
  <unicode hex="003B"/>
  <outline>
    <contour>
      <point x="41" y="-67" type="curve"/>
      <point x="41" y="-67"/>
      <point x="129" y="126"/>
      <point x="129" y="126" type="curve"/>
      <point x="129" y="126"/>
      <point x="203" y="126"/>
      <point x="203" y="126" type="curve"/>
      <point x="203" y="126"/>
      <point x="115" y="-67"/>
      <point x="115" y="-67" type="curve"/>
      <point x="115" y="-67"/>
      <point x="41" y="-67"/>
    </contour>
    <contour>
      <point x="125" y="381" type="curve"/>
      <point x="125" y="381"/>
      <point x="125" y="507"/>
      <point x="125" y="507" type="curve"/>
      <point x="125" y="507"/>
      <point x="199" y="507"/>
      <point x="199" y="507" type="curve"/>
      <point x="199" y="507"/>
      <point x="199" y="381"/>
      <point x="199" y="381" type="curve"/>
      <point x="199" y="381"/>
      <point x="125" y="381"/>
    </contour>
  </outline>
</glyph>
<glyph name="less" format="1">
  <advance width="606"/>
  <unicode hex="003C"/>
  <outline>
    <contour>
      <point x="558" y="565" type="curve"/>
      <point x="558" y="565"/>
      <point x="558" y="487"/>
      <point x="558" y="487" type="curve"/>
      <point x="558" y="487"/>
      <point x="157" y="300"/>
      <point x="157" y="300" type="curve"/>
      <point x="157" y="300"/>
      <point x="558" y="115"/>
      <point x="558" y="115" type="curve"/>
      <point x="558" y="115"/>
      <point x="558" y="37"/>
      <point x="558" y="37" type="curve"/>
      <point x="558" y="37"/>
      <point x="49" y="268"/>
      <point x="49" y="268" type="curve"/>
      <point x="49" y="268"/>
      <point x="49" y="333"/>
      <point x="49" y="333" type="curve"/>
      <point x="49" y="333"/>
      <point x="558" y="565"/>
    </contour>
  </outline>
</glyph>
<glyph name="equal" format="1">
  <advance width="606"/>
  <unicode hex="003D"/>
  <outline>
    <contour>
      <point x="555" y="436" type="curve"/>
      <point x="555" y="436"/>
      <point x="555" y="362"/>
      <point x="555" y="362" type="curve"/>
      <point x="555" y="362"/>
      <point x="51" y="362"/>
      <point x="51" y="362" type="curve"/>
      <point x="51" y="362"/>
      <point x="51" y="436"/>
      <point x="51" y="436" type="curve"/>
      <point x="51" y="436"/>
      <point x="555" y="436"/>
    </contour>
    <contour>
      <point x="555" y="238" type="curve"/>
      <point x="555" y="238"/>
      <point x="555" y="164"/>
      <point x="555" y="164" type="curve"/>
      <point x="555" y="164"/>
      <point x="51" y="164"/>
      <point x="51" y="164" type="curve"/>
      <point x="51" y="164"/>
      <point x="51" y="238"/>
      <point x="51" y="238" type="curve"/>
      <point x="51" y="238"/>
      <point x="555" y="238"/>
    </contour>
  </outline>
</glyph>
<glyph name="greater" format="1">
  <advance width="606"/>
  <unicode hex="003E"/>
  <outline>
    <contour>
      <point x="48" y="37" type="curve"/>
      <point x="48" y="37"/>
      <point x="48" y="115"/>
      <point x="48" y="115" type="curve"/>
      <point x="48" y="115"/>
      <point x="450" y="302"/>
      <point x="450" y="302" type="curve"/>
      <point x="450" y="302"/>
      <point x="48" y="487"/>
      <point x="48" y="487" type="curve"/>
      <point x="48" y="487"/>
      <point x="48" y="565"/>
      <point x="48" y="565" type="curve"/>
      <point x="48" y="565"/>
      <point x="557" y="334"/>
      <point x="557" y="334" type="curve"/>
      <point x="557" y="334"/>
      <point x="557" y="269"/>
      <point x="557" y="269" type="curve"/>
      <point x="557" y="269"/>
      <point x="48" y="37"/>
    </contour>
  </outline>
</glyph>
<glyph name="question" format="1">
  <advance width="591"/>
  <unicode hex="003F"/>
  <outline>
    <contour>
      <point x="261" y="0" type="line"/>
      <point x="261" y="126" type="line"/>
      <point x="335" y="126" type="line"/>
      <point x="335" y="0" type="line"/>
    </contour>
    <contour>
      <point x="135" y="508" type="curve"/>
      <point x="65" y="508" type="line"/>
      <point x="67" y="575"/>
      <point x="77" y="613"/>
      <point x="104" y="654" type="curve" smooth="yes"/>
      <point x="147" y="717"/>
      <point x="216" y="752"/>
      <point x="299" y="752" type="curve" smooth="yes"/>
      <point x="430" y="752"/>
      <point x="525" y="661"/>
      <point x="525" y="535" type="curve" smooth="yes"/>
      <point x="525" y="470"/>
      <point x="501" y="425"/>
      <point x="435" y="365" type="curve" smooth="yes"/>
      <point x="361" y="300"/>
      <point x="334" y="256"/>
      <point x="333" y="193" type="curve"/>
      <point x="263" y="193" type="line"/>
      <point x="264" y="275"/>
      <point x="291" y="328"/>
      <point x="367" y="397" type="curve" smooth="yes"/>
      <point x="434" y="460"/>
      <point x="451" y="488"/>
      <point x="451" y="537" type="curve" smooth="yes"/>
      <point x="451" y="623"/>
      <point x="387" y="685"/>
      <point x="299" y="685" type="curve" smooth="yes"/>
      <point x="237" y="685"/>
      <point x="183" y="655"/>
      <point x="157" y="604" type="curve" smooth="yes"/>
      <point x="144" y="580"/>
      <point x="139" y="555"/>
    </contour>
  </outline>
</glyph>
<glyph name="at" format="1">
  <advance width="867"/>
  <unicode hex="0040"/>
  <outline>
    <contour>
      <point x="656" y="574" type="line"/>
      <point x="563" y="296" type="line" smooth="yes"/>
      <point x="543" y="234"/>
      <point x="543" y="234"/>
      <point x="543" y="219" type="curve" smooth="yes"/>
      <point x="543" y="202"/>
      <point x="557" y="191"/>
      <point x="576" y="191" type="curve" smooth="yes"/>
      <point x="602" y="191"/>
      <point x="637" y="209"/>
      <point x="666" y="239" type="curve" smooth="yes"/>
      <point x="718" y="291"/>
      <point x="747" y="361"/>
      <point x="747" y="434" type="curve" smooth="yes"/>
      <point x="747" y="586"/>
      <point x="620" y="701"/>
      <point x="452" y="701" type="curve" smooth="yes"/>
      <point x="271" y="701"/>
      <point x="123" y="551"/>
      <point x="123" y="368" type="curve" smooth="yes"/>
      <point x="123" y="184"/>
      <point x="269" y="37"/>
      <point x="453" y="37" type="curve" smooth="yes"/>
      <point x="544" y="37"/>
      <point x="624" y="72"/>
      <point x="687" y="138" type="curve"/>
      <point x="727" y="105" type="line"/>
      <point x="664" y="32"/>
      <point x="560" y="-13"/>
      <point x="451" y="-13" type="curve" smooth="yes"/>
      <point x="238" y="-13"/>
      <point x="71" y="155"/>
      <point x="71" y="367" type="curve" smooth="yes"/>
      <point x="71" y="581"/>
      <point x="241" y="752"/>
      <point x="452" y="752" type="curve" smooth="yes"/>
      <point x="540" y="752"/>
      <point x="626" y="721"/>
      <point x="689" y="667" type="curve" smooth="yes"/>
      <point x="760" y="607"/>
      <point x="797" y="527"/>
      <point x="797" y="433" type="curve" smooth="yes"/>
      <point x="797" y="342"/>
      <point x="761" y="259"/>
      <point x="695" y="198" type="curve" smooth="yes"/>
      <point x="652" y="158"/>
      <point x="610" y="139"/>
      <point x="564" y="139" type="curve" smooth="yes"/>
      <point x="517" y="139"/>
      <point x="492" y="155"/>
      <point x="476" y="196" type="curve"/>
      <point x="439" y="159"/>
      <point x="404" y="144"/>
      <point x="357" y="144" type="curve" smooth="yes"/>
      <point x="276" y="144"/>
      <point x="219" y="205"/>
      <point x="219" y="292" type="curve" smooth="yes"/>
      <point x="219" y="445"/>
      <point x="339" y="593"/>
      <point x="463" y="593" type="curve" smooth="yes"/>
      <point x="493" y="593"/>
      <point x="522" y="585"/>
      <point x="543" y="571" type="curve" smooth="yes"/>
      <point x="559" y="561"/>
      <point x="567" y="549"/>
      <point x="578" y="524" type="curve"/>
      <point x="595" y="574" type="line"/>
    </contour>
    <contour>
      <point x="463" y="539" type="curve" smooth="yes"/>
      <point x="378" y="539"/>
      <point x="291" y="415"/>
      <point x="291" y="294" type="curve" smooth="yes"/>
      <point x="291" y="239"/>
      <point x="323" y="202"/>
      <point x="371" y="202" type="curve" smooth="yes"/>
      <point x="418" y="202"/>
      <point x="453" y="231"/>
      <point x="489" y="297" type="curve" smooth="yes"/>
      <point x="518" y="351"/>
      <point x="540" y="422"/>
      <point x="540" y="462" type="curve" smooth="yes"/>
      <point x="540" y="509"/>
      <point x="510" y="539"/>
    </contour>
  </outline>
</glyph>
<glyph name="D" format="1">
  <advance width="744"/>
  <unicode hex="0044"/>
  <outline>
    <contour>
      <point x="330" y="805" type="move" name="Anchor-0"/>
    </contour>
    <contour>
      <point x="76" y="0" type="line"/>
      <point x="76" y="739" type="line"/>
      <point x="250" y="739" type="line" smooth="yes"/>
      <point x="388" y="739"/>
      <point x="468" y="722"/>
      <point x="540" y="676" type="curve" smooth="yes"/>
      <point x="645" y="610"/>
      <point x="700" y="503"/>
      <point x="700" y="367" type="curve" smooth="yes"/>
      <point x="700" y="226"/>
      <point x="638" y="115"/>
      <point x="522" y="51" type="curve" smooth="yes"/>
      <point x="458" y="16"/>
      <point x="382" y="0"/>
      <point x="275" y="0" type="curve" smooth="yes"/>
    </contour>
    <contour>
      <point x="150" y="67" type="line"/>
      <point x="253" y="67" type="line" smooth="yes"/>
      <point x="388" y="67"/>
      <point x="465" y="87"/>
      <point x="525" y="138" type="curve" smooth="yes"/>
      <point x="589" y="193"/>
      <point x="625" y="276"/>
      <point x="625" y="370" type="curve" smooth="yes"/>
      <point x="625" y="483"/>
      <point x="573" y="578"/>
      <point x="484" y="628" type="curve" smooth="yes"/>
      <point x="430" y="659"/>
      <point x="361" y="672"/>
      <point x="253" y="672" type="curve" smooth="yes"/>
      <point x="150" y="672" type="line"/>
    </contour>
  </outline>
</glyph>
<glyph name="F" format="1">
  <advance width="485"/>
  <unicode hex="0046"/>
  <outline>
    <contour>
      <point x="260" y="805" type="move" name="Top"/>
    </contour>
    <contour>
      <point x="76" y="0" type="curve"/>
      <point x="76" y="0"/>
      <point x="76" y="739"/>
      <point x="76" y="739" type="curve"/>
      <point x="76" y="739"/>
      <point x="451" y="739"/>
      <point x="451" y="739" type="curve"/>
      <point x="451" y="739"/>
      <point x="451" y="672"/>
      <point x="451" y="672" type="curve"/>
      <point x="451" y="672"/>
      <point x="150" y="672"/>
      <point x="150" y="672" type="curve"/>
      <point x="150" y="672"/>
      <point x="150" y="405"/>
      <point x="150" y="405" type="curve"/>
      <point x="150" y="405"/>
      <point x="440" y="405"/>
      <point x="440" y="405" type="curve"/>
      <point x="440" y="405"/>
      <point x="440" y="338"/>
      <point x="440" y="338" type="curve"/>
      <point x="440" y="338"/>
      <point x="150" y="338"/>
      <point x="150" y="338" type="curve"/>
      <point x="150" y="338"/>
      <point x="150" y="0"/>
      <point x="150" y="0" type="curve"/>
      <point x="150" y="0"/>
      <point x="76" y="0"/>
    </contour>
  </outline>
</glyph>
<glyph name="G" format="1">
  <advance width="872"/>
  <unicode hex="0047"/>
  <outline>
    <contour>
      <point x="438" y="805" type="move" name="Anchor-0"/>
    </contour>
    <contour>
      <point x="329" y="341" type="line"/>
      <point x="831" y="341" type="line"/>
      <point x="826" y="255"/>
      <point x="791" y="174"/>
      <point x="728" y="106" type="curve" smooth="yes"/>
      <point x="657" y="28"/>
      <point x="560" y="-13"/>
      <point x="446" y="-13" type="curve" smooth="yes"/>
      <point x="219" y="-13"/>
      <point x="44" y="154"/>
      <point x="44" y="371" type="curve" smooth="yes"/>
      <point x="44" y="585"/>
      <point x="216" y="752"/>
      <point x="436" y="752" type="curve" smooth="yes"/>
      <point x="597" y="752"/>
      <point x="737" y="668"/>
      <point x="786" y="542" type="curve"/>
      <point x="703" y="542" type="line"/>
      <point x="652" y="632"/>
      <point x="556" y="684"/>
      <point x="442" y="684" type="curve" smooth="yes"/>
      <point x="259" y="684"/>
      <point x="119" y="547"/>
      <point x="119" y="369" type="curve" smooth="yes"/>
      <point x="119" y="193"/>
      <point x="262" y="55"/>
      <point x="443" y="55" type="curve" smooth="yes"/>
      <point x="531" y="55"/>
      <point x="610" y="87"/>
      <point x="668" y="147" type="curve" smooth="yes"/>
      <point x="708" y="189"/>
      <point x="731" y="228"/>
      <point x="742" y="274" type="curve"/>
      <point x="329" y="274" type="line"/>
    </contour>
  </outline>
</glyph>
<glyph name="H" format="1">
  <advance width="683"/>
  <unicode hex="0048"/>
  <outline>
    <contour>
      <point x="341" y="805" type="move" name="Top"/>
    </contour>
    <contour>
      <point x="76" y="0" type="curve"/>
      <point x="76" y="0"/>
      <point x="76" y="739"/>
      <point x="76" y="739" type="curve"/>
      <point x="76" y="739"/>
      <point x="150" y="739"/>
      <point x="150" y="739" type="curve"/>
      <point x="150" y="739"/>
      <point x="150" y="414"/>
      <point x="150" y="414" type="curve"/>
      <point x="150" y="414"/>
      <point x="533" y="414"/>
      <point x="533" y="414" type="curve"/>
      <point x="533" y="414"/>
      <point x="533" y="739"/>
      <point x="533" y="739" type="curve"/>
      <point x="533" y="739"/>
      <point x="607" y="739"/>
      <point x="607" y="739" type="curve"/>
      <point x="607" y="739"/>
      <point x="607" y="0"/>
      <point x="607" y="0" type="curve"/>
      <point x="607" y="0"/>
      <point x="533" y="0"/>
      <point x="533" y="0" type="curve"/>
      <point x="533" y="0"/>
      <point x="533" y="347"/>
      <point x="533" y="347" type="curve"/>
      <point x="533" y="347"/>
      <point x="150" y="347"/>
      <point x="150" y="347" type="curve"/>
      <point x="150" y="347"/>
      <point x="150" y="0"/>
      <point x="150" y="0" type="curve"/>
      <point x="150" y="0"/>
      <point x="76" y="0"/>
    </contour>
  </outline>
</glyph>
<glyph name="K" format="1">
  <advance width="591"/>
  <unicode hex="004B"/>
  <outline>
    <contour>
      <point x="312" y="805" type="move" name="Top"/>
    </contour>
    <contour>
      <point x="76" y="0" type="curve"/>
      <point x="76" y="0"/>
      <point x="76" y="739"/>
      <point x="76" y="739" type="curve"/>
      <point x="76" y="739"/>
      <point x="150" y="739"/>
      <point x="150" y="739" type="curve"/>
      <point x="150" y="739"/>
      <point x="150" y="314"/>
      <point x="150" y="314" type="curve"/>
      <point x="150" y="314"/>
      <point x="492" y="739"/>
      <point x="492" y="739" type="curve"/>
      <point x="492" y="739"/>
      <point x="585" y="739"/>
      <point x="585" y="739" type="curve"/>
      <point x="585" y="739"/>
      <point x="293" y="379"/>
      <point x="293" y="379" type="curve"/>
      <point x="293" y="379"/>
      <point x="585" y="0"/>
      <point x="585" y="0" type="curve"/>
      <point x="585" y="0"/>
      <point x="492" y="0"/>
      <point x="492" y="0" type="curve"/>
      <point x="492" y="0"/>
      <point x="246" y="320"/>
      <point x="246" y="320" type="curve"/>
      <point x="246" y="320"/>
      <point x="150" y="202"/>
      <point x="150" y="202" type="curve"/>
      <point x="150" y="202"/>
      <point x="150" y="0"/>
      <point x="150" y="0" type="curve"/>
      <point x="150" y="0"/>
      <point x="76" y="0"/>
    </contour>
  </outline>
</glyph>
<glyph name="L" format="1">
  <advance width="462"/>
  <unicode hex="004C"/>
  <outline>
    <contour>
      <point x="113" y="805" type="move" name="Anchor-0"/>
    </contour>
    <contour>
      <point x="76" y="0" type="line"/>
      <point x="76" y="739" type="line"/>
      <point x="150" y="739" type="line"/>
      <point x="150" y="67" type="line"/>
      <point x="456" y="67" type="line"/>
      <point x="456" y="0" type="line"/>
    </contour>
  </outline>
</glyph>
<glyph name="N" format="1">
  <advance width="740"/>
  <unicode hex="004E"/>
  <outline>
    <contour>
      <point x="370" y="805" type="move" name="Anchor-0"/>
    </contour>
    <contour>
      <point x="76" y="0" type="line"/>
      <point x="76" y="739" type="line"/>
      <point x="176" y="739" type="line"/>
      <point x="590" y="126" type="line"/>
      <point x="590" y="739" type="line"/>
      <point x="664" y="739" type="line"/>
      <point x="664" y="0" type="line"/>
      <point x="590" y="0" type="line"/>
      <point x="150" y="650" type="line"/>
      <point x="150" y="0" type="line"/>
    </contour>
  </outline>
</glyph>
<glyph name="O" format="1">
  <advance width="869"/>
  <unicode hex="004F"/>
  <outline>
    <contour>
      <point x="434" y="805" type="move" name="Anchor-0"/>
    </contour>
    <contour>
      <point x="440" y="752" type="curve" smooth="yes"/>
      <point x="649" y="752"/>
      <point x="825" y="578"/>
      <point x="825" y="369" type="curve" smooth="yes"/>
      <point x="825" y="159"/>
      <point x="649" y="-13"/>
      <point x="435" y="-13" type="curve" smooth="yes"/>
      <point x="221" y="-13"/>
      <point x="44" y="160"/>
      <point x="44" y="369" type="curve" smooth="yes"/>
      <point x="44" y="582"/>
      <point x="220" y="752"/>
    </contour>
    <contour>
      <point x="431" y="684" type="curve" smooth="yes"/>
      <point x="262" y="684"/>
      <point x="119" y="539"/>
      <point x="119" y="369" type="curve" smooth="yes"/>
      <point x="119" y="197"/>
      <point x="262" y="55"/>
      <point x="435" y="55" type="curve" smooth="yes"/>
      <point x="607" y="55"/>
      <point x="750" y="197"/>
      <point x="750" y="368" type="curve" smooth="yes"/>
      <point x="750" y="543"/>
      <point x="608" y="684"/>
    </contour>
  </outline>
</glyph>
<glyph name="P" format="1">
  <advance width="592"/>
  <unicode hex="0050"/>
  <outline>
    <contour>
      <point x="290" y="805" type="move" name="Anchor-0"/>
    </contour>
    <contour>
      <point x="76" y="0" type="line"/>
      <point x="76" y="739" type="line"/>
      <point x="280" y="739" type="line" smooth="yes"/>
      <point x="375" y="739"/>
      <point x="431" y="728"/>
      <point x="477" y="700" type="curve" smooth="yes"/>
      <point x="533" y="667"/>
      <point x="565" y="600"/>
      <point x="565" y="515" type="curve" smooth="yes"/>
      <point x="565" y="441"/>
      <point x="539" y="380"/>
      <point x="491" y="345" type="curve" smooth="yes"/>
      <point x="446" y="312"/>
      <point x="392" y="299"/>
      <point x="292" y="299" type="curve" smooth="yes"/>
      <point x="150" y="299" type="line"/>
      <point x="150" y="0" type="line"/>
    </contour>
    <contour>
      <point x="150" y="366" type="line"/>
      <point x="287" y="366" type="line" smooth="yes"/>
      <point x="355" y="366"/>
      <point x="398" y="373"/>
      <point x="429" y="391" type="curve" smooth="yes"/>
      <point x="468" y="412"/>
      <point x="490" y="458"/>
      <point x="490" y="516" type="curve" smooth="yes"/>
      <point x="490" y="588"/>
      <point x="460" y="639"/>
      <point x="407" y="656" type="curve" smooth="yes"/>
      <point x="374" y="667"/>
      <point x="328" y="672"/>
      <point x="255" y="672" type="curve" smooth="yes"/>
      <point x="150" y="672" type="line"/>
    </contour>
  </outline>
</glyph>
<glyph name="Q" format="1">
  <advance width="871"/>
  <unicode hex="0051"/>
  <outline>
    <contour>
      <point x="442" y="805" type="move" name="Anchor-0"/>
    </contour>
    <contour>
      <point x="827" y="56" type="curve"/>
      <point x="827" y="-13" type="line"/>
      <point x="758" y="-12"/>
      <point x="716" y="4"/>
      <point x="665" y="51" type="curve"/>
      <point x="602" y="9"/>
      <point x="525" y="-13"/>
      <point x="443" y="-13" type="curve" smooth="yes"/>
      <point x="221" y="-13"/>
      <point x="44" y="156"/>
      <point x="44" y="369" type="curve" smooth="yes"/>
      <point x="44" y="588"/>
      <point x="215" y="752"/>
      <point x="444" y="752" type="curve" smooth="yes"/>
      <point x="671" y="752"/>
      <point x="839" y="590"/>
      <point x="839" y="371" type="curve" smooth="yes"/>
      <point x="839" y="257"/>
      <point x="796" y="161"/>
      <point x="716" y="93" type="curve"/>
      <point x="753" y="66"/>
      <point x="781" y="55"/>
      <point x="812" y="55" type="curve" smooth="yes"/>
      <point x="815" y="55"/>
      <point x="820" y="55"/>
    </contour>
    <contour>
      <point x="161" y="216" type="curve"/>
      <point x="213" y="119"/>
      <point x="326" y="55"/>
      <point x="443" y="55" type="curve" smooth="yes"/>
      <point x="506" y="55"/>
      <point x="556" y="69"/>
      <point x="605" y="100" type="curve"/>
      <point x="498" y="198"/>
      <point x="403" y="237"/>
      <point x="277" y="237" type="curve" smooth="yes"/>
      <point x="230" y="237"/>
      <point x="201" y="232"/>
    </contour>
    <contour>
      <point x="130" y="279" type="curve"/>
      <point x="187" y="298"/>
      <point x="231" y="305"/>
      <point x="288" y="305" type="curve" smooth="yes"/>
      <point x="395" y="305"/>
      <point x="487" y="276"/>
      <point x="572" y="215" type="curve" smooth="yes"/>
      <point x="601" y="193"/>
      <point x="629" y="171"/>
      <point x="663" y="142" type="curve"/>
      <point x="731" y="208"/>
      <point x="764" y="284"/>
      <point x="764" y="371" type="curve" smooth="yes"/>
      <point x="764" y="548"/>
      <point x="624" y="684"/>
      <point x="442" y="684" type="curve" smooth="yes"/>
      <point x="259" y="684"/>
      <point x="119" y="545"/>
      <point x="119" y="363" type="curve" smooth="yes"/>
      <point x="119" y="335"/>
      <point x="122" y="316"/>
    </contour>
  </outline>
</glyph>
<glyph name="R" format="1">
  <advance width="607"/>
  <unicode hex="0052"/>
  <outline>
    <contour>
      <point x="300" y="805" type="move" name="Anchor-0"/>
    </contour>
    <contour>
      <point x="359" y="276" type="curve"/>
      <point x="566" y="0" type="line"/>
      <point x="474" y="0" type="line"/>
      <point x="225" y="335" type="line"/>
      <point x="315" y="335"/>
      <point x="360" y="339"/>
      <point x="395" y="349" type="curve" smooth="yes"/>
      <point x="466" y="370"/>
      <point x="502" y="422"/>
      <point x="502" y="503" type="curve" smooth="yes"/>
      <point x="502" y="571"/>
      <point x="474" y="621"/>
      <point x="424" y="645" type="curve" smooth="yes"/>
      <point x="384" y="664"/>
      <point x="332" y="672"/>
      <point x="254" y="672" type="curve" smooth="yes"/>
      <point x="150" y="672" type="line"/>
      <point x="150" y="0" type="line"/>
      <point x="76" y="0" type="line"/>
      <point x="76" y="739" type="line"/>
      <point x="259" y="739" type="line" smooth="yes"/>
      <point x="360" y="739"/>
      <point x="424" y="727"/>
      <point x="471" y="701" type="curve" smooth="yes"/>
      <point x="540" y="661"/>
      <point x="577" y="592"/>
      <point x="577" y="502" type="curve" smooth="yes"/>
      <point x="577" y="370"/>
      <point x="501" y="291"/>
    </contour>
  </outline>
</glyph>
<glyph name="T" format="1">
  <advance width="426"/>
  <unicode hex="0054"/>
  <outline>
    <contour>
      <point x="213" y="805" type="move" name="Anchor-0"/>
    </contour>
    <contour>
      <point x="176" y="0" type="line"/>
      <point x="176" y="672" type="line"/>
      <point x="7" y="672" type="line"/>
      <point x="7" y="739" type="line"/>
      <point x="419" y="739" type="line"/>
      <point x="419" y="672" type="line"/>
      <point x="250" y="672" type="line"/>
      <point x="250" y="0" type="line"/>
    </contour>
  </outline>
</glyph>
<glyph name="U" format="1">
  <advance width="655"/>
  <unicode hex="0055"/>
  <outline>
    <contour>
      <point x="327" y="805" type="move" name="Anchor-0"/>
    </contour>
    <contour>
      <point x="76" y="739" type="line"/>
      <point x="150" y="739" type="line"/>
      <point x="150" y="278" type="line" smooth="yes"/>
      <point x="150" y="211"/>
      <point x="161" y="160"/>
      <point x="184" y="125" type="curve" smooth="yes"/>
      <point x="212" y="82"/>
      <point x="267" y="55"/>
      <point x="327" y="55" type="curve" smooth="yes"/>
      <point x="388" y="55"/>
      <point x="443" y="82"/>
      <point x="471" y="125" type="curve" smooth="yes"/>
      <point x="494" y="160"/>
      <point x="505" y="211"/>
      <point x="505" y="278" type="curve" smooth="yes"/>
      <point x="505" y="739" type="line"/>
      <point x="579" y="739" type="line"/>
      <point x="579" y="278" type="line" smooth="yes"/>
      <point x="579" y="183"/>
      <point x="564" y="127"/>
      <point x="527" y="78" type="curve" smooth="yes"/>
      <point x="483" y="20"/>
      <point x="410" y="-13"/>
      <point x="327" y="-13" type="curve" smooth="yes"/>
      <point x="245" y="-13"/>
      <point x="172" y="20"/>
      <point x="128" y="78" type="curve" smooth="yes"/>
      <point x="91" y="127"/>
      <point x="76" y="183"/>
      <point x="76" y="278" type="curve" smooth="yes"/>
    </contour>
  </outline>
</glyph>
<glyph name="V" format="1">
  <advance width="702"/>
  <unicode hex="0056"/>
  <outline>
    <contour>
      <point x="351" y="805" type="move" name="Top"/>
    </contour>
    <contour>
      <point x="314" y="0" type="curve"/>
      <point x="314" y="0"/>
      <point x="10" y="739"/>
      <point x="10" y="739" type="curve"/>
      <point x="10" y="739"/>
      <point x="91" y="739"/>
      <point x="91" y="739" type="curve"/>
      <point x="91" y="739"/>
      <point x="351" y="92"/>
      <point x="351" y="92" type="curve"/>
      <point x="351" y="92"/>
      <point x="612" y="739"/>
      <point x="612" y="739" type="curve"/>
      <point x="612" y="739"/>
      <point x="692" y="739"/>
      <point x="692" y="739" type="curve"/>
      <point x="692" y="739"/>
      <point x="386" y="0"/>
      <point x="386" y="0" type="curve"/>
      <point x="386" y="0"/>
      <point x="314" y="0"/>
    </contour>
  </outline>
</glyph>
<glyph name="W" format="1">
  <advance width="960"/>
  <unicode hex="0057"/>
  <outline>
    <contour>
      <point x="480" y="805" type="move" name="Top"/>
    </contour>
    <contour>
      <point x="221" y="0" type="curve"/>
      <point x="221" y="0"/>
      <point x="10" y="739"/>
      <point x="10" y="739" type="curve"/>
      <point x="10" y="739"/>
      <point x="86" y="739"/>
      <point x="86" y="739" type="curve"/>
      <point x="86" y="739"/>
      <point x="268" y="96"/>
      <point x="268" y="96" type="curve"/>
      <point x="268" y="96"/>
      <point x="445" y="739"/>
      <point x="445" y="739" type="curve"/>
      <point x="445" y="739"/>
      <point x="515" y="739"/>
      <point x="515" y="739" type="curve"/>
      <point x="515" y="739"/>
      <point x="692" y="96"/>
      <point x="692" y="96" type="curve"/>
      <point x="692" y="96"/>
      <point x="874" y="739"/>
      <point x="874" y="739" type="curve"/>
      <point x="874" y="739"/>
      <point x="950" y="739"/>
      <point x="950" y="739" type="curve"/>
      <point x="950" y="739"/>
      <point x="738" y="0"/>
      <point x="738" y="0" type="curve"/>
      <point x="738" y="0"/>
      <point x="643" y="0"/>
      <point x="643" y="0" type="curve"/>
      <point x="643" y="0"/>
      <point x="479" y="606"/>
      <point x="479" y="606" type="curve"/>
      <point x="479" y="606"/>
      <point x="317" y="0"/>
      <point x="317" y="0" type="curve"/>
      <point x="317" y="0"/>
      <point x="221" y="0"/>
    </contour>
  </outline>
</glyph>
<glyph name="X" format="1">
  <advance width="609"/>
  <unicode hex="0058"/>
  <outline>
    <contour>
      <point x="304" y="805" type="move" name="Top"/>
    </contour>
    <contour>
      <point x="8" y="0" type="curve"/>
      <point x="8" y="0"/>
      <point x="259" y="378"/>
      <point x="259" y="378" type="curve"/>
      <point x="259" y="378"/>
      <point x="22" y="739"/>
      <point x="22" y="739" type="curve"/>
      <point x="22" y="739"/>
      <point x="109" y="739"/>
      <point x="109" y="739" type="curve"/>
      <point x="109" y="739"/>
      <point x="305" y="443"/>
      <point x="305" y="443" type="curve"/>
      <point x="305" y="443"/>
      <point x="500" y="739"/>
      <point x="500" y="739" type="curve"/>
      <point x="500" y="739"/>
      <point x="586" y="739"/>
      <point x="586" y="739" type="curve"/>
      <point x="586" y="739"/>
      <point x="349" y="378"/>
      <point x="349" y="378" type="curve"/>
      <point x="349" y="378"/>
      <point x="601" y="0"/>
      <point x="601" y="0" type="curve"/>
      <point x="601" y="0"/>
      <point x="514" y="0"/>
      <point x="514" y="0" type="curve"/>
      <point x="514" y="0"/>
      <point x="305" y="316"/>
      <point x="305" y="316" type="curve"/>
      <point x="305" y="316"/>
      <point x="95" y="0"/>
      <point x="95" y="0" type="curve"/>
      <point x="95" y="0"/>
      <point x="8" y="0"/>
    </contour>
  </outline>
</glyph>
<glyph name="Y" format="1">
  <advance width="592"/>
  <unicode hex="0059"/>
  <outline>
    <contour>
      <point x="296" y="805" type="move" name="Anchor-0"/>
    </contour>
    <contour>
      <point x="258" y="0" type="line"/>
      <point x="258" y="247" type="line"/>
      <point x="2" y="739" type="line"/>
      <point x="84" y="739" type="line"/>
      <point x="294" y="325" type="line"/>
      <point x="509" y="739" type="line"/>
      <point x="590" y="739" type="line"/>
      <point x="332" y="247" type="line"/>
      <point x="332" y="0" type="line"/>
    </contour>
  </outline>
</glyph>
<glyph name="Z" format="1">
  <advance width="480"/>
  <unicode hex="005A"/>
  <outline>
    <contour>
      <point x="249" y="805" type="move" name="Anchor-0"/>
    </contour>
    <contour>
      <point x="17" y="0" type="line"/>
      <point x="17" y="67" type="line"/>
      <point x="380" y="672" type="line"/>
      <point x="28" y="672" type="line"/>
      <point x="28" y="739" type="line"/>
      <point x="463" y="739" type="line"/>
      <point x="463" y="672" type="line"/>
      <point x="101" y="67" type="line"/>
      <point x="474" y="67" type="line"/>
      <point x="474" y="0" type="line"/>
    </contour>
  </outline>
</glyph>
<glyph name="bracketleft" format="1">
  <advance width="351"/>
  <unicode hex="005B"/>
  <outline>
    <contour>
      <point x="313" y="-50" type="curve"/>
      <point x="313" y="-125" type="line"/>
      <point x="256" y="-109"/>
      <point x="212" y="-81"/>
      <point x="175" y="-38" type="curve" smooth="yes"/>
      <point x="130" y="13"/>
      <point x="112" y="70"/>
      <point x="112" y="164" type="curve" smooth="yes"/>
      <point x="112" y="462" type="line" smooth="yes"/>
      <point x="112" y="551"/>
      <point x="136" y="616"/>
      <point x="190" y="668" type="curve" smooth="yes"/>
      <point x="227" y="705"/>
      <point x="262" y="726"/>
      <point x="313" y="739" type="curve"/>
      <point x="313" y="664" type="line"/>
      <point x="215" y="621"/>
      <point x="182" y="566"/>
      <point x="182" y="448" type="curve" smooth="yes"/>
      <point x="182" y="177" type="line" smooth="yes"/>
      <point x="182" y="49"/>
      <point x="214" y="-6"/>
    </contour>
  </outline>
</glyph>
<glyph name="backslash" format="1">
  <advance width="605"/>
  <unicode hex="005C"/>
  <outline>
    <contour>
      <point x="464" y="0" type="line"/>
      <point x="394" y="0" type="line"/>
      <point x="84" y="739" type="line"/>
      <point x="154" y="739" type="line"/>
    </contour>
  </outline>
</glyph>
<glyph name="bracketright" format="1">
  <advance width="351"/>
  <unicode hex="005D"/>
  <outline>
    <contour>
      <point x="38" y="664" type="curve"/>
      <point x="38" y="739" type="line"/>
      <point x="95" y="723"/>
      <point x="139" y="695"/>
      <point x="176" y="653" type="curve" smooth="yes"/>
      <point x="221" y="602"/>
      <point x="239" y="544"/>
      <point x="239" y="450" type="curve" smooth="yes"/>
      <point x="239" y="153" type="line" smooth="yes"/>
      <point x="239" y="63"/>
      <point x="215" y="-1"/>
      <point x="161" y="-54" type="curve" smooth="yes"/>
      <point x="124" y="-91"/>
      <point x="89" y="-111"/>
      <point x="38" y="-125" type="curve"/>
      <point x="38" y="-50" type="line"/>
      <point x="136" y="-6"/>
      <point x="169" y="48"/>
      <point x="169" y="166" type="curve" smooth="yes"/>
      <point x="169" y="438" type="line" smooth="yes"/>
      <point x="169" y="565"/>
      <point x="137" y="620"/>
    </contour>
  </outline>
</glyph>
<glyph name="asciicircum" format="1">
  <advance width="606"/>
  <unicode hex="005E"/>
  <outline>
    <contour>
      <point x="588" y="180" type="curve"/>
      <point x="588" y="180"/>
      <point x="507" y="180"/>
      <point x="507" y="180" type="curve"/>
      <point x="507" y="180"/>
      <point x="304" y="660"/>
      <point x="304" y="660" type="curve"/>
      <point x="304" y="660"/>
      <point x="99" y="180"/>
      <point x="99" y="180" type="curve"/>
      <point x="99" y="180"/>
      <point x="18" y="180"/>
      <point x="18" y="180" type="curve"/>
      <point x="18" y="180"/>
      <point x="261" y="739"/>
      <point x="261" y="739" type="curve"/>
      <point x="261" y="739"/>
      <point x="346" y="739"/>
      <point x="346" y="739" type="curve"/>
      <point x="346" y="739"/>
      <point x="588" y="180"/>
    </contour>
  </outline>
</glyph>
<glyph name="underscore" format="1">
  <advance width="500"/>
  <unicode hex="005F"/>
  <outline>
    <contour>
      <point x="0" y="-67" type="line"/>
      <point x="500" y="-67" type="line"/>
      <point x="500" y="-125" type="line"/>
      <point x="0" y="-125" type="line"/>
    </contour>
  </outline>
</glyph>
<glyph name="grave" format="1">
  <advance width="378"/>
  <unicode hex="0060"/>
  <outline>
    <contour>
      <point x="106" y="776" type="curve"/>
      <point x="106" y="776"/>
      <point x="304" y="666"/>
      <point x="304" y="666" type="curve"/>
      <point x="304" y="666"/>
      <point x="271" y="610"/>
      <point x="271" y="610" type="curve"/>
      <point x="271" y="610"/>
      <point x="74" y="718"/>
      <point x="74" y="718" type="curve"/>
      <point x="74" y="718"/>
      <point x="106" y="776"/>
    </contour>
  </outline>
</glyph>
<glyph name="a" format="1">
  <advance width="683"/>
  <unicode hex="0061"/>
  <outline>
    <contour>
      <point x="351" y="623" type="move" name="Anchor-0"/>
    </contour>
    <contour>
      <point x="620" y="547" type="line"/>
      <point x="620" y="0" type="line"/>
      <point x="546" y="0" type="line"/>
      <point x="546" y="96" type="line"/>
      <point x="488" y="18"/>
      <point x="429" y="-13"/>
      <point x="336" y="-13" type="curve" smooth="yes"/>
      <point x="167" y="-13"/>
      <point x="42" y="108"/>
      <point x="42" y="272" type="curve" smooth="yes"/>
      <point x="42" y="436"/>
      <point x="166" y="560"/>
      <point x="330" y="560" type="curve" smooth="yes"/>
      <point x="425" y="560"/>
      <point x="491" y="527"/>
      <point x="546" y="450" type="curve"/>
      <point x="546" y="547" type="line"/>
    </contour>
    <contour>
      <point x="329" y="492" type="curve" smooth="yes"/>
      <point x="212" y="492"/>
      <point x="117" y="395"/>
      <point x="117" y="275" type="curve" smooth="yes"/>
      <point x="117" y="152"/>
      <point x="214" y="55"/>
      <point x="335" y="55" type="curve" smooth="yes"/>
      <point x="454" y="55"/>
      <point x="546" y="151"/>
      <point x="546" y="275" type="curve" smooth="yes"/>
      <point x="546" y="399"/>
      <point x="453" y="492"/>
    </contour>
  </outline>
</glyph>
<glyph name="c" format="1">
  <advance width="647"/>
  <unicode hex="0063"/>
  <outline>
    <contour>
      <point x="335" y="623" type="move" name="Anchor-0"/>
    </contour>
    <contour>
      <point x="524" y="161" type="curve"/>
      <point x="608" y="161" type="line"/>
      <point x="577" y="103"/>
      <point x="555" y="74"/>
      <point x="518" y="46" type="curve" smooth="yes"/>
      <point x="468" y="7"/>
      <point x="406" y="-13"/>
      <point x="340" y="-13" type="curve" smooth="yes"/>
      <point x="172" y="-13"/>
      <point x="42" y="112"/>
      <point x="42" y="275" type="curve" smooth="yes"/>
      <point x="42" y="434"/>
      <point x="171" y="560"/>
      <point x="335" y="560" type="curve" smooth="yes"/>
      <point x="459" y="560"/>
      <point x="563" y="491"/>
      <point x="607" y="381" type="curve"/>
      <point x="524" y="381" type="line"/>
      <point x="482" y="453"/>
      <point x="415" y="492"/>
      <point x="334" y="492" type="curve" smooth="yes"/>
      <point x="212" y="492"/>
      <point x="117" y="396"/>
      <point x="117" y="273" type="curve" smooth="yes"/>
      <point x="117" y="151"/>
      <point x="214" y="55"/>
      <point x="337" y="55" type="curve" smooth="yes"/>
      <point x="415" y="55"/>
      <point x="467" y="85"/>
    </contour>
  </outline>
</glyph>
<glyph name="d" format="1">
  <advance width="685"/>
  <unicode hex="0064"/>
  <outline>
    <contour>
      <point x="354" y="805" type="move" name="Anchor-0"/>
    </contour>
    <contour>
      <point x="622" y="739" type="line"/>
      <point x="622" y="0" type="line"/>
      <point x="548" y="0" type="line"/>
      <point x="548" y="99" type="line"/>
      <point x="492" y="20"/>
      <point x="432" y="-13"/>
      <point x="340" y="-13" type="curve" smooth="yes"/>
      <point x="171" y="-13"/>
      <point x="42" y="110"/>
      <point x="42" y="272" type="curve" smooth="yes"/>
      <point x="42" y="436"/>
      <point x="167" y="560"/>
      <point x="333" y="560" type="curve" smooth="yes"/>
      <point x="419" y="560"/>
      <point x="494" y="525"/>
      <point x="548" y="460" type="curve"/>
      <point x="548" y="739" type="line"/>
    </contour>
    <contour>
      <point x="328" y="492" type="curve" smooth="yes"/>
      <point x="211" y="492"/>
      <point x="117" y="395"/>
      <point x="117" y="274" type="curve" smooth="yes"/>
      <point x="117" y="151"/>
      <point x="214" y="55"/>
      <point x="338" y="55" type="curve" smooth="yes"/>
      <point x="455" y="55"/>
      <point x="551" y="154"/>
      <point x="551" y="275" type="curve" smooth="yes"/>
      <point x="551" y="396"/>
      <point x="453" y="492"/>
    </contour>
  </outline>
</glyph>
<glyph name="f" format="1">
  <advance width="314"/>
  <unicode hex="0066"/>
  <outline>
    <contour>
      <point x="182" y="805" type="move" name="Anchor-0"/>
    </contour>
    <contour>
      <point x="101" y="0" type="line"/>
      <point x="101" y="480" type="line"/>
      <point x="16" y="480" type="line"/>
      <point x="16" y="547" type="line"/>
      <point x="101" y="547" type="line"/>
      <point x="101" y="677"/>
      <point x="170" y="739"/>
      <point x="311" y="739" type="curve"/>
      <point x="311" y="672" type="line"/>
      <point x="209" y="672"/>
      <point x="175" y="639"/>
      <point x="175" y="547" type="curve"/>
      <point x="311" y="547" type="line"/>
      <point x="311" y="480" type="line"/>
      <point x="175" y="480" type="line"/>
      <point x="175" y="0" type="line"/>
    </contour>
  </outline>
</glyph>
<glyph name="g" format="1">
  <advance width="673"/>
  <unicode hex="0067"/>
  <outline>
    <contour>
      <point x="331" y="623" type="move" name="Anchor-0"/>
    </contour>
    <contour>
      <point x="610" y="547" type="line"/>
      <point x="610" y="98" type="line" smooth="yes"/>
      <point x="610" y="-9"/>
      <point x="596" y="-67"/>
      <point x="559" y="-117" type="curve" smooth="yes"/>
      <point x="512" y="-180"/>
      <point x="432" y="-215"/>
      <point x="337" y="-215" type="curve" smooth="yes"/>
      <point x="199" y="-215"/>
      <point x="102" y="-145"/>
      <point x="62" y="-17" type="curve"/>
      <point x="134" y="-17" type="line"/>
      <point x="158" y="-60"/>
      <point x="170" y="-77"/>
      <point x="190" y="-95" type="curve" smooth="yes"/>
      <point x="229" y="-130"/>
      <point x="276" y="-147"/>
      <point x="335" y="-147" type="curve" smooth="yes"/>
      <point x="420" y="-147"/>
      <point x="485" y="-111"/>
      <point x="514" y="-48" type="curve" smooth="yes"/>
      <point x="530" y="-14"/>
      <point x="536" y="20"/>
      <point x="536" y="74" type="curve" smooth="yes"/>
      <point x="536" y="111" type="line"/>
      <point x="493" y="27"/>
      <point x="426" y="-13"/>
      <point x="327" y="-13" type="curve" smooth="yes"/>
      <point x="166" y="-13"/>
      <point x="42" y="111"/>
      <point x="42" y="271" type="curve" smooth="yes"/>
      <point x="42" y="437"/>
      <point x="161" y="560"/>
      <point x="321" y="560" type="curve" smooth="yes"/>
      <point x="414" y="560"/>
      <point x="481" y="526"/>
      <point x="536" y="450" type="curve"/>
      <point x="536" y="547" type="line"/>
    </contour>
    <contour>
      <point x="320" y="492" type="curve" smooth="yes"/>
      <point x="205" y="492"/>
      <point x="117" y="399"/>
      <point x="117" y="277" type="curve" smooth="yes"/>
      <point x="117" y="150"/>
      <point x="207" y="55"/>
      <point x="327" y="55" type="curve" smooth="yes"/>
      <point x="446" y="55"/>
      <point x="536" y="152"/>
      <point x="536" y="279" type="curve" smooth="yes"/>
      <point x="536" y="402"/>
      <point x="444" y="492"/>
    </contour>
  </outline>
</glyph>
<glyph name="h" format="1">
  <advance width="610"/>
  <unicode hex="0068"/>
  <outline>
    <contour>
      <point x="288" y="805" type="move" name="Anchor-0"/>
    </contour>
    <contour>
      <point x="63" y="0" type="line"/>
      <point x="63" y="739" type="line"/>
      <point x="137" y="739" type="line"/>
      <point x="137" y="476" type="line"/>
      <point x="174" y="530"/>
      <point x="236" y="560"/>
      <point x="310" y="560" type="curve" smooth="yes"/>
      <point x="390" y="560"/>
      <point x="459" y="529"/>
      <point x="500" y="476" type="curve" smooth="yes"/>
      <point x="532" y="432"/>
      <point x="547" y="376"/>
      <point x="547" y="294" type="curve" smooth="yes"/>
      <point x="547" y="0" type="line"/>
      <point x="473" y="0" type="line"/>
      <point x="473" y="294" type="line" smooth="yes"/>
      <point x="473" y="360"/>
      <point x="461" y="403"/>
      <point x="433" y="436" type="curve" smooth="yes"/>
      <point x="404" y="471"/>
      <point x="355" y="492"/>
      <point x="304" y="492" type="curve" smooth="yes"/>
      <point x="247" y="492"/>
      <point x="194" y="465"/>
      <point x="165" y="421" type="curve" smooth="yes"/>
      <point x="145" y="391"/>
      <point x="137" y="357"/>
      <point x="137" y="300" type="curve" smooth="yes"/>
      <point x="137" y="0" type="line"/>
    </contour>
  </outline>
</glyph>
<glyph name="i" format="1">
  <advance width="200"/>
  <unicode hex="0069"/>
  <outline>
    <contour>
      <point x="100" y="805" type="move" name="Top"/>
    </contour>
    <contour>
      <point x="63" y="0" type="curve"/>
      <point x="63" y="0"/>
      <point x="63" y="547"/>
      <point x="63" y="547" type="curve"/>
      <point x="63" y="547"/>
      <point x="137" y="547"/>
      <point x="137" y="547" type="curve"/>
      <point x="137" y="547"/>
      <point x="137" y="0"/>
      <point x="137" y="0" type="curve"/>
      <point x="137" y="0"/>
      <point x="63" y="0"/>
    </contour>
    <contour>
      <point x="63" y="613" type="curve"/>
      <point x="63" y="613"/>
      <point x="63" y="739"/>
      <point x="63" y="739" type="curve"/>
      <point x="63" y="739"/>
      <point x="137" y="739"/>
      <point x="137" y="739" type="curve"/>
      <point x="137" y="739"/>
      <point x="137" y="613"/>
      <point x="137" y="613" type="curve"/>
      <point x="137" y="613"/>
      <point x="63" y="613"/>
    </contour>
  </outline>
</glyph>
<glyph name="k" format="1">
  <advance width="502"/>
  <unicode hex="006B"/>
  <outline>
    <contour>
      <point x="248" y="805" type="move" name="Anchor-0"/>
    </contour>
    <contour>
      <point x="63" y="0" type="line"/>
      <point x="63" y="739" type="line"/>
      <point x="137" y="739" type="line"/>
      <point x="137" y="215" type="line"/>
      <point x="392" y="547" type="line"/>
      <point x="483" y="547" type="line"/>
      <point x="270" y="272" type="line"/>
      <point x="497" y="0" type="line"/>
      <point x="405" y="0" type="line"/>
      <point x="223" y="219" type="line"/>
      <point x="137" y="113" type="line"/>
      <point x="137" y="0" type="line"/>
    </contour>
  </outline>
</glyph>
<glyph name="l" format="1">
  <advance width="200"/>
  <unicode hex="006C"/>
  <outline>
    <contour>
      <point x="100" y="805" type="move" name="Anchor-0"/>
    </contour>
    <contour>
      <point x="63" y="0" type="line"/>
      <point x="63" y="739" type="line"/>
      <point x="137" y="739" type="line"/>
      <point x="137" y="0" type="line"/>
    </contour>
  </outline>
</glyph>
<glyph name="n" format="1">
  <advance width="610"/>
  <unicode hex="006E"/>
  <outline>
    <contour>
      <point x="305" y="623" type="move" name="Anchor-0"/>
    </contour>
    <contour>
      <point x="63" y="0" type="line"/>
      <point x="63" y="547" type="line"/>
      <point x="137" y="547" type="line"/>
      <point x="137" y="476" type="line"/>
      <point x="183" y="533"/>
      <point x="241" y="560"/>
      <point x="313" y="560" type="curve" smooth="yes"/>
      <point x="390" y="560"/>
      <point x="456" y="530"/>
      <point x="499" y="475" type="curve" smooth="yes"/>
      <point x="534" y="428"/>
      <point x="547" y="379"/>
      <point x="547" y="287" type="curve" smooth="yes"/>
      <point x="547" y="0" type="line"/>
      <point x="473" y="0" type="line"/>
      <point x="473" y="287" type="line" smooth="yes"/>
      <point x="473" y="361"/>
      <point x="462" y="402"/>
      <point x="434" y="436" type="curve" smooth="yes"/>
      <point x="404" y="472"/>
      <point x="357" y="492"/>
      <point x="304" y="492" type="curve" smooth="yes"/>
      <point x="244" y="492"/>
      <point x="192" y="466"/>
      <point x="163" y="422" type="curve" smooth="yes"/>
      <point x="144" y="392"/>
      <point x="137" y="360"/>
      <point x="137" y="301" type="curve" smooth="yes"/>
      <point x="137" y="0" type="line"/>
    </contour>
  </outline>
</glyph>
<glyph name="p" format="1">
  <advance width="682"/>
  <unicode hex="0070"/>
  <outline>
    <contour>
      <point x="335" y="623" type="move" name="Anchor-0"/>
    </contour>
    <contour>
      <point x="63" y="547" type="line"/>
      <point x="137" y="547" type="line"/>
      <point x="137" y="453" type="line"/>
      <point x="183" y="523"/>
      <point x="258" y="560"/>
      <point x="352" y="560" type="curve" smooth="yes"/>
      <point x="515" y="560"/>
      <point x="640" y="436"/>
      <point x="640" y="273" type="curve" smooth="yes"/>
      <point x="640" y="112"/>
      <point x="514" y="-13"/>
      <point x="350" y="-13" type="curve" smooth="yes"/>
      <point x="259" y="-13"/>
      <point x="185" y="24"/>
      <point x="137" y="94" type="curve"/>
      <point x="137" y="-192" type="line"/>
      <point x="63" y="-192" type="line"/>
    </contour>
    <contour>
      <point x="346" y="492" type="curve" smooth="yes"/>
      <point x="226" y="492"/>
      <point x="132" y="396"/>
      <point x="132" y="273" type="curve" smooth="yes"/>
      <point x="132" y="150"/>
      <point x="226" y="55"/>
      <point x="349" y="55" type="curve" smooth="yes"/>
      <point x="472" y="55"/>
      <point x="565" y="148"/>
      <point x="565" y="271" type="curve" smooth="yes"/>
      <point x="565" y="400"/>
      <point x="473" y="492"/>
    </contour>
  </outline>
</glyph>
<glyph name="q" format="1">
  <advance width="682"/>
  <unicode hex="0071"/>
  <outline>
    <contour>
      <point x="342" y="623" type="move" name="Anchor-0"/>
    </contour>
    <contour>
      <point x="619" y="547" type="line"/>
      <point x="619" y="-192" type="line"/>
      <point x="545" y="-192" type="line"/>
      <point x="545" y="94" type="line"/>
      <point x="497" y="24"/>
      <point x="423" y="-13"/>
      <point x="332" y="-13" type="curve" smooth="yes"/>
      <point x="168" y="-13"/>
      <point x="42" y="112"/>
      <point x="42" y="273" type="curve" smooth="yes"/>
      <point x="42" y="436"/>
      <point x="167" y="560"/>
      <point x="330" y="560" type="curve" smooth="yes"/>
      <point x="424" y="560"/>
      <point x="499" y="523"/>
      <point x="545" y="453" type="curve"/>
      <point x="545" y="547" type="line"/>
    </contour>
    <contour>
      <point x="331" y="492" type="curve" smooth="yes"/>
      <point x="209" y="492"/>
      <point x="117" y="397"/>
      <point x="117" y="272" type="curve" smooth="yes"/>
      <point x="117" y="148"/>
      <point x="210" y="55"/>
      <point x="333" y="55" type="curve" smooth="yes"/>
      <point x="456" y="55"/>
      <point x="550" y="150"/>
      <point x="550" y="273" type="curve" smooth="yes"/>
      <point x="550" y="398"/>
      <point x="456" y="492"/>
    </contour>
  </outline>
</glyph>
<glyph name="r" format="1">
  <advance width="301"/>
  <unicode hex="0072"/>
  <outline>
    <contour>
      <point x="174" y="623" type="move" name="Top"/>
    </contour>
    <contour>
      <point x="63" y="0" type="curve"/>
      <point x="63" y="0"/>
      <point x="63" y="547"/>
      <point x="63" y="547" type="curve"/>
      <point x="63" y="547"/>
      <point x="137" y="547"/>
      <point x="137" y="547" type="curve"/>
      <point x="137" y="547"/>
      <point x="137" y="469"/>
      <point x="137" y="469" type="curve"/>
      <point x="166" y="529"/>
      <point x="213" y="556"/>
      <point x="292" y="560" type="curve"/>
      <point x="292" y="560"/>
      <point x="292" y="487"/>
      <point x="292" y="487" type="curve"/>
      <point x="189" y="477"/>
      <point x="137" y="421"/>
      <point x="137" y="319" type="curve" smooth="yes"/>
      <point x="137" y="319"/>
      <point x="137" y="0"/>
      <point x="137" y="0" type="curve"/>
      <point x="137" y="0"/>
      <point x="63" y="0"/>
    </contour>
  </outline>
</glyph>
<glyph name="s" format="1">
  <advance width="388"/>
  <unicode hex="0073"/>
  <outline>
    <contour>
      <point x="194" y="623" type="move" name="Anchor-0"/>
    </contour>
    <contour>
      <point x="18" y="161" type="curve"/>
      <point x="91" y="161" type="line"/>
      <point x="95" y="93"/>
      <point x="132" y="55"/>
      <point x="194" y="55" type="curve" smooth="yes"/>
      <point x="248" y="55"/>
      <point x="286" y="95"/>
      <point x="286" y="150" type="curve" smooth="yes"/>
      <point x="286" y="200"/>
      <point x="266" y="220"/>
      <point x="180" y="255" type="curve" smooth="yes"/>
      <point x="103" y="287"/>
      <point x="102" y="287"/>
      <point x="79" y="308" type="curve" smooth="yes"/>
      <point x="52" y="333"/>
      <point x="38" y="366"/>
      <point x="38" y="406" type="curve" smooth="yes"/>
      <point x="38" y="495"/>
      <point x="103" y="560"/>
      <point x="193" y="560" type="curve" smooth="yes"/>
      <point x="281" y="560"/>
      <point x="344" y="500"/>
      <point x="347" y="412" type="curve"/>
      <point x="272" y="412" type="line"/>
      <point x="268" y="464"/>
      <point x="240" y="492"/>
      <point x="192" y="492" type="curve" smooth="yes"/>
      <point x="148" y="492"/>
      <point x="113" y="457"/>
      <point x="113" y="413" type="curve" smooth="yes"/>
      <point x="113" y="381"/>
      <point x="129" y="358"/>
      <point x="164" y="340" type="curve" smooth="yes"/>
      <point x="180" y="333"/>
      <point x="184" y="331"/>
      <point x="266" y="297" type="curve" smooth="yes"/>
      <point x="330" y="270"/>
      <point x="361" y="224"/>
      <point x="361" y="157" type="curve" smooth="yes"/>
      <point x="361" y="57"/>
      <point x="293" y="-13"/>
      <point x="194" y="-13" type="curve" smooth="yes"/>
      <point x="88" y="-13"/>
      <point x="19" y="55"/>
    </contour>
  </outline>
</glyph>
<glyph name="t" format="1">
  <advance width="339"/>
  <unicode hex="0074"/>
  <outline>
    <contour>
      <point x="170" y="805" type="move" name="Top"/>
    </contour>
    <contour>
      <point x="130" y="0" type="curve"/>
      <point x="130" y="0"/>
      <point x="130" y="480"/>
      <point x="130" y="480" type="curve"/>
      <point x="130" y="480"/>
      <point x="12" y="480"/>
      <point x="12" y="480" type="curve"/>
      <point x="12" y="480"/>
      <point x="12" y="547"/>
      <point x="12" y="547" type="curve"/>
      <point x="12" y="547"/>
      <point x="130" y="547"/>
      <point x="130" y="547" type="curve"/>
      <point x="130" y="547"/>
      <point x="130" y="739"/>
      <point x="130" y="739" type="curve"/>
      <point x="130" y="739"/>
      <point x="204" y="739"/>
      <point x="204" y="739" type="curve"/>
      <point x="204" y="739"/>
      <point x="204" y="547"/>
      <point x="204" y="547" type="curve"/>
      <point x="204" y="547"/>
      <point x="327" y="547"/>
      <point x="327" y="547" type="curve"/>
      <point x="327" y="547"/>
      <point x="327" y="480"/>
      <point x="327" y="480" type="curve"/>
      <point x="327" y="480"/>
      <point x="204" y="480"/>
      <point x="204" y="480" type="curve"/>
      <point x="204" y="480"/>
      <point x="204" y="0"/>
      <point x="204" y="0" type="curve"/>
      <point x="204" y="0"/>
      <point x="130" y="0"/>
    </contour>
  </outline>
</glyph>
<glyph name="v" format="1">
  <advance width="554"/>
  <unicode hex="0076"/>
  <outline>
    <contour>
      <point x="277" y="623" type="move" name="Top"/>
    </contour>
    <contour>
      <point x="238" y="0" type="curve"/>
      <point x="238" y="0"/>
      <point x="8" y="547"/>
      <point x="8" y="547" type="curve"/>
      <point x="8" y="547"/>
      <point x="83" y="547"/>
      <point x="83" y="547" type="curve"/>
      <point x="83" y="547"/>
      <point x="275" y="87"/>
      <point x="275" y="87" type="curve"/>
      <point x="275" y="87"/>
      <point x="471" y="547"/>
      <point x="471" y="547" type="curve"/>
      <point x="471" y="547"/>
      <point x="546" y="547"/>
      <point x="546" y="547" type="curve"/>
      <point x="546" y="547"/>
      <point x="316" y="0"/>
      <point x="316" y="0" type="curve"/>
      <point x="316" y="0"/>
      <point x="238" y="0"/>
    </contour>
  </outline>
</glyph>
<glyph name="w" format="1">
  <advance width="831"/>
  <unicode hex="0077"/>
  <outline>
    <contour>
      <point x="415" y="623" type="move" name="Top"/>
    </contour>
    <contour>
      <point x="216" y="0" type="curve"/>
      <point x="216" y="0"/>
      <point x="7" y="547"/>
      <point x="7" y="547" type="curve"/>
      <point x="7" y="547"/>
      <point x="81" y="547"/>
      <point x="81" y="547" type="curve"/>
      <point x="81" y="547"/>
      <point x="255" y="89"/>
      <point x="255" y="89" type="curve"/>
      <point x="255" y="89"/>
      <point x="384" y="480"/>
      <point x="384" y="480" type="curve"/>
      <point x="384" y="480"/>
      <point x="445" y="480"/>
      <point x="445" y="480" type="curve"/>
      <point x="445" y="480"/>
      <point x="574" y="89"/>
      <point x="574" y="89" type="curve"/>
      <point x="574" y="89"/>
      <point x="752" y="547"/>
      <point x="752" y="547" type="curve"/>
      <point x="752" y="547"/>
      <point x="824" y="547"/>
      <point x="824" y="547" type="curve"/>
      <point x="824" y="547"/>
      <point x="612" y="0"/>
      <point x="612" y="0" type="curve"/>
      <point x="612" y="0"/>
      <point x="533" y="0"/>
      <point x="533" y="0" type="curve"/>
      <point x="533" y="0"/>
      <point x="414" y="363"/>
      <point x="414" y="363" type="curve"/>
      <point x="414" y="363"/>
      <point x="296" y="0"/>
      <point x="296" y="0" type="curve"/>
      <point x="296" y="0"/>
      <point x="216" y="0"/>
    </contour>
  </outline>
</glyph>
<glyph name="x" format="1">
  <advance width="480"/>
  <unicode hex="0078"/>
  <outline>
    <contour>
      <point x="240" y="623" type="move" name="Top"/>
    </contour>
    <contour>
      <point x="8" y="0" type="curve"/>
      <point x="8" y="0"/>
      <point x="198" y="279"/>
      <point x="198" y="279" type="curve"/>
      <point x="198" y="279"/>
      <point x="8" y="547"/>
      <point x="8" y="547" type="curve"/>
      <point x="8" y="547"/>
      <point x="92" y="547"/>
      <point x="92" y="547" type="curve"/>
      <point x="92" y="547"/>
      <point x="240" y="336"/>
      <point x="240" y="336" type="curve"/>
      <point x="240" y="336"/>
      <point x="387" y="547"/>
      <point x="387" y="547" type="curve"/>
      <point x="387" y="547"/>
      <point x="472" y="547"/>
      <point x="472" y="547" type="curve"/>
      <point x="472" y="547"/>
      <point x="281" y="279"/>
      <point x="281" y="279" type="curve"/>
      <point x="281" y="279"/>
      <point x="472" y="0"/>
      <point x="472" y="0" type="curve"/>
      <point x="472" y="0"/>
      <point x="387" y="0"/>
      <point x="387" y="0" type="curve"/>
      <point x="387" y="0"/>
      <point x="240" y="219"/>
      <point x="240" y="219" type="curve"/>
      <point x="240" y="219"/>
      <point x="92" y="0"/>
      <point x="92" y="0" type="curve"/>
      <point x="92" y="0"/>
      <point x="8" y="0"/>
    </contour>
  </outline>
</glyph>
<glyph name="z" format="1">
  <advance width="425"/>
  <unicode hex="007A"/>
  <outline>
    <contour>
      <point x="212" y="623" type="move" name="Top"/>
    </contour>
    <contour>
      <point x="10" y="0" type="curve"/>
      <point x="10" y="0"/>
      <point x="10" y="67"/>
      <point x="10" y="67" type="curve"/>
      <point x="10" y="67"/>
      <point x="312" y="480"/>
      <point x="312" y="480" type="curve"/>
      <point x="312" y="480"/>
      <point x="20" y="480"/>
      <point x="20" y="480" type="curve"/>
      <point x="20" y="480"/>
      <point x="20" y="547"/>
      <point x="20" y="547" type="curve"/>
      <point x="20" y="547"/>
      <point x="396" y="547"/>
      <point x="396" y="547" type="curve"/>
      <point x="396" y="547"/>
      <point x="396" y="484"/>
      <point x="396" y="484" type="curve"/>
      <point x="396" y="484"/>
      <point x="97" y="67"/>
      <point x="97" y="67" type="curve"/>
      <point x="97" y="67"/>
      <point x="415" y="67"/>
      <point x="415" y="67" type="curve"/>
      <point x="415" y="67"/>
      <point x="415" y="0"/>
      <point x="415" y="0" type="curve"/>
      <point x="415" y="0"/>
      <point x="10" y="0"/>
    </contour>
  </outline>
</glyph>
<glyph name="braceleft" format="1">
  <advance width="351"/>
  <unicode hex="007B"/>
  <outline>
    <contour>
      <point x="125" y="306" type="curve"/>
      <point x="143" y="300" type="line" smooth="yes"/>
      <point x="197" y="279"/>
      <point x="214" y="251"/>
      <point x="214" y="182" type="curve" smooth="yes"/>
      <point x="214" y="12" type="line" smooth="yes"/>
      <point x="214" y="-39"/>
      <point x="228" y="-53"/>
      <point x="281" y="-58" type="curve" smooth="yes"/>
      <point x="292" y="-59" type="line"/>
      <point x="292" y="-126" type="line"/>
      <point x="225" y="-125"/>
      <point x="207" y="-121"/>
      <point x="183" y="-105" type="curve" smooth="yes"/>
      <point x="152" y="-85"/>
      <point x="137" y="-47"/>
      <point x="137" y="13" type="curve" smooth="yes"/>
      <point x="137" y="183" type="line" smooth="yes"/>
      <point x="137" y="245"/>
      <point x="123" y="260"/>
      <point x="58" y="272" type="curve"/>
      <point x="58" y="341" type="line"/>
      <point x="123" y="352"/>
      <point x="137" y="368"/>
      <point x="137" y="430" type="curve" smooth="yes"/>
      <point x="137" y="600" type="line" smooth="yes"/>
      <point x="137" y="660"/>
      <point x="152" y="698"/>
      <point x="183" y="718" type="curve" smooth="yes"/>
      <point x="207" y="734"/>
      <point x="225" y="737"/>
      <point x="292" y="739" type="curve"/>
      <point x="292" y="672" type="line"/>
      <point x="252" y="668"/>
      <point x="246" y="667"/>
      <point x="237" y="662" type="curve" smooth="yes"/>
      <point x="222" y="654"/>
      <point x="214" y="631"/>
      <point x="214" y="601" type="curve" smooth="yes"/>
      <point x="214" y="431" type="line" smooth="yes"/>
      <point x="214" y="362"/>
      <point x="197" y="333"/>
      <point x="143" y="313" type="curve" smooth="yes"/>
      <point x="137" y="311"/>
      <point x="131" y="309"/>
    </contour>
  </outline>
</glyph>
<glyph name="braceright" format="1">
  <advance width="348"/>
  <unicode hex="007D"/>
  <outline>
    <contour>
      <point x="226" y="306" type="line"/>
      <point x="208" y="313" type="line" smooth="yes"/>
      <point x="154" y="334"/>
      <point x="137" y="362"/>
      <point x="137" y="431" type="curve" smooth="yes"/>
      <point x="137" y="601" type="line" smooth="yes"/>
      <point x="137" y="624"/>
      <point x="131" y="645"/>
      <point x="122" y="656" type="curve" smooth="yes"/>
      <point x="114" y="665"/>
      <point x="102" y="668"/>
      <point x="70" y="671" type="curve" smooth="yes"/>
      <point x="59" y="672" type="line"/>
      <point x="59" y="739" type="line"/>
      <point x="137" y="737"/>
      <point x="162" y="730"/>
      <point x="187" y="702" type="curve" smooth="yes"/>
      <point x="204" y="683"/>
      <point x="214" y="646"/>
      <point x="214" y="600" type="curve" smooth="yes"/>
      <point x="214" y="430" type="line" smooth="yes"/>
      <point x="214" y="368"/>
      <point x="227" y="352"/>
      <point x="290" y="341" type="curve"/>
      <point x="290" y="272" type="line"/>
      <point x="227" y="261"/>
      <point x="214" y="245"/>
      <point x="214" y="183" type="curve" smooth="yes"/>
      <point x="214" y="13" type="line" smooth="yes"/>
      <point x="214" y="-40"/>
      <point x="202" y="-78"/>
      <point x="178" y="-98" type="curve" smooth="yes"/>
      <point x="153" y="-119"/>
      <point x="131" y="-125"/>
      <point x="59" y="-126" type="curve"/>
      <point x="59" y="-59" type="line"/>
      <point x="70" y="-58" type="line" smooth="yes"/>
      <point x="106" y="-55"/>
      <point x="118" y="-51"/>
      <point x="126" y="-38" type="curve" smooth="yes"/>
      <point x="133" y="-27"/>
      <point x="137" y="-8"/>
      <point x="137" y="12" type="curve" smooth="yes"/>
      <point x="137" y="182" type="line" smooth="yes"/>
      <point x="137" y="251"/>
      <point x="154" y="279"/>
      <point x="208" y="300" type="curve" smooth="yes"/>
    </contour>
  </outline>
</glyph>
<glyph name="asciitilde" format="1">
  <advance width="606"/>
  <unicode hex="007E"/>
  <outline>
    <contour>
      <point x="511" y="390" type="curve"/>
      <point x="555" y="343" type="line"/>
      <point x="521" y="275"/>
      <point x="466" y="231"/>
      <point x="415" y="231" type="curve" smooth="yes"/>
      <point x="392" y="231"/>
      <point x="366" y="238"/>
      <point x="322" y="257" type="curve" smooth="yes"/>
      <point x="267" y="279" type="line" smooth="yes"/>
      <point x="224" y="297"/>
      <point x="214" y="300"/>
      <point x="194" y="300" type="curve" smooth="yes"/>
      <point x="168" y="300"/>
      <point x="145" y="287"/>
      <point x="128" y="265" type="curve" smooth="yes"/>
      <point x="117" y="250"/>
      <point x="112" y="242"/>
      <point x="93" y="210" type="curve"/>
      <point x="51" y="257" type="line"/>
      <point x="99" y="343"/>
      <point x="138" y="377"/>
      <point x="194" y="377" type="curve" smooth="yes"/>
      <point x="215" y="377"/>
      <point x="241" y="371"/>
      <point x="271" y="358" type="curve" smooth="yes"/>
      <point x="336" y="331" type="line" smooth="yes"/>
      <point x="380" y="313"/>
      <point x="396" y="308"/>
      <point x="416" y="308" type="curve" smooth="yes"/>
      <point x="448" y="308"/>
      <point x="477" y="332"/>
    </contour>
  </outline>
</glyph>
<glyph name="exclamdown" format="1">
  <advance width="295"/>
  <unicode hex="00A1"/>
  <outline>
    <contour>
      <point x="111" y="-192" type="curve"/>
      <point x="111" y="-192"/>
      <point x="111" y="352"/>
      <point x="111" y="352" type="curve"/>
      <point x="111" y="352"/>
      <point x="185" y="352"/>
      <point x="185" y="352" type="curve"/>
      <point x="185" y="352"/>
      <point x="185" y="-192"/>
      <point x="185" y="-192" type="curve"/>
      <point x="185" y="-192"/>
      <point x="111" y="-192"/>
    </contour>
    <contour>
      <point x="111" y="421" type="curve"/>
      <point x="111" y="421"/>
      <point x="111" y="547"/>
      <point x="111" y="547" type="curve"/>
      <point x="111" y="547"/>
      <point x="185" y="547"/>
      <point x="185" y="547" type="curve"/>
      <point x="185" y="547"/>
      <point x="185" y="421"/>
      <point x="185" y="421" type="curve"/>
      <point x="185" y="421"/>
      <point x="111" y="421"/>
    </contour>
  </outline>
</glyph>
<glyph name="cent" format="1">
  <advance width="554"/>
  <unicode hex="00A2"/>
  <outline>
    <contour>
      <point x="259" y="62" type="line"/>
      <point x="259" y="151" type="line"/>
      <point x="136" y="161"/>
      <point x="45" y="259"/>
      <point x="45" y="382" type="curve" smooth="yes"/>
      <point x="45" y="507"/>
      <point x="132" y="601"/>
      <point x="259" y="614" type="curve"/>
      <point x="259" y="707" type="line"/>
      <point x="325" y="707" type="line"/>
      <point x="325" y="614" type="line"/>
      <point x="411" y="602"/>
      <point x="480" y="545"/>
      <point x="509" y="463" type="curve"/>
      <point x="426" y="463" type="line"/>
      <point x="395" y="518"/>
      <point x="346" y="547"/>
      <point x="283" y="547" type="curve" smooth="yes"/>
      <point x="189" y="547"/>
      <point x="119" y="477"/>
      <point x="119" y="383" type="curve" smooth="yes"/>
      <point x="119" y="290"/>
      <point x="191" y="217"/>
      <point x="282" y="217" type="curve" smooth="yes"/>
      <point x="337" y="217"/>
      <point x="377" y="238"/>
      <point x="422" y="290" type="curve"/>
      <point x="503" y="290" type="line"/>
      <point x="476" y="217"/>
      <point x="405" y="162"/>
      <point x="325" y="151" type="curve"/>
      <point x="325" y="62" type="line"/>
    </contour>
  </outline>
</glyph>
<glyph name="sterling" format="1">
  <advance width="554"/>
  <unicode hex="00A3"/>
  <outline>
    <contour>
      <point x="59" y="0" type="line"/>
      <point x="59" y="67" type="line"/>
      <point x="198" y="67" type="line"/>
      <point x="226" y="98"/>
      <point x="240" y="136"/>
      <point x="240" y="183" type="curve" smooth="yes"/>
      <point x="240" y="246"/>
      <point x="221" y="279"/>
      <point x="144" y="347" type="curve"/>
      <point x="18" y="347" type="line"/>
      <point x="18" y="414" type="line"/>
      <point x="93" y="414" type="line"/>
      <point x="76" y="455"/>
      <point x="71" y="478"/>
      <point x="71" y="512" type="curve" smooth="yes"/>
      <point x="71" y="652"/>
      <point x="169" y="752"/>
      <point x="306" y="752" type="curve" smooth="yes"/>
      <point x="440" y="752"/>
      <point x="540" y="667"/>
      <point x="554" y="541" type="curve"/>
      <point x="485" y="541" type="line"/>
      <point x="465" y="632"/>
      <point x="399" y="685"/>
      <point x="307" y="685" type="curve" smooth="yes"/>
      <point x="211" y="685"/>
      <point x="145" y="615"/>
      <point x="145" y="513" type="curve" smooth="yes"/>
      <point x="145" y="475"/>
      <point x="150" y="456"/>
      <point x="173" y="414" type="curve"/>
      <point x="457" y="414" type="line"/>
      <point x="457" y="347" type="line"/>
      <point x="242" y="347" type="line"/>
      <point x="290" y="295"/>
      <point x="314" y="241"/>
      <point x="314" y="184" type="curve" smooth="yes"/>
      <point x="314" y="146"/>
      <point x="307" y="116"/>
      <point x="285" y="67" type="curve"/>
      <point x="342" y="67" type="line" smooth="yes"/>
      <point x="404" y="67"/>
      <point x="446" y="80"/>
      <point x="473" y="106" type="curve" smooth="yes"/>
      <point x="500" y="133"/>
      <point x="518" y="177"/>
      <point x="518" y="219" type="curve" smooth="yes"/>
      <point x="518" y="232"/>
      <point x="517" y="244"/>
      <point x="512" y="268" type="curve"/>
      <point x="584" y="268" type="line"/>
      <point x="590" y="245"/>
      <point x="592" y="233"/>
      <point x="592" y="213" type="curve" smooth="yes"/>
      <point x="592" y="144"/>
      <point x="561" y="80"/>
      <point x="511" y="43" type="curve" smooth="yes"/>
      <point x="471" y="14"/>
      <point x="418" y="0"/>
      <point x="344" y="0" type="curve" smooth="yes"/>
    </contour>
  </outline>
</glyph>
<glyph name="currency" format="1">
  <advance width="554"/>
  <unicode hex="00A4"/>
  <outline>
    <contour>
      <point x="29" y="494" type="line"/>
      <point x="84" y="548" type="line"/>
      <point x="127" y="506" type="line"/>
      <point x="180" y="540"/>
      <point x="220" y="553"/>
      <point x="276" y="553" type="curve" smooth="yes"/>
      <point x="334" y="553"/>
      <point x="382" y="538"/>
      <point x="426" y="507" type="curve"/>
      <point x="469" y="549" type="line"/>
      <point x="523" y="494" type="line"/>
      <point x="482" y="452" type="line"/>
      <point x="514" y="404"/>
      <point x="528" y="359"/>
      <point x="528" y="300" type="curve" smooth="yes"/>
      <point x="528" y="240"/>
      <point x="513" y="191"/>
      <point x="481" y="153" type="curve"/>
      <point x="523" y="111" type="line"/>
      <point x="469" y="58" type="line"/>
      <point x="428" y="100" type="line"/>
      <point x="370" y="62"/>
      <point x="333" y="50"/>
      <point x="276" y="50" type="curve" smooth="yes"/>
      <point x="219" y="50"/>
      <point x="180" y="63"/>
      <point x="126" y="100" type="curve"/>
      <point x="84" y="58" type="line"/>
      <point x="31" y="112" type="line"/>
      <point x="72" y="153" type="line"/>
      <point x="40" y="198"/>
      <point x="26" y="244"/>
      <point x="26" y="303" type="curve" smooth="yes"/>
      <point x="26" y="362"/>
      <point x="40" y="406"/>
      <point x="73" y="452" type="curve"/>
    </contour>
    <contour>
      <point x="275" y="483" type="curve" smooth="yes"/>
      <point x="174" y="483"/>
      <point x="97" y="405"/>
      <point x="97" y="302" type="curve" smooth="yes"/>
      <point x="97" y="199"/>
      <point x="175" y="122"/>
      <point x="279" y="122" type="curve" smooth="yes"/>
      <point x="380" y="122"/>
      <point x="457" y="200"/>
      <point x="457" y="302" type="curve" smooth="yes"/>
      <point x="457" y="409"/>
      <point x="382" y="483"/>
    </contour>
  </outline>
</glyph>
<glyph name="yen" format="1">
  <advance width="554"/>
  <unicode hex="00A5"/>
  <outline>
    <contour>
      <point x="260" y="0" type="curve"/>
      <point x="260" y="0"/>
      <point x="260" y="237"/>
      <point x="260" y="237" type="curve"/>
      <point x="260" y="237"/>
      <point x="50" y="237"/>
      <point x="50" y="237" type="curve"/>
      <point x="50" y="237"/>
      <point x="50" y="304"/>
      <point x="50" y="304" type="curve"/>
      <point x="50" y="304"/>
      <point x="233" y="304"/>
      <point x="233" y="304" type="curve"/>
      <point x="233" y="304"/>
      <point x="184" y="396"/>
      <point x="184" y="396" type="curve"/>
      <point x="184" y="396"/>
      <point x="43" y="396"/>
      <point x="43" y="396" type="curve"/>
      <point x="43" y="396"/>
      <point x="43" y="463"/>
      <point x="43" y="463" type="curve"/>
      <point x="43" y="463"/>
      <point x="148" y="463"/>
      <point x="148" y="463" type="curve"/>
      <point x="148" y="463"/>
      <point x="0" y="739"/>
      <point x="0" y="739" type="curve"/>
      <point x="0" y="739"/>
      <point x="76" y="739"/>
      <point x="76" y="739" type="curve"/>
      <point x="76" y="739"/>
      <point x="297" y="327"/>
      <point x="297" y="327" type="curve"/>
      <point x="297" y="327"/>
      <point x="513" y="739"/>
      <point x="513" y="739" type="curve"/>
      <point x="513" y="739"/>
      <point x="589" y="739"/>
      <point x="589" y="739" type="curve"/>
      <point x="589" y="739"/>
      <point x="443" y="463"/>
      <point x="443" y="463" type="curve"/>
      <point x="443" y="463"/>
      <point x="546" y="463"/>
      <point x="546" y="463" type="curve"/>
      <point x="546" y="463"/>
      <point x="546" y="396"/>
      <point x="546" y="396" type="curve"/>
      <point x="546" y="396"/>
      <point x="407" y="396"/>
      <point x="407" y="396" type="curve"/>
      <point x="407" y="396"/>
      <point x="359" y="304"/>
      <point x="359" y="304" type="curve"/>
      <point x="359" y="304"/>
      <point x="539" y="304"/>
      <point x="539" y="304" type="curve"/>
      <point x="539" y="304"/>
      <point x="539" y="237"/>
      <point x="539" y="237" type="curve"/>
      <point x="539" y="237"/>
      <point x="333" y="237"/>
      <point x="333" y="237" type="curve"/>
      <point x="333" y="237"/>
      <point x="333" y="0"/>
      <point x="333" y="0" type="curve"/>
      <point x="333" y="0"/>
      <point x="260" y="0"/>
    </contour>
  </outline>
</glyph>
<glyph name="brokenbar" format="1">
  <advance width="672"/>
  <unicode hex="00A6"/>
  <outline>
    <contour>
      <point x="368" y="739" type="curve"/>
      <point x="368" y="739"/>
      <point x="368" y="444"/>
      <point x="368" y="444" type="curve"/>
      <point x="368" y="444"/>
      <point x="304" y="444"/>
      <point x="304" y="444" type="curve"/>
      <point x="304" y="444"/>
      <point x="304" y="739"/>
      <point x="304" y="739" type="curve"/>
      <point x="304" y="739"/>
      <point x="368" y="739"/>
    </contour>
    <contour>
      <point x="368" y="295" type="curve"/>
      <point x="368" y="295"/>
      <point x="368" y="0"/>
      <point x="368" y="0" type="curve"/>
      <point x="368" y="0"/>
      <point x="304" y="0"/>
      <point x="304" y="0" type="curve"/>
      <point x="304" y="0"/>
      <point x="304" y="295"/>
      <point x="304" y="295" type="curve"/>
      <point x="304" y="295"/>
      <point x="368" y="295"/>
    </contour>
  </outline>
</glyph>
<glyph name="section" format="1">
  <advance width="615"/>
  <unicode hex="00A7"/>
  <outline>
    <contour>
      <point x="483" y="606" type="curve"/>
      <point x="412" y="606" type="line"/>
      <point x="401" y="659"/>
      <point x="366" y="685"/>
      <point x="307" y="685" type="curve" smooth="yes"/>
      <point x="246" y="685"/>
      <point x="203" y="646"/>
      <point x="203" y="591" type="curve" smooth="yes"/>
      <point x="203" y="554"/>
      <point x="224" y="524"/>
      <point x="262" y="505" type="curve" smooth="yes"/>
      <point x="420" y="431" type="line" smooth="yes"/>
      <point x="493" y="396"/>
      <point x="529" y="350"/>
      <point x="529" y="289" type="curve" smooth="yes"/>
      <point x="529" y="234"/>
      <point x="502" y="183"/>
      <point x="453" y="146" type="curve"/>
      <point x="487" y="111"/>
      <point x="501" y="78"/>
      <point x="501" y="37" type="curve" smooth="yes"/>
      <point x="501" y="-65"/>
      <point x="421" y="-141"/>
      <point x="313" y="-141" type="curve" smooth="yes"/>
      <point x="196" y="-141"/>
      <point x="110" y="-56"/>
      <point x="106" y="64" type="curve"/>
      <point x="174" y="64" type="line"/>
      <point x="180" y="-19"/>
      <point x="235" y="-74"/>
      <point x="313" y="-74" type="curve" smooth="yes"/>
      <point x="381" y="-74"/>
      <point x="433" y="-27"/>
      <point x="433" y="35" type="curve" smooth="yes"/>
      <point x="433" y="75"/>
      <point x="406" y="104"/>
      <point x="339" y="137" type="curve" smooth="yes"/>
      <point x="196" y="207" type="line" smooth="yes"/>
      <point x="114" y="248"/>
      <point x="87" y="280"/>
      <point x="87" y="339" type="curve" smooth="yes"/>
      <point x="87" y="401"/>
      <point x="115" y="450"/>
      <point x="173" y="491" type="curve"/>
      <point x="146" y="521"/>
      <point x="135" y="548"/>
      <point x="135" y="589" type="curve" smooth="yes"/>
      <point x="135" y="683"/>
      <point x="208" y="752"/>
      <point x="307" y="752" type="curve" smooth="yes"/>
      <point x="404" y="752"/>
      <point x="476" y="692"/>
    </contour>
    <contour>
      <point x="400" y="365" type="curve" smooth="yes"/>
      <point x="212" y="454" type="line"/>
      <point x="177" y="430"/>
      <point x="155" y="390"/>
      <point x="155" y="350" type="curve" smooth="yes"/>
      <point x="155" y="319"/>
      <point x="172" y="296"/>
      <point x="209" y="278" type="curve" smooth="yes"/>
      <point x="407" y="182" type="line"/>
      <point x="440" y="206"/>
      <point x="461" y="244"/>
      <point x="461" y="280" type="curve" smooth="yes"/>
      <point x="461" y="317"/>
      <point x="441" y="346"/>
    </contour>
  </outline>
</glyph>
<glyph name="dieresis" format="1">
  <advance width="369"/>
  <unicode hex="00A8"/>
  <outline>
    <contour>
      <point x="74" y="749" type="curve"/>
      <point x="74" y="749"/>
      <point x="148" y="749"/>
      <point x="148" y="749" type="curve"/>
      <point x="148" y="749"/>
      <point x="148" y="623"/>
      <point x="148" y="623" type="curve"/>
      <point x="148" y="623"/>
      <point x="74" y="623"/>
      <point x="74" y="623" type="curve"/>
      <point x="74" y="623"/>
      <point x="74" y="749"/>
    </contour>
    <contour>
      <point x="221" y="749" type="curve"/>
      <point x="221" y="749"/>
      <point x="295" y="749"/>
      <point x="295" y="749" type="curve"/>
      <point x="295" y="749"/>
      <point x="295" y="623"/>
      <point x="295" y="623" type="curve"/>
      <point x="295" y="623"/>
      <point x="221" y="623"/>
      <point x="221" y="623" type="curve"/>
      <point x="221" y="623"/>
      <point x="221" y="749"/>
    </contour>
  </outline>
</glyph>
<glyph name="copyright" format="1">
  <advance width="747"/>
  <unicode hex="00A9"/>
  <outline>
    <contour>
      <point x="501" y="261" type="curve"/>
      <point x="576" y="261" type="line"/>
      <point x="536" y="190"/>
      <point x="464" y="148"/>
      <point x="382" y="148" type="curve" smooth="yes"/>
      <point x="262" y="148"/>
      <point x="163" y="249"/>
      <point x="163" y="372" type="curve" smooth="yes"/>
      <point x="163" y="496"/>
      <point x="261" y="594"/>
      <point x="383" y="594" type="curve" smooth="yes"/>
      <point x="467" y="594"/>
      <point x="537" y="552"/>
      <point x="579" y="477" type="curve"/>
      <point x="505" y="477" type="line"/>
      <point x="471" y="518"/>
      <point x="432" y="538"/>
      <point x="384" y="538" type="curve" smooth="yes"/>
      <point x="296" y="538"/>
      <point x="224" y="464"/>
      <point x="224" y="372" type="curve" smooth="yes"/>
      <point x="224" y="281"/>
      <point x="297" y="204"/>
      <point x="383" y="204" type="curve" smooth="yes"/>
      <point x="429" y="204"/>
      <point x="469" y="223"/>
    </contour>
    <contour>
      <point x="378" y="752" type="curve" smooth="yes"/>
      <point x="584" y="752"/>
      <point x="755" y="579"/>
      <point x="755" y="369" type="curve" smooth="yes"/>
      <point x="755" y="158"/>
      <point x="584" y="-13"/>
      <point x="373" y="-13" type="curve" smooth="yes"/>
      <point x="162" y="-13"/>
      <point x="-9" y="158"/>
      <point x="-9" y="369" type="curve" smooth="yes"/>
      <point x="-9" y="583"/>
      <point x="161" y="752"/>
    </contour>
    <contour>
      <point x="369" y="700" type="curve" smooth="yes"/>
      <point x="193" y="700"/>
      <point x="47" y="550"/>
      <point x="47" y="369" type="curve" smooth="yes"/>
      <point x="47" y="187"/>
      <point x="193" y="39"/>
      <point x="373" y="39" type="curve" smooth="yes"/>
      <point x="553" y="39"/>
      <point x="699" y="187"/>
      <point x="699" y="369" type="curve" smooth="yes"/>
      <point x="699" y="554"/>
      <point x="554" y="700"/>
    </contour>
  </outline>
</glyph>
<glyph name="ordfeminine" format="1">
  <advance width="369"/>
  <unicode hex="00AA"/>
  <outline>
    <contour>
      <point x="333" y="739" type="line"/>
      <point x="333" y="448" type="line"/>
      <point x="285" y="448" type="line"/>
      <point x="285" y="493" type="line"/>
      <point x="255" y="456"/>
      <point x="225" y="441"/>
      <point x="182" y="441" type="curve" smooth="yes"/>
      <point x="100" y="441"/>
      <point x="31" y="511"/>
      <point x="31" y="594" type="curve" smooth="yes"/>
      <point x="31" y="677"/>
      <point x="99" y="745"/>
      <point x="183" y="745" type="curve" smooth="yes"/>
      <point x="224" y="745"/>
      <point x="266" y="724"/>
      <point x="285" y="694" type="curve"/>
      <point x="285" y="739" type="line"/>
    </contour>
    <contour>
      <point x="183" y="696" type="curve" smooth="yes"/>
      <point x="131" y="696"/>
      <point x="84" y="647"/>
      <point x="84" y="594" type="curve" smooth="yes"/>
      <point x="84" y="539"/>
      <point x="131" y="490"/>
      <point x="184" y="490" type="curve" smooth="yes"/>
      <point x="236" y="490"/>
      <point x="282" y="538"/>
      <point x="282" y="592" type="curve" smooth="yes"/>
      <point x="282" y="649"/>
      <point x="237" y="696"/>
    </contour>
    <contour>
      <point x="31" y="370" type="line"/>
      <point x="339" y="370" type="line"/>
      <point x="339" y="319" type="line"/>
      <point x="31" y="319" type="line"/>
    </contour>
  </outline>
</glyph>
<glyph name="guillemotleft" format="1">
  <advance width="425"/>
  <unicode hex="00AB"/>
  <outline>
    <contour>
      <point x="153" y="99" type="curve"/>
      <point x="153" y="99"/>
      <point x="40" y="300"/>
      <point x="40" y="300" type="curve"/>
      <point x="40" y="300"/>
      <point x="153" y="499"/>
      <point x="153" y="499" type="curve"/>
      <point x="153" y="499"/>
      <point x="212" y="467"/>
      <point x="212" y="467" type="curve"/>
      <point x="212" y="467"/>
      <point x="118" y="300"/>
      <point x="118" y="300" type="curve"/>
      <point x="118" y="300"/>
      <point x="212" y="132"/>
      <point x="212" y="132" type="curve"/>
      <point x="212" y="132"/>
      <point x="153" y="99"/>
    </contour>
    <contour>
      <point x="326" y="99" type="curve"/>
      <point x="326" y="99"/>
      <point x="211" y="300"/>
      <point x="211" y="300" type="curve"/>
      <point x="211" y="300"/>
      <point x="326" y="499"/>
      <point x="326" y="499" type="curve"/>
      <point x="326" y="499"/>
      <point x="385" y="467"/>
      <point x="385" y="467" type="curve"/>
      <point x="385" y="467"/>
      <point x="291" y="300"/>
      <point x="291" y="300" type="curve"/>
      <point x="291" y="300"/>
      <point x="385" y="132"/>
      <point x="385" y="132" type="curve"/>
      <point x="385" y="132"/>
      <point x="326" y="99"/>
    </contour>
  </outline>
</glyph>
<glyph name="logicalnot" format="1">
  <advance width="606"/>
  <unicode hex="00AC"/>
  <outline>
    <contour>
      <point x="51" y="436" type="line"/>
      <point x="555" y="436" type="line"/>
      <point x="555" y="148" type="line"/>
      <point x="483" y="148" type="line"/>
      <point x="483" y="363" type="line"/>
      <point x="51" y="363" type="line"/>
    </contour>
  </outline>
</glyph>
<glyph name="registered" format="1">
  <advance width="747"/>
  <unicode hex="00AE"/>
  <outline>
    <contour>
      <point x="530" y="157" type="line"/>
      <point x="454" y="157" type="line"/>
      <point x="309" y="359" type="line"/>
      <point x="309" y="157" type="line"/>
      <point x="248" y="157" type="line"/>
      <point x="248" y="585" type="line"/>
      <point x="380" y="585" type="line" smooth="yes"/>
      <point x="433" y="585"/>
      <point x="469" y="574"/>
      <point x="495" y="549" type="curve" smooth="yes"/>
      <point x="519" y="525"/>
      <point x="534" y="488"/>
      <point x="534" y="448" type="curve" smooth="yes"/>
      <point x="534" y="372"/>
      <point x="492" y="328"/>
      <point x="409" y="317" type="curve"/>
    </contour>
    <contour>
      <point x="309" y="365" type="line"/>
      <point x="353" y="365" type="line" smooth="yes"/>
      <point x="430" y="365"/>
      <point x="471" y="394"/>
      <point x="471" y="448" type="curve" smooth="yes"/>
      <point x="471" y="496"/>
      <point x="434" y="527"/>
      <point x="376" y="527" type="curve" smooth="yes"/>
      <point x="309" y="527" type="line"/>
    </contour>
    <contour>
      <point x="378" y="752" type="curve" smooth="yes"/>
      <point x="584" y="752"/>
      <point x="755" y="579"/>
      <point x="755" y="369" type="curve" smooth="yes"/>
      <point x="755" y="158"/>
      <point x="584" y="-13"/>
      <point x="373" y="-13" type="curve" smooth="yes"/>
      <point x="162" y="-13"/>
      <point x="-9" y="158"/>
      <point x="-9" y="369" type="curve" smooth="yes"/>
      <point x="-9" y="583"/>
      <point x="161" y="752"/>
    </contour>
    <contour>
      <point x="369" y="700" type="curve" smooth="yes"/>
      <point x="193" y="700"/>
      <point x="47" y="550"/>
      <point x="47" y="369" type="curve" smooth="yes"/>
      <point x="47" y="187"/>
      <point x="193" y="39"/>
      <point x="373" y="39" type="curve" smooth="yes"/>
      <point x="553" y="39"/>
      <point x="699" y="187"/>
      <point x="699" y="369" type="curve" smooth="yes"/>
      <point x="699" y="554"/>
      <point x="554" y="700"/>
    </contour>
  </outline>
</glyph>
<glyph name="macron" format="1">
  <advance width="485"/>
  <unicode hex="00AF"/>
  <outline>
    <contour>
      <point x="74" y="707" type="line"/>
      <point x="411" y="707" type="line"/>
      <point x="411" y="643" type="line"/>
      <point x="74" y="643" type="line"/>
    </contour>
  </outline>
</glyph>
<glyph name="plusminus" format="1">
  <advance width="606"/>
  <unicode hex="00B1"/>
  <outline>
    <contour>
      <point x="265" y="369" type="line"/>
      <point x="265" y="585" type="line"/>
      <point x="342" y="585" type="line"/>
      <point x="342" y="369" type="line"/>
      <point x="555" y="369" type="line"/>
      <point x="555" y="295" type="line"/>
      <point x="342" y="295" type="line"/>
      <point x="342" y="124" type="line"/>
      <point x="265" y="124" type="line"/>
      <point x="265" y="295" type="line"/>
      <point x="51" y="295" type="line"/>
      <point x="51" y="369" type="line"/>
    </contour>
    <contour>
      <point x="555" y="74" type="line"/>
      <point x="555" y="0" type="line"/>
      <point x="51" y="0" type="line"/>
      <point x="51" y="74" type="line"/>
    </contour>
  </outline>
</glyph>
<glyph name="uni00B2" format="1">
  <advance width="332"/>
  <unicode hex="00B2"/>
  <outline>
    <contour>
      <point x="12" y="288" type="line"/>
      <point x="12" y="339" type="line"/>
      <point x="175" y="489" type="line" smooth="yes"/>
      <point x="217" y="527"/>
      <point x="217" y="527"/>
      <point x="229" y="541" type="curve" smooth="yes"/>
      <point x="249" y="564"/>
      <point x="259" y="586"/>
      <point x="259" y="608" type="curve" smooth="yes"/>
      <point x="259" y="654"/>
      <point x="218" y="692"/>
      <point x="168" y="692" type="curve" smooth="yes"/>
      <point x="129" y="692"/>
      <point x="94" y="668"/>
      <point x="82" y="634" type="curve" smooth="yes"/>
      <point x="77" y="620"/>
      <point x="76" y="612"/>
      <point x="76" y="583" type="curve"/>
      <point x="16" y="583" type="line"/>
      <point x="16" y="595" type="line" smooth="yes"/>
      <point x="17" y="686"/>
      <point x="79" y="747"/>
      <point x="171" y="747" type="curve" smooth="yes"/>
      <point x="254" y="747"/>
      <point x="320" y="684"/>
      <point x="320" y="606" type="curve" smooth="yes"/>
      <point x="320" y="559"/>
      <point x="298" y="521"/>
      <point x="234" y="464" type="curve" smooth="yes"/>
      <point x="101" y="343" type="line"/>
      <point x="318" y="343" type="line"/>
      <point x="318" y="288" type="line"/>
    </contour>
  </outline>
</glyph>
<glyph name="acute" format="1">
  <advance width="375"/>
  <unicode hex="00B4"/>
  <outline>
    <contour>
      <point x="74" y="666" type="curve"/>
      <point x="74" y="666"/>
      <point x="267" y="782"/>
      <point x="267" y="782" type="curve"/>
      <point x="267" y="782"/>
      <point x="301" y="724"/>
      <point x="301" y="724" type="curve"/>
      <point x="301" y="724"/>
      <point x="108" y="610"/>
      <point x="108" y="610" type="curve"/>
      <point x="108" y="610"/>
      <point x="74" y="666"/>
    </contour>
  </outline>
</glyph>
<glyph name="mu" format="1">
  <advance width="608"/>
  <unicode hex="00B5"/>
  <outline>
    <contour>
      <point x="545" y="547" type="line"/>
      <point x="545" y="0" type="line"/>
      <point x="471" y="0" type="line"/>
      <point x="471" y="85" type="line"/>
      <point x="437" y="18"/>
      <point x="384" y="-13"/>
      <point x="307" y="-13" type="curve" smooth="yes"/>
      <point x="235" y="-13"/>
      <point x="175" y="22"/>
      <point x="137" y="85" type="curve"/>
      <point x="137" y="-192" type="line"/>
      <point x="63" y="-192" type="line"/>
      <point x="63" y="547" type="line"/>
      <point x="137" y="547" type="line"/>
      <point x="137" y="266" type="line" smooth="yes"/>
      <point x="137" y="173"/>
      <point x="148" y="140"/>
      <point x="190" y="101" type="curve" smooth="yes"/>
      <point x="222" y="71"/>
      <point x="265" y="54"/>
      <point x="306" y="54" type="curve" smooth="yes"/>
      <point x="361" y="54"/>
      <point x="411" y="80"/>
      <point x="440" y="123" type="curve" smooth="yes"/>
      <point x="462" y="157"/>
      <point x="471" y="199"/>
      <point x="471" y="266" type="curve" smooth="yes"/>
      <point x="471" y="547" type="line"/>
    </contour>
  </outline>
</glyph>
<glyph name="paragraph" format="1">
  <advance width="564"/>
  <unicode hex="00B6"/>
  <outline>
    <contour>
      <point x="227" y="-133" type="line"/>
      <point x="227" y="355" type="line"/>
      <point x="109" y="367"/>
      <point x="37" y="441"/>
      <point x="37" y="549" type="curve" smooth="yes"/>
      <point x="37" y="616"/>
      <point x="68" y="675"/>
      <point x="123" y="708" type="curve" smooth="yes"/>
      <point x="157" y="730"/>
      <point x="198" y="739"/>
      <point x="260" y="739" type="curve" smooth="yes"/>
      <point x="491" y="739" type="line"/>
      <point x="491" y="-133" type="line"/>
      <point x="416" y="-133" type="line"/>
      <point x="416" y="672" type="line"/>
      <point x="302" y="672" type="line"/>
      <point x="302" y="-133" type="line"/>
    </contour>
  </outline>
</glyph>
<glyph name="periodcentered" format="1">
  <advance width="277"/>
  <unicode hex="00B7"/>
  <outline>
    <contour>
      <point x="101" y="229" type="curve"/>
      <point x="101" y="229"/>
      <point x="101" y="355"/>
      <point x="101" y="355" type="curve"/>
      <point x="101" y="355"/>
      <point x="175" y="355"/>
      <point x="175" y="355" type="curve"/>
      <point x="175" y="355"/>
      <point x="175" y="229"/>
      <point x="175" y="229" type="curve"/>
      <point x="175" y="229"/>
      <point x="101" y="229"/>
    </contour>
  </outline>
</glyph>
<glyph name="cedilla" format="1">
  <advance width="324"/>
  <unicode hex="00B8"/>
  <outline>
    <contour>
      <point x="124" y="0" type="line"/>
      <point x="160" y="0" type="line"/>
      <point x="141" y="-47" type="line"/>
      <point x="156" y="-41"/>
      <point x="163" y="-39"/>
      <point x="174" y="-39" type="curve" smooth="yes"/>
      <point x="219" y="-39"/>
      <point x="250" y="-72"/>
      <point x="250" y="-119" type="curve" smooth="yes"/>
      <point x="250" y="-174"/>
      <point x="214" y="-213"/>
      <point x="162" y="-213" type="curve" smooth="yes"/>
      <point x="116" y="-213"/>
      <point x="85" y="-187"/>
      <point x="74" y="-140" type="curve"/>
      <point x="118" y="-135" type="line"/>
      <point x="124" y="-157"/>
      <point x="140" y="-170"/>
      <point x="163" y="-170" type="curve" smooth="yes"/>
      <point x="189" y="-170"/>
      <point x="207" y="-151"/>
      <point x="207" y="-124" type="curve" smooth="yes"/>
      <point x="207" y="-93"/>
      <point x="188" y="-72"/>
      <point x="161" y="-72" type="curve" smooth="yes"/>
      <point x="143" y="-72"/>
      <point x="132" y="-79"/>
      <point x="118" y="-96" type="curve"/>
      <point x="89" y="-79" type="line"/>
    </contour>
  </outline>
</glyph>
<glyph name="uni00B9" format="1">
  <advance width="332"/>
  <unicode hex="00B9"/>
  <outline>
    <contour>
      <point x="173" y="288" type="line"/>
      <point x="173" y="684" type="line"/>
      <point x="98" y="684" type="line"/>
      <point x="98" y="739" type="line"/>
      <point x="233" y="739" type="line"/>
      <point x="233" y="288" type="line"/>
    </contour>
  </outline>
</glyph>
<glyph name="ordmasculine" format="1">
  <advance width="369"/>
  <unicode hex="00BA"/>
  <outline>
    <contour>
      <point x="186" y="745" type="curve" smooth="yes"/>
      <point x="268" y="745"/>
      <point x="337" y="675"/>
      <point x="337" y="594" type="curve" smooth="yes"/>
      <point x="337" y="511"/>
      <point x="268" y="442"/>
      <point x="184" y="442" type="curve" smooth="yes"/>
      <point x="101" y="442"/>
      <point x="32" y="510"/>
      <point x="32" y="593" type="curve" smooth="yes"/>
      <point x="32" y="677"/>
      <point x="101" y="745"/>
    </contour>
    <contour>
      <point x="183" y="696" type="curve" smooth="yes"/>
      <point x="129" y="696"/>
      <point x="85" y="650"/>
      <point x="85" y="594" type="curve" smooth="yes"/>
      <point x="85" y="536"/>
      <point x="129" y="491"/>
      <point x="185" y="491" type="curve" smooth="yes"/>
      <point x="240" y="491"/>
      <point x="284" y="536"/>
      <point x="284" y="593" type="curve" smooth="yes"/>
      <point x="284" y="651"/>
      <point x="240" y="696"/>
    </contour>
    <contour>
      <point x="32" y="370" type="line"/>
      <point x="337" y="370" type="line"/>
      <point x="337" y="319" type="line"/>
      <point x="32" y="319" type="line"/>
    </contour>
  </outline>
</glyph>
<glyph name="guillemotright" format="1">
  <advance width="425"/>
  <unicode hex="00BB"/>
  <outline>
    <contour>
      <point x="272" y="99" type="curve"/>
      <point x="272" y="99"/>
      <point x="213" y="132"/>
      <point x="213" y="132" type="curve"/>
      <point x="213" y="132"/>
      <point x="307" y="300"/>
      <point x="307" y="300" type="curve"/>
      <point x="307" y="300"/>
      <point x="213" y="467"/>
      <point x="213" y="467" type="curve"/>
      <point x="213" y="467"/>
      <point x="272" y="499"/>
      <point x="272" y="499" type="curve"/>
      <point x="272" y="499"/>
      <point x="385" y="300"/>
      <point x="385" y="300" type="curve"/>
      <point x="385" y="300"/>
      <point x="272" y="99"/>
    </contour>
    <contour>
      <point x="99" y="99" type="curve"/>
      <point x="99" y="99"/>
      <point x="40" y="132"/>
      <point x="40" y="132" type="curve"/>
      <point x="40" y="132"/>
      <point x="134" y="300"/>
      <point x="134" y="300" type="curve"/>
      <point x="134" y="300"/>
      <point x="40" y="467"/>
      <point x="40" y="467" type="curve"/>
      <point x="40" y="467"/>
      <point x="99" y="499"/>
      <point x="99" y="499" type="curve"/>
      <point x="99" y="499"/>
      <point x="214" y="300"/>
      <point x="214" y="300" type="curve"/>
      <point x="214" y="300"/>
      <point x="99" y="99"/>
    </contour>
  </outline>
</glyph>
<glyph name="onequarter" format="1">
  <advance width="831"/>
  <unicode hex="00BC"/>
  <outline>
    <contour>
      <point x="701" y="0" type="line"/>
      <point x="701" y="79" type="line"/>
      <point x="470" y="79" type="line"/>
      <point x="470" y="129" type="line"/>
      <point x="696" y="451" type="line"/>
      <point x="761" y="451" type="line"/>
      <point x="761" y="134" type="line"/>
      <point x="803" y="134" type="line"/>
      <point x="803" y="79" type="line"/>
      <point x="761" y="79" type="line"/>
      <point x="761" y="0" type="line"/>
    </contour>
    <contour>
      <point x="701" y="134" type="line"/>
      <point x="701" y="359" type="line"/>
      <point x="545" y="134" type="line"/>
    </contour>
    <contour>
      <point x="211" y="0" type="line"/>
      <point x="552" y="739" type="line"/>
      <point x="607" y="739" type="line"/>
      <point x="265" y="0" type="line"/>
    </contour>
    <contour>
      <point x="176" y="288" type="line"/>
      <point x="176" y="684" type="line"/>
      <point x="101" y="684" type="line"/>
      <point x="101" y="739" type="line"/>
      <point x="236" y="739" type="line"/>
      <point x="236" y="288" type="line"/>
    </contour>
  </outline>
</glyph>
<glyph name="onehalf" format="1">
  <advance width="831"/>
  <unicode hex="00BD"/>
  <outline>
    <contour>
      <point x="206" y="0" type="line"/>
      <point x="547" y="739" type="line"/>
      <point x="602" y="739" type="line"/>
      <point x="260" y="0" type="line"/>
    </contour>
    <contour>
      <point x="171" y="288" type="line"/>
      <point x="171" y="684" type="line"/>
      <point x="96" y="684" type="line"/>
      <point x="96" y="739" type="line"/>
      <point x="231" y="739" type="line"/>
      <point x="231" y="288" type="line"/>
    </contour>
    <contour>
      <point x="506" y="0" type="line"/>
      <point x="506" y="51" type="line"/>
      <point x="669" y="201" type="line" smooth="yes"/>
      <point x="711" y="239"/>
      <point x="711" y="239"/>
      <point x="723" y="253" type="curve" smooth="yes"/>
      <point x="743" y="276"/>
      <point x="753" y="298"/>
      <point x="753" y="320" type="curve" smooth="yes"/>
      <point x="753" y="366"/>
      <point x="712" y="404"/>
      <point x="662" y="404" type="curve" smooth="yes"/>
      <point x="623" y="404"/>
      <point x="588" y="380"/>
      <point x="576" y="346" type="curve" smooth="yes"/>
      <point x="571" y="332"/>
      <point x="570" y="324"/>
      <point x="570" y="295" type="curve"/>
      <point x="510" y="295" type="line"/>
      <point x="510" y="307" type="line" smooth="yes"/>
      <point x="511" y="398"/>
      <point x="573" y="459"/>
      <point x="665" y="459" type="curve" smooth="yes"/>
      <point x="748" y="459"/>
      <point x="814" y="396"/>
      <point x="814" y="318" type="curve" smooth="yes"/>
      <point x="814" y="271"/>
      <point x="792" y="233"/>
      <point x="728" y="176" type="curve" smooth="yes"/>
      <point x="595" y="55" type="line"/>
      <point x="812" y="55" type="line"/>
      <point x="812" y="0" type="line"/>
    </contour>
  </outline>
</glyph>
<glyph name="threequarters" format="1">
  <advance width="831"/>
  <unicode hex="00BE"/>
  <outline>
    <contour>
      <point x="701" y="0" type="line"/>
      <point x="701" y="79" type="line"/>
      <point x="470" y="79" type="line"/>
      <point x="470" y="129" type="line"/>
      <point x="696" y="451" type="line"/>
      <point x="761" y="451" type="line"/>
      <point x="761" y="134" type="line"/>
      <point x="803" y="134" type="line"/>
      <point x="803" y="79" type="line"/>
      <point x="761" y="79" type="line"/>
      <point x="761" y="0" type="line"/>
    </contour>
    <contour>
      <point x="701" y="134" type="line"/>
      <point x="701" y="359" type="line"/>
      <point x="545" y="134" type="line"/>
    </contour>
    <contour>
      <point x="239" y="0" type="line"/>
      <point x="580" y="739" type="line"/>
      <point x="635" y="739" type="line"/>
      <point x="293" y="0" type="line"/>
    </contour>
    <contour>
      <point x="104" y="615" type="line"/>
      <point x="43" y="615" type="line"/>
      <point x="44" y="695"/>
      <point x="92" y="747"/>
      <point x="167" y="747" type="curve" smooth="yes"/>
      <point x="236" y="747"/>
      <point x="290" y="695"/>
      <point x="290" y="628" type="curve" smooth="yes"/>
      <point x="290" y="594"/>
      <point x="280" y="574"/>
      <point x="249" y="546" type="curve"/>
      <point x="296" y="517"/>
      <point x="319" y="477"/>
      <point x="319" y="427" type="curve" smooth="yes"/>
      <point x="319" y="347"/>
      <point x="249" y="280"/>
      <point x="166" y="280" type="curve" smooth="yes"/>
      <point x="111" y="280"/>
      <point x="59" y="309"/>
      <point x="33" y="355" type="curve" smooth="yes"/>
      <point x="19" y="379"/>
      <point x="14" y="400"/>
      <point x="13" y="439" type="curve"/>
      <point x="74" y="439" type="line"/>
      <point x="76" y="401"/>
      <point x="80" y="390"/>
      <point x="93" y="373" type="curve" smooth="yes"/>
      <point x="111" y="349"/>
      <point x="137" y="335"/>
      <point x="165" y="335" type="curve" smooth="yes"/>
      <point x="215" y="335"/>
      <point x="258" y="377"/>
      <point x="258" y="425" type="curve" smooth="yes"/>
      <point x="258" y="466"/>
      <point x="228" y="504"/>
      <point x="187" y="513" type="curve" smooth="yes"/>
      <point x="175" y="516"/>
      <point x="161" y="517"/>
      <point x="128" y="517" type="curve"/>
      <point x="128" y="571" type="line"/>
      <point x="138" y="570"/>
      <point x="143" y="570"/>
      <point x="148" y="570" type="curve" smooth="yes"/>
      <point x="199" y="570"/>
      <point x="229" y="593"/>
      <point x="229" y="631" type="curve" smooth="yes"/>
      <point x="229" y="666"/>
      <point x="202" y="692"/>
      <point x="166" y="692" type="curve" smooth="yes"/>
      <point x="129" y="692"/>
      <point x="105" y="665"/>
      <point x="104" y="624" type="curve" smooth="yes"/>
    </contour>
  </outline>
</glyph>
<glyph name="questiondown" format="1">
  <advance width="591"/>
  <unicode hex="00BF"/>
  <outline>
    <contour>
      <point x="330" y="547" type="line"/>
      <point x="330" y="421" type="line"/>
      <point x="256" y="421" type="line"/>
      <point x="256" y="547" type="line"/>
    </contour>
    <contour>
      <point x="456" y="39" type="curve"/>
      <point x="526" y="39" type="line"/>
      <point x="525" y="-27"/>
      <point x="514" y="-66"/>
      <point x="487" y="-107" type="curve" smooth="yes"/>
      <point x="444" y="-170"/>
      <point x="375" y="-205"/>
      <point x="292" y="-205" type="curve" smooth="yes"/>
      <point x="161" y="-205"/>
      <point x="66" y="-114"/>
      <point x="66" y="12" type="curve" smooth="yes"/>
      <point x="66" y="77"/>
      <point x="90" y="122"/>
      <point x="156" y="182" type="curve" smooth="yes"/>
      <point x="230" y="247"/>
      <point x="257" y="292"/>
      <point x="259" y="354" type="curve"/>
      <point x="329" y="354" type="line"/>
      <point x="329" y="339" type="line" smooth="yes"/>
      <point x="329" y="305"/>
      <point x="317" y="267"/>
      <point x="296" y="232" type="curve" smooth="yes"/>
      <point x="280" y="205"/>
      <point x="267" y="191"/>
      <point x="224" y="150" type="curve" smooth="yes"/>
      <point x="156" y="86"/>
      <point x="140" y="59"/>
      <point x="140" y="10" type="curve" smooth="yes"/>
      <point x="140" y="-76"/>
      <point x="204" y="-138"/>
      <point x="293" y="-138" type="curve" smooth="yes"/>
      <point x="354" y="-138"/>
      <point x="408" y="-108"/>
      <point x="434" y="-57" type="curve" smooth="yes"/>
      <point x="447" y="-32"/>
      <point x="453" y="-7"/>
    </contour>
  </outline>
</glyph>
<glyph name="Agrave" format="1">
  <advance width="740"/>
  <unicode hex="00C0"/>
  <outline>
    <contour>
      <point x="370" y="987" type="move" name="Top"/>
    </contour>
    <contour>
      <point x="11" y="0" type="curve"/>
      <point x="11" y="0"/>
      <point x="328" y="739"/>
      <point x="328" y="739" type="curve"/>
      <point x="328" y="739"/>
      <point x="411" y="739"/>
      <point x="411" y="739" type="curve"/>
      <point x="411" y="739"/>
      <point x="729" y="0"/>
      <point x="729" y="0" type="curve"/>
      <point x="729" y="0"/>
      <point x="648" y="0"/>
      <point x="648" y="0" type="curve"/>
      <point x="648" y="0"/>
      <point x="541" y="249"/>
      <point x="541" y="249" type="curve"/>
      <point x="541" y="249"/>
      <point x="197" y="249"/>
      <point x="197" y="249" type="curve"/>
      <point x="197" y="249"/>
      <point x="89" y="0"/>
      <point x="89" y="0" type="curve"/>
      <point x="89" y="0"/>
      <point x="11" y="0"/>
    </contour>
    <contour>
      <point x="225" y="316" type="curve"/>
      <point x="225" y="316"/>
      <point x="512" y="316"/>
      <point x="512" y="316" type="curve"/>
      <point x="512" y="316"/>
      <point x="370" y="655"/>
      <point x="370" y="655" type="curve"/>
      <point x="370" y="655"/>
      <point x="225" y="316"/>
    </contour>
    <contour>
      <point x="254" y="958" type="curve"/>
      <point x="254" y="958"/>
      <point x="452" y="848"/>
      <point x="452" y="848" type="curve"/>
      <point x="452" y="848"/>
      <point x="419" y="792"/>
      <point x="419" y="792" type="curve"/>
      <point x="419" y="792"/>
      <point x="222" y="900"/>
      <point x="222" y="900" type="curve"/>
      <point x="222" y="900"/>
      <point x="254" y="958"/>
    </contour>
  </outline>
</glyph>
<glyph name="Aacute" format="1">
  <advance width="740"/>
  <unicode hex="00C1"/>
  <outline>
    <contour>
      <point x="370" y="987" type="move" name="Top"/>
    </contour>
    <contour>
      <point x="11" y="0" type="curve"/>
      <point x="11" y="0"/>
      <point x="328" y="739"/>
      <point x="328" y="739" type="curve"/>
      <point x="328" y="739"/>
      <point x="411" y="739"/>
      <point x="411" y="739" type="curve"/>
      <point x="411" y="739"/>
      <point x="729" y="0"/>
      <point x="729" y="0" type="curve"/>
      <point x="729" y="0"/>
      <point x="648" y="0"/>
      <point x="648" y="0" type="curve"/>
      <point x="648" y="0"/>
      <point x="541" y="249"/>
      <point x="541" y="249" type="curve"/>
      <point x="541" y="249"/>
      <point x="197" y="249"/>
      <point x="197" y="249" type="curve"/>
      <point x="197" y="249"/>
      <point x="89" y="0"/>
      <point x="89" y="0" type="curve"/>
      <point x="89" y="0"/>
      <point x="11" y="0"/>
    </contour>
    <contour>
      <point x="225" y="316" type="curve"/>
      <point x="225" y="316"/>
      <point x="512" y="316"/>
      <point x="512" y="316" type="curve"/>
      <point x="512" y="316"/>
      <point x="370" y="655"/>
      <point x="370" y="655" type="curve"/>
      <point x="370" y="655"/>
      <point x="225" y="316"/>
    </contour>
    <contour>
      <point x="290" y="848" type="curve"/>
      <point x="290" y="848"/>
      <point x="483" y="964"/>
      <point x="483" y="964" type="curve"/>
      <point x="483" y="964"/>
      <point x="517" y="906"/>
      <point x="517" y="906" type="curve"/>
      <point x="517" y="906"/>
      <point x="324" y="792"/>
      <point x="324" y="792" type="curve"/>
      <point x="324" y="792"/>
      <point x="290" y="848"/>
    </contour>
  </outline>
</glyph>
<glyph name="Acircumflex" format="1">
  <advance width="740"/>
  <unicode hex="00C2"/>
  <outline>
    <contour>
      <point x="370" y="987" type="move" name="Top"/>
    </contour>
    <contour>
      <point x="11" y="0" type="curve"/>
      <point x="11" y="0"/>
      <point x="328" y="739"/>
      <point x="328" y="739" type="curve"/>
      <point x="328" y="739"/>
      <point x="411" y="739"/>
      <point x="411" y="739" type="curve"/>
      <point x="411" y="739"/>
      <point x="729" y="0"/>
      <point x="729" y="0" type="curve"/>
      <point x="729" y="0"/>
      <point x="648" y="0"/>
      <point x="648" y="0" type="curve"/>
      <point x="648" y="0"/>
      <point x="541" y="249"/>
      <point x="541" y="249" type="curve"/>
      <point x="541" y="249"/>
      <point x="197" y="249"/>
      <point x="197" y="249" type="curve"/>
      <point x="197" y="249"/>
      <point x="89" y="0"/>
      <point x="89" y="0" type="curve"/>
      <point x="89" y="0"/>
      <point x="11" y="0"/>
    </contour>
    <contour>
      <point x="225" y="316" type="curve"/>
      <point x="225" y="316"/>
      <point x="512" y="316"/>
      <point x="512" y="316" type="curve"/>
      <point x="512" y="316"/>
      <point x="370" y="655"/>
      <point x="370" y="655" type="curve"/>
      <point x="370" y="655"/>
      <point x="225" y="316"/>
    </contour>
    <contour>
      <point x="193" y="805" type="curve"/>
      <point x="193" y="805"/>
      <point x="338" y="931"/>
      <point x="338" y="931" type="curve"/>
      <point x="338" y="931"/>
      <point x="404" y="931"/>
      <point x="404" y="931" type="curve"/>
      <point x="404" y="931"/>
      <point x="547" y="805"/>
      <point x="547" y="805" type="curve"/>
      <point x="547" y="805"/>
      <point x="458" y="805"/>
      <point x="458" y="805" type="curve"/>
      <point x="458" y="805"/>
      <point x="372" y="879"/>
      <point x="372" y="879" type="curve"/>
      <point x="372" y="879"/>
      <point x="284" y="805"/>
      <point x="284" y="805" type="curve"/>
      <point x="284" y="805"/>
      <point x="193" y="805"/>
    </contour>
  </outline>
</glyph>
<glyph name="Atilde" format="1">
  <advance width="740"/>
  <unicode hex="00C3"/>
  <outline>
    <contour>
      <point x="370" y="987" type="move" name="Anchor-0"/>
    </contour>
    <contour>
      <point x="11" y="0" type="line"/>
      <point x="328" y="739" type="line"/>
      <point x="411" y="739" type="line"/>
      <point x="729" y="0" type="line"/>
      <point x="648" y="0" type="line"/>
      <point x="541" y="249" type="line"/>
      <point x="197" y="249" type="line"/>
      <point x="89" y="0" type="line"/>
    </contour>
    <contour>
      <point x="225" y="316" type="line"/>
      <point x="512" y="316" type="line"/>
      <point x="370" y="655" type="line"/>
    </contour>
    <contour>
      <point x="485" y="910" type="curve"/>
      <point x="518" y="864" type="line"/>
      <point x="502" y="838"/>
      <point x="460" y="815"/>
      <point x="427" y="815" type="curve" smooth="yes"/>
      <point x="412" y="815"/>
      <point x="395" y="821"/>
      <point x="361" y="837" type="curve" smooth="yes"/>
      <point x="346" y="843"/>
      <point x="332" y="847"/>
      <point x="321" y="847" type="curve" smooth="yes"/>
      <point x="302" y="847"/>
      <point x="294" y="843"/>
      <point x="268" y="821" type="curve" smooth="yes"/>
      <point x="261" y="815" type="line"/>
      <point x="228" y="861" type="line"/>
      <point x="251" y="892"/>
      <point x="285" y="910"/>
      <point x="321" y="910" type="curve" smooth="yes"/>
      <point x="339" y="910"/>
      <point x="349" y="907"/>
      <point x="380" y="893" type="curve" smooth="yes"/>
      <point x="397" y="886"/>
      <point x="419" y="879"/>
      <point x="428" y="879" type="curve" smooth="yes"/>
      <point x="447" y="879"/>
      <point x="464" y="888"/>
    </contour>
  </outline>
</glyph>
<glyph name="Adieresis" format="1">
  <advance width="740"/>
  <unicode hex="00C4"/>
  <outline>
    <contour>
      <point x="370" y="987" type="move" name="Top"/>
    </contour>
    <contour>
      <point x="11" y="0" type="curve"/>
      <point x="11" y="0"/>
      <point x="328" y="739"/>
      <point x="328" y="739" type="curve"/>
      <point x="328" y="739"/>
      <point x="411" y="739"/>
      <point x="411" y="739" type="curve"/>
      <point x="411" y="739"/>
      <point x="729" y="0"/>
      <point x="729" y="0" type="curve"/>
      <point x="729" y="0"/>
      <point x="648" y="0"/>
      <point x="648" y="0" type="curve"/>
      <point x="648" y="0"/>
      <point x="541" y="249"/>
      <point x="541" y="249" type="curve"/>
      <point x="541" y="249"/>
      <point x="197" y="249"/>
      <point x="197" y="249" type="curve"/>
      <point x="197" y="249"/>
      <point x="89" y="0"/>
      <point x="89" y="0" type="curve"/>
      <point x="89" y="0"/>
      <point x="11" y="0"/>
    </contour>
    <contour>
      <point x="225" y="316" type="curve"/>
      <point x="225" y="316"/>
      <point x="512" y="316"/>
      <point x="512" y="316" type="curve"/>
      <point x="512" y="316"/>
      <point x="370" y="655"/>
      <point x="370" y="655" type="curve"/>
      <point x="370" y="655"/>
      <point x="225" y="316"/>
    </contour>
    <contour>
      <point x="260" y="931" type="curve"/>
      <point x="260" y="931"/>
      <point x="334" y="931"/>
      <point x="334" y="931" type="curve"/>
      <point x="334" y="931"/>
      <point x="334" y="805"/>
      <point x="334" y="805" type="curve"/>
      <point x="334" y="805"/>
      <point x="260" y="805"/>
      <point x="260" y="805" type="curve"/>
      <point x="260" y="805"/>
      <point x="260" y="931"/>
    </contour>
    <contour>
      <point x="407" y="931" type="curve"/>
      <point x="407" y="931"/>
      <point x="481" y="931"/>
      <point x="481" y="931" type="curve"/>
      <point x="481" y="931"/>
      <point x="481" y="805"/>
      <point x="481" y="805" type="curve"/>
      <point x="481" y="805"/>
      <point x="407" y="805"/>
      <point x="407" y="805" type="curve"/>
      <point x="407" y="805"/>
      <point x="407" y="931"/>
    </contour>
  </outline>
</glyph>
<glyph name="Aring" format="1">
  <advance width="740"/>
  <unicode hex="00C5"/>
  <outline>
    <contour>
      <point x="370" y="1002" type="move" name="Anchor-0"/>
    </contour>
    <contour>
      <point x="11" y="0" type="line"/>
      <point x="328" y="739" type="line"/>
      <point x="411" y="739" type="line"/>
      <point x="729" y="0" type="line"/>
      <point x="648" y="0" type="line"/>
      <point x="541" y="249" type="line"/>
      <point x="197" y="249" type="line"/>
      <point x="89" y="0" type="line"/>
    </contour>
    <contour>
      <point x="225" y="316" type="line"/>
      <point x="512" y="316" type="line"/>
      <point x="370" y="655" type="line"/>
    </contour>
    <contour>
      <point x="371" y="976" type="curve" smooth="yes"/>
      <point x="421" y="976"/>
      <point x="462" y="934"/>
      <point x="462" y="884" type="curve" smooth="yes"/>
      <point x="462" y="833"/>
      <point x="421" y="792"/>
      <point x="370" y="792" type="curve" smooth="yes"/>
      <point x="319" y="792"/>
      <point x="278" y="833"/>
      <point x="278" y="883" type="curve" smooth="yes"/>
      <point x="278" y="935"/>
      <point x="319" y="976"/>
    </contour>
    <contour>
      <point x="369" y="935" type="curve" smooth="yes"/>
      <point x="342" y="935"/>
      <point x="319" y="912"/>
      <point x="319" y="883" type="curve" smooth="yes"/>
      <point x="319" y="855"/>
      <point x="342" y="833"/>
      <point x="370" y="833" type="curve" smooth="yes"/>
      <point x="398" y="833"/>
      <point x="421" y="856"/>
      <point x="421" y="883" type="curve" smooth="yes"/>
      <point x="421" y="912"/>
      <point x="398" y="935"/>
    </contour>
  </outline>
</glyph>
<glyph name="AE" format="1">
  <advance width="992"/>
  <unicode hex="00C6"/>
  <outline>
    <contour>
      <point x="538" y="805" type="move" name="Top"/>
    </contour>
    <contour>
      <point x="11" y="0" type="curve"/>
      <point x="11" y="0"/>
      <point x="522" y="739"/>
      <point x="522" y="739" type="curve"/>
      <point x="522" y="739"/>
      <point x="936" y="739"/>
      <point x="936" y="739" type="curve"/>
      <point x="936" y="739"/>
      <point x="936" y="672"/>
      <point x="936" y="672" type="curve"/>
      <point x="936" y="672"/>
      <point x="617" y="672"/>
      <point x="617" y="672" type="curve"/>
      <point x="617" y="672"/>
      <point x="617" y="407"/>
      <point x="617" y="407" type="curve"/>
      <point x="617" y="407"/>
      <point x="925" y="407"/>
      <point x="925" y="407" type="curve"/>
      <point x="925" y="407"/>
      <point x="925" y="340"/>
      <point x="925" y="340" type="curve"/>
      <point x="925" y="340"/>
      <point x="617" y="340"/>
      <point x="617" y="340" type="curve"/>
      <point x="617" y="340"/>
      <point x="617" y="67"/>
      <point x="617" y="67" type="curve"/>
      <point x="617" y="67"/>
      <point x="936" y="67"/>
      <point x="936" y="67" type="curve"/>
      <point x="936" y="67"/>
      <point x="936" y="0"/>
      <point x="936" y="0" type="curve"/>
      <point x="936" y="0"/>
      <point x="543" y="0"/>
      <point x="543" y="0" type="curve"/>
      <point x="543" y="0"/>
      <point x="543" y="250"/>
      <point x="543" y="250" type="curve"/>
      <point x="543" y="250"/>
      <point x="272" y="250"/>
      <point x="272" y="250" type="curve"/>
      <point x="272" y="250"/>
      <point x="99" y="0"/>
      <point x="99" y="0" type="curve"/>
      <point x="99" y="0"/>
      <point x="11" y="0"/>
    </contour>
    <contour>
      <point x="319" y="317" type="curve"/>
      <point x="319" y="317"/>
      <point x="543" y="317"/>
      <point x="543" y="317" type="curve"/>
      <point x="543" y="317"/>
      <point x="543" y="644"/>
      <point x="543" y="644" type="curve"/>
      <point x="543" y="644"/>
      <point x="319" y="317"/>
    </contour>
  </outline>
</glyph>
<glyph name="Ccedilla" format="1">
  <advance width="813"/>
  <unicode hex="00C7"/>
  <outline>
    <contour>
      <point x="427" y="805" type="move" name="Anchor-0"/>
    </contour>
    <contour>
      <point x="429" y="-13" type="curve"/>
      <point x="405" y="-68" type="line"/>
      <point x="419" y="-63"/>
      <point x="427" y="-61"/>
      <point x="439" y="-61" type="curve" smooth="yes"/>
      <point x="485" y="-61"/>
      <point x="516" y="-95"/>
      <point x="516" y="-145" type="curve" smooth="yes"/>
      <point x="516" y="-201"/>
      <point x="478" y="-240"/>
      <point x="424" y="-240" type="curve" smooth="yes"/>
      <point x="377" y="-240"/>
      <point x="345" y="-214"/>
      <point x="331" y="-166" type="curve"/>
      <point x="378" y="-159" type="line"/>
      <point x="386" y="-183"/>
      <point x="400" y="-193"/>
      <point x="423" y="-193" type="curve" smooth="yes"/>
      <point x="451" y="-193"/>
      <point x="468" y="-175"/>
      <point x="468" y="-147" type="curve" smooth="yes"/>
      <point x="468" y="-119"/>
      <point x="449" y="-99"/>
      <point x="422" y="-99" type="curve" smooth="yes"/>
      <point x="404" y="-99"/>
      <point x="393" y="-105"/>
      <point x="378" y="-121" type="curve"/>
      <point x="348" y="-103" type="line"/>
      <point x="390" y="-12" type="line"/>
      <point x="304" y="1"/>
      <point x="258" y="18"/>
      <point x="203" y="57" type="curve" smooth="yes"/>
      <point x="99" y="131"/>
      <point x="44" y="239"/>
      <point x="44" y="367" type="curve" smooth="yes"/>
      <point x="44" y="588"/>
      <point x="207" y="752"/>
      <point x="427" y="752" type="curve" smooth="yes"/>
      <point x="580" y="752"/>
      <point x="710" y="674"/>
      <point x="767" y="547" type="curve"/>
      <point x="684" y="547" type="line"/>
      <point x="655" y="593"/>
      <point x="634" y="615"/>
      <point x="599" y="637" type="curve" smooth="yes"/>
      <point x="550" y="668"/>
      <point x="493" y="684"/>
      <point x="430" y="684" type="curve" smooth="yes"/>
      <point x="253" y="684"/>
      <point x="119" y="548"/>
      <point x="119" y="370" type="curve" smooth="yes"/>
      <point x="119" y="196"/>
      <point x="259" y="55"/>
      <point x="431" y="55" type="curve" smooth="yes"/>
      <point x="500" y="55"/>
      <point x="567" y="78"/>
      <point x="618" y="119" type="curve" smooth="yes"/>
      <point x="641" y="138"/>
      <point x="659" y="156"/>
      <point x="688" y="194" type="curve"/>
      <point x="770" y="194" type="line"/>
      <point x="699" y="58"/>
      <point x="583" y="-13"/>
    </contour>
  </outline>
</glyph>
<glyph name="Ecircumflex" format="1">
  <advance width="536"/>
  <unicode hex="00CA"/>
  <outline>
    <contour>
      <point x="278" y="987" type="move" name="Top"/>
    </contour>
    <contour>
      <point x="76" y="0" type="curve"/>
      <point x="76" y="0"/>
      <point x="76" y="739"/>
      <point x="76" y="739" type="curve"/>
      <point x="76" y="739"/>
      <point x="480" y="739"/>
      <point x="480" y="739" type="curve"/>
      <point x="480" y="739"/>
      <point x="480" y="672"/>
      <point x="480" y="672" type="curve"/>
      <point x="480" y="672"/>
      <point x="150" y="672"/>
      <point x="150" y="672" type="curve"/>
      <point x="150" y="672"/>
      <point x="150" y="407"/>
      <point x="150" y="407" type="curve"/>
      <point x="150" y="407"/>
      <point x="469" y="407"/>
      <point x="469" y="407" type="curve"/>
      <point x="469" y="407"/>
      <point x="469" y="340"/>
      <point x="469" y="340" type="curve"/>
      <point x="469" y="340"/>
      <point x="150" y="340"/>
      <point x="150" y="340" type="curve"/>
      <point x="150" y="340"/>
      <point x="150" y="67"/>
      <point x="150" y="67" type="curve"/>
      <point x="150" y="67"/>
      <point x="480" y="67"/>
      <point x="480" y="67" type="curve"/>
      <point x="480" y="67"/>
      <point x="480" y="0"/>
      <point x="480" y="0" type="curve"/>
      <point x="480" y="0"/>
      <point x="76" y="0"/>
    </contour>
    <contour>
      <point x="101" y="805" type="curve"/>
      <point x="101" y="805"/>
      <point x="246" y="931"/>
      <point x="246" y="931" type="curve"/>
      <point x="246" y="931"/>
      <point x="312" y="931"/>
      <point x="312" y="931" type="curve"/>
      <point x="312" y="931"/>
      <point x="455" y="805"/>
      <point x="455" y="805" type="curve"/>
      <point x="455" y="805"/>
      <point x="366" y="805"/>
      <point x="366" y="805" type="curve"/>
      <point x="366" y="805"/>
      <point x="280" y="879"/>
      <point x="280" y="879" type="curve"/>
      <point x="280" y="879"/>
      <point x="192" y="805"/>
      <point x="192" y="805" type="curve"/>
      <point x="192" y="805"/>
      <point x="101" y="805"/>
    </contour>
  </outline>
</glyph>
<glyph name="Edieresis" format="1">
  <advance width="536"/>
  <unicode hex="00CB"/>
  <outline>
    <contour>
      <point x="278" y="987" type="move" name="Top"/>
    </contour>
    <contour>
      <point x="76" y="0" type="curve"/>
      <point x="76" y="0"/>
      <point x="76" y="739"/>
      <point x="76" y="739" type="curve"/>
      <point x="76" y="739"/>
      <point x="480" y="739"/>
      <point x="480" y="739" type="curve"/>
      <point x="480" y="739"/>
      <point x="480" y="672"/>
      <point x="480" y="672" type="curve"/>
      <point x="480" y="672"/>
      <point x="150" y="672"/>
      <point x="150" y="672" type="curve"/>
      <point x="150" y="672"/>
      <point x="150" y="407"/>
      <point x="150" y="407" type="curve"/>
      <point x="150" y="407"/>
      <point x="469" y="407"/>
      <point x="469" y="407" type="curve"/>
      <point x="469" y="407"/>
      <point x="469" y="340"/>
      <point x="469" y="340" type="curve"/>
      <point x="469" y="340"/>
      <point x="150" y="340"/>
      <point x="150" y="340" type="curve"/>
      <point x="150" y="340"/>
      <point x="150" y="67"/>
      <point x="150" y="67" type="curve"/>
      <point x="150" y="67"/>
      <point x="480" y="67"/>
      <point x="480" y="67" type="curve"/>
      <point x="480" y="67"/>
      <point x="480" y="0"/>
      <point x="480" y="0" type="curve"/>
      <point x="480" y="0"/>
      <point x="76" y="0"/>
    </contour>
    <contour>
      <point x="168" y="931" type="curve"/>
      <point x="168" y="931"/>
      <point x="242" y="931"/>
      <point x="242" y="931" type="curve"/>
      <point x="242" y="931"/>
      <point x="242" y="805"/>
      <point x="242" y="805" type="curve"/>
      <point x="242" y="805"/>
      <point x="168" y="805"/>
      <point x="168" y="805" type="curve"/>
      <point x="168" y="805"/>
      <point x="168" y="931"/>
    </contour>
    <contour>
      <point x="315" y="931" type="curve"/>
      <point x="315" y="931"/>
      <point x="389" y="931"/>
      <point x="389" y="931" type="curve"/>
      <point x="389" y="931"/>
      <point x="389" y="805"/>
      <point x="389" y="805" type="curve"/>
      <point x="389" y="805"/>
      <point x="315" y="805"/>
      <point x="315" y="805" type="curve"/>
      <point x="315" y="805"/>
      <point x="315" y="931"/>
    </contour>
  </outline>
</glyph>
<glyph name="Igrave" format="1">
  <advance width="226"/>
  <unicode hex="00CC"/>
  <outline>
    <contour>
      <point x="113" y="987" type="move" name="Top"/>
    </contour>
    <contour>
      <point x="76" y="0" type="curve"/>
      <point x="76" y="0"/>
      <point x="76" y="739"/>
      <point x="76" y="739" type="curve"/>
      <point x="76" y="739"/>
      <point x="150" y="739"/>
      <point x="150" y="739" type="curve"/>
      <point x="150" y="739"/>
      <point x="150" y="0"/>
      <point x="150" y="0" type="curve"/>
      <point x="150" y="0"/>
      <point x="76" y="0"/>
    </contour>
    <contour>
      <point x="30" y="958" type="curve"/>
      <point x="30" y="958"/>
      <point x="228" y="848"/>
      <point x="228" y="848" type="curve"/>
      <point x="228" y="848"/>
      <point x="195" y="792"/>
      <point x="195" y="792" type="curve"/>
      <point x="195" y="792"/>
      <point x="-2" y="900"/>
      <point x="-2" y="900" type="curve"/>
      <point x="-2" y="900"/>
      <point x="30" y="958"/>
    </contour>
  </outline>
</glyph>
<glyph name="Iacute" format="1">
  <advance width="226"/>
  <unicode hex="00CD"/>
  <outline>
    <contour>
      <point x="113" y="987" type="move" name="Top"/>
    </contour>
    <contour>
      <point x="76" y="0" type="curve"/>
      <point x="76" y="0"/>
      <point x="76" y="739"/>
      <point x="76" y="739" type="curve"/>
      <point x="76" y="739"/>
      <point x="150" y="739"/>
      <point x="150" y="739" type="curve"/>
      <point x="150" y="739"/>
      <point x="150" y="0"/>
      <point x="150" y="0" type="curve"/>
      <point x="150" y="0"/>
      <point x="76" y="0"/>
    </contour>
    <contour>
      <point x="-1" y="848" type="curve"/>
      <point x="-1" y="848"/>
      <point x="192" y="964"/>
      <point x="192" y="964" type="curve"/>
      <point x="192" y="964"/>
      <point x="226" y="906"/>
      <point x="226" y="906" type="curve"/>
      <point x="226" y="906"/>
      <point x="33" y="792"/>
      <point x="33" y="792" type="curve"/>
      <point x="33" y="792"/>
      <point x="-1" y="848"/>
    </contour>
  </outline>
</glyph>
<glyph name="Icircumflex" format="1">
  <advance width="226"/>
  <unicode hex="00CE"/>
  <outline>
    <contour>
      <point x="113" y="987" type="move" name="Anchor-0"/>
    </contour>
    <contour>
      <point x="76" y="0" type="line"/>
      <point x="76" y="739" type="line"/>
      <point x="150" y="739" type="line"/>
      <point x="150" y="0" type="line"/>
    </contour>
    <contour>
      <point x="-64" y="805" type="line"/>
      <point x="81" y="931" type="line"/>
      <point x="147" y="931" type="line"/>
      <point x="290" y="805" type="line"/>
      <point x="201" y="805" type="line"/>
      <point x="115" y="879" type="line"/>
      <point x="27" y="805" type="line"/>
    </contour>
  </outline>
</glyph>
<glyph name="Idieresis" format="1">
  <advance width="226"/>
  <unicode hex="00CF"/>
  <outline>
    <contour>
      <point x="113" y="987" type="move" name="Anchor-0"/>
    </contour>
    <contour>
      <point x="77" y="0" type="line"/>
      <point x="77" y="739" type="line"/>
      <point x="151" y="739" type="line"/>
      <point x="151" y="0" type="line"/>
    </contour>
    <contour>
      <point x="3" y="931" type="line"/>
      <point x="77" y="931" type="line"/>
      <point x="77" y="805" type="line"/>
      <point x="3" y="805" type="line"/>
    </contour>
    <contour>
      <point x="150" y="931" type="line"/>
      <point x="224" y="931" type="line"/>
      <point x="224" y="805" type="line"/>
      <point x="150" y="805" type="line"/>
    </contour>
  </outline>
</glyph>
<glyph name="Eth" format="1">
  <advance width="790"/>
  <unicode hex="00D0"/>
  <outline>
    <contour>
      <point x="330" y="805" type="move" name="Anchor-0"/>
    </contour>
    <contour>
      <point x="122" y="347" type="line"/>
      <point x="26" y="347" type="line"/>
      <point x="26" y="414" type="line"/>
      <point x="122" y="414" type="line"/>
      <point x="122" y="739" type="line"/>
      <point x="296" y="739" type="line" smooth="yes"/>
      <point x="434" y="739"/>
      <point x="514" y="722"/>
      <point x="586" y="676" type="curve" smooth="yes"/>
      <point x="691" y="610"/>
      <point x="746" y="503"/>
      <point x="746" y="367" type="curve" smooth="yes"/>
      <point x="746" y="226"/>
      <point x="684" y="115"/>
      <point x="568" y="51" type="curve" smooth="yes"/>
      <point x="504" y="16"/>
      <point x="428" y="0"/>
      <point x="321" y="0" type="curve" smooth="yes"/>
      <point x="122" y="0" type="line"/>
    </contour>
    <contour>
      <point x="196" y="347" type="line"/>
      <point x="196" y="67" type="line"/>
      <point x="299" y="67" type="line" smooth="yes"/>
      <point x="434" y="67"/>
      <point x="511" y="87"/>
      <point x="571" y="138" type="curve" smooth="yes"/>
      <point x="635" y="193"/>
      <point x="671" y="276"/>
      <point x="671" y="370" type="curve" smooth="yes"/>
      <point x="671" y="483"/>
      <point x="619" y="578"/>
      <point x="530" y="628" type="curve" smooth="yes"/>
      <point x="476" y="659"/>
      <point x="407" y="672"/>
      <point x="299" y="672" type="curve" smooth="yes"/>
      <point x="196" y="672" type="line"/>
      <point x="196" y="414" type="line"/>
      <point x="401" y="414" type="line"/>
      <point x="401" y="347" type="line"/>
    </contour>
  </outline>
</glyph>
<glyph name="Ntilde" format="1">
  <advance width="740"/>
  <unicode hex="00D1"/>
  <outline>
    <contour>
      <point x="370" y="987" type="move" name="Anchor-0"/>
    </contour>
    <contour>
      <point x="76" y="0" type="line"/>
      <point x="76" y="739" type="line"/>
      <point x="176" y="739" type="line"/>
      <point x="590" y="126" type="line"/>
      <point x="590" y="739" type="line"/>
      <point x="664" y="739" type="line"/>
      <point x="664" y="0" type="line"/>
      <point x="590" y="0" type="line"/>
      <point x="150" y="650" type="line"/>
      <point x="150" y="0" type="line"/>
    </contour>
    <contour>
      <point x="489" y="910" type="curve"/>
      <point x="522" y="864" type="line"/>
      <point x="506" y="838"/>
      <point x="464" y="815"/>
      <point x="431" y="815" type="curve" smooth="yes"/>
      <point x="416" y="815"/>
      <point x="399" y="821"/>
      <point x="365" y="837" type="curve" smooth="yes"/>
      <point x="350" y="843"/>
      <point x="336" y="847"/>
      <point x="325" y="847" type="curve" smooth="yes"/>
      <point x="306" y="847"/>
      <point x="298" y="843"/>
      <point x="272" y="821" type="curve" smooth="yes"/>
      <point x="265" y="815" type="line"/>
      <point x="232" y="861" type="line"/>
      <point x="255" y="892"/>
      <point x="289" y="910"/>
      <point x="325" y="910" type="curve" smooth="yes"/>
      <point x="343" y="910"/>
      <point x="353" y="907"/>
      <point x="384" y="893" type="curve" smooth="yes"/>
      <point x="401" y="886"/>
      <point x="423" y="879"/>
      <point x="432" y="879" type="curve" smooth="yes"/>
      <point x="451" y="879"/>
      <point x="468" y="888"/>
    </contour>
  </outline>
</glyph>
<glyph name="Otilde" format="1">
  <advance width="869"/>
  <unicode hex="00D5"/>
  <outline>
    <contour>
      <point x="434" y="987" type="move" name="Anchor-0"/>
    </contour>
    <contour>
      <point x="440" y="752" type="curve" smooth="yes"/>
      <point x="649" y="752"/>
      <point x="825" y="578"/>
      <point x="825" y="369" type="curve" smooth="yes"/>
      <point x="825" y="159"/>
      <point x="649" y="-13"/>
      <point x="435" y="-13" type="curve" smooth="yes"/>
      <point x="221" y="-13"/>
      <point x="44" y="160"/>
      <point x="44" y="369" type="curve" smooth="yes"/>
      <point x="44" y="582"/>
      <point x="220" y="752"/>
    </contour>
    <contour>
      <point x="431" y="684" type="curve" smooth="yes"/>
      <point x="262" y="684"/>
      <point x="119" y="539"/>
      <point x="119" y="369" type="curve" smooth="yes"/>
      <point x="119" y="197"/>
      <point x="262" y="55"/>
      <point x="435" y="55" type="curve" smooth="yes"/>
      <point x="607" y="55"/>
      <point x="750" y="197"/>
      <point x="750" y="368" type="curve" smooth="yes"/>
      <point x="750" y="543"/>
      <point x="608" y="684"/>
    </contour>
    <contour>
      <point x="557" y="910" type="curve"/>
      <point x="590" y="864" type="line"/>
      <point x="574" y="838"/>
      <point x="532" y="815"/>
      <point x="499" y="815" type="curve" smooth="yes"/>
      <point x="484" y="815"/>
      <point x="467" y="821"/>
      <point x="433" y="837" type="curve" smooth="yes"/>
      <point x="418" y="843"/>
      <point x="404" y="847"/>
      <point x="393" y="847" type="curve" smooth="yes"/>
      <point x="374" y="847"/>
      <point x="366" y="843"/>
      <point x="340" y="821" type="curve" smooth="yes"/>
      <point x="333" y="815" type="line"/>
      <point x="300" y="861" type="line"/>
      <point x="323" y="892"/>
      <point x="357" y="910"/>
      <point x="393" y="910" type="curve" smooth="yes"/>
      <point x="411" y="910"/>
      <point x="421" y="907"/>
      <point x="452" y="893" type="curve" smooth="yes"/>
      <point x="469" y="886"/>
      <point x="491" y="879"/>
      <point x="500" y="879" type="curve" smooth="yes"/>
      <point x="519" y="879"/>
      <point x="536" y="888"/>
    </contour>
  </outline>
</glyph>
<glyph name="multiply" format="1">
  <advance width="606"/>
  <unicode hex="00D7"/>
  <outline>
    <contour>
      <point x="355" y="299" type="line"/>
      <point x="555" y="99" type="line"/>
      <point x="503" y="48" type="line"/>
      <point x="303" y="248" type="line"/>
      <point x="103" y="48" type="line"/>
      <point x="51" y="99" type="line"/>
      <point x="251" y="299" type="line"/>
      <point x="51" y="500" type="line"/>
      <point x="103" y="551" type="line"/>
      <point x="303" y="351" type="line"/>
      <point x="503" y="551" type="line"/>
      <point x="555" y="500" type="line"/>
    </contour>
  </outline>
</glyph>
<glyph name="Oslash" format="1">
  <advance width="868"/>
  <unicode hex="00D8"/>
  <outline>
    <contour>
      <point x="434" y="805" type="move" name="Anchor-0"/>
    </contour>
    <contour>
      <point x="83" y="-42" type="line"/>
      <point x="176" y="82" type="line"/>
      <point x="91" y="153"/>
      <point x="44" y="255"/>
      <point x="44" y="370" type="curve" smooth="yes"/>
      <point x="44" y="584"/>
      <point x="214" y="752"/>
      <point x="431" y="752" type="curve" smooth="yes"/>
      <point x="507" y="752"/>
      <point x="586" y="731"/>
      <point x="636" y="696" type="curve"/>
      <point x="730" y="821" type="line"/>
      <point x="784" y="779" type="line"/>
      <point x="692" y="656" type="line"/>
      <point x="780" y="582"/>
      <point x="824" y="487"/>
      <point x="824" y="372" type="curve" smooth="yes"/>
      <point x="824" y="157"/>
      <point x="653" y="-13"/>
      <point x="438" y="-13" type="curve" smooth="yes"/>
      <point x="365" y="-13"/>
      <point x="293" y="6"/>
      <point x="233" y="42" type="curve"/>
      <point x="139" y="-83" type="line"/>
    </contour>
    <contour>
      <point x="219" y="138" type="curve"/>
      <point x="595" y="641" type="line"/>
      <point x="549" y="669"/>
      <point x="491" y="684"/>
      <point x="430" y="684" type="curve" smooth="yes"/>
      <point x="255" y="684"/>
      <point x="119" y="545"/>
      <point x="119" y="366" type="curve" smooth="yes"/>
      <point x="119" y="276"/>
      <point x="152" y="201"/>
    </contour>
    <contour>
      <point x="650" y="600" type="curve"/>
      <point x="274" y="97" type="line"/>
      <point x="331" y="67"/>
      <point x="377" y="55"/>
      <point x="436" y="55" type="curve" smooth="yes"/>
      <point x="611" y="55"/>
      <point x="749" y="193"/>
      <point x="749" y="369" type="curve" smooth="yes"/>
      <point x="749" y="461"/>
      <point x="718" y="534"/>
    </contour>
  </outline>
</glyph>
<glyph name="Yacute" format="1">
  <advance width="592"/>
  <unicode hex="00DD"/>
  <outline>
    <contour>
      <point x="296" y="987" type="move" name="Top"/>
    </contour>
    <contour>
      <point x="258" y="0" type="curve"/>
      <point x="258" y="0"/>
      <point x="258" y="247"/>
      <point x="258" y="247" type="curve"/>
      <point x="258" y="247"/>
      <point x="2" y="739"/>
      <point x="2" y="739" type="curve"/>
      <point x="2" y="739"/>
      <point x="84" y="739"/>
      <point x="84" y="739" type="curve"/>
      <point x="84" y="739"/>
      <point x="294" y="325"/>
      <point x="294" y="325" type="curve"/>
      <point x="294" y="325"/>
      <point x="509" y="739"/>
      <point x="509" y="739" type="curve"/>
      <point x="509" y="739"/>
      <point x="590" y="739"/>
      <point x="590" y="739" type="curve"/>
      <point x="590" y="739"/>
      <point x="332" y="247"/>
      <point x="332" y="247" type="curve"/>
      <point x="332" y="247"/>
      <point x="332" y="0"/>
      <point x="332" y="0" type="curve"/>
      <point x="332" y="0"/>
      <point x="258" y="0"/>
    </contour>
    <contour>
      <point x="216" y="848" type="curve"/>
      <point x="216" y="848"/>
      <point x="409" y="964"/>
      <point x="409" y="964" type="curve"/>
      <point x="409" y="964"/>
      <point x="443" y="906"/>
      <point x="443" y="906" type="curve"/>
      <point x="443" y="906"/>
      <point x="250" y="792"/>
      <point x="250" y="792" type="curve"/>
      <point x="250" y="792"/>
      <point x="216" y="848"/>
    </contour>
  </outline>
</glyph>
<glyph name="Thorn" format="1">
  <advance width="592"/>
  <unicode hex="00DE"/>
  <outline>
    <contour>
      <point x="296" y="805" type="move" name="Anchor-0"/>
    </contour>
    <contour>
      <point x="76" y="0" type="line"/>
      <point x="76" y="739" type="line"/>
      <point x="143" y="739" type="line"/>
      <point x="143" y="606" type="line"/>
      <point x="280" y="606" type="line" smooth="yes"/>
      <point x="375" y="606"/>
      <point x="431" y="595"/>
      <point x="477" y="567" type="curve" smooth="yes"/>
      <point x="533" y="534"/>
      <point x="565" y="467"/>
      <point x="565" y="382" type="curve" smooth="yes"/>
      <point x="565" y="308"/>
      <point x="539" y="247"/>
      <point x="491" y="212" type="curve" smooth="yes"/>
      <point x="446" y="179"/>
      <point x="392" y="166"/>
      <point x="292" y="166" type="curve" smooth="yes"/>
      <point x="150" y="166" type="line"/>
      <point x="150" y="0" type="line"/>
    </contour>
    <contour>
      <point x="150" y="233" type="line"/>
      <point x="287" y="233" type="line" smooth="yes"/>
      <point x="355" y="233"/>
      <point x="398" y="240"/>
      <point x="429" y="258" type="curve" smooth="yes"/>
      <point x="468" y="279"/>
      <point x="490" y="325"/>
      <point x="490" y="383" type="curve" smooth="yes"/>
      <point x="490" y="455"/>
      <point x="460" y="506"/>
      <point x="407" y="523" type="curve" smooth="yes"/>
      <point x="374" y="534"/>
      <point x="328" y="539"/>
      <point x="255" y="539" type="curve" smooth="yes"/>
      <point x="150" y="539" type="line"/>
    </contour>
  </outline>
</glyph>
<glyph name="germandbls" format="1">
  <advance width="554"/>
  <unicode hex="00DF"/>
  <outline>
    <contour>
      <point x="263" y="805" type="move" name="Anchor-0"/>
    </contour>
    <contour>
      <point x="59" y="0" type="line"/>
      <point x="59" y="481" type="line" smooth="yes"/>
      <point x="59" y="566"/>
      <point x="69" y="620"/>
      <point x="95" y="664" type="curve" smooth="yes"/>
      <point x="126" y="718"/>
      <point x="190" y="752"/>
      <point x="263" y="752" type="curve" smooth="yes"/>
      <point x="384" y="752"/>
      <point x="474" y="663"/>
      <point x="474" y="544" type="curve" smooth="yes"/>
      <point x="474" y="472"/>
      <point x="448" y="424"/>
      <point x="389" y="389" type="curve"/>
      <point x="477" y="361"/>
      <point x="524" y="294"/>
      <point x="524" y="199" type="curve" smooth="yes"/>
      <point x="524" y="77"/>
      <point x="437" y="-13"/>
      <point x="319" y="-13" type="curve" smooth="yes"/>
      <point x="233" y="-13"/>
      <point x="170" y="28"/>
      <point x="133" y="109" type="curve"/>
      <point x="133" y="0" type="line"/>
    </contour>
    <contour>
      <point x="133" y="203" type="line"/>
      <point x="184" y="203" type="line"/>
      <point x="186" y="116"/>
      <point x="241" y="55"/>
      <point x="317" y="55" type="curve" smooth="yes"/>
      <point x="392" y="55"/>
      <point x="449" y="117"/>
      <point x="449" y="197" type="curve" smooth="yes"/>
      <point x="449" y="289"/>
      <point x="382" y="343"/>
      <point x="269" y="343" type="curve" smooth="yes"/>
      <point x="259" y="343"/>
      <point x="255" y="343"/>
      <point x="224" y="341" type="curve"/>
      <point x="224" y="408" type="line"/>
      <point x="237" y="408" type="line" smooth="yes"/>
      <point x="337" y="408"/>
      <point x="399" y="462"/>
      <point x="399" y="548" type="curve" smooth="yes"/>
      <point x="399" y="626"/>
      <point x="342" y="684"/>
      <point x="264" y="684" type="curve" smooth="yes"/>
      <point x="217" y="684"/>
      <point x="175" y="660"/>
      <point x="156" y="621" type="curve" smooth="yes"/>
      <point x="139" y="587"/>
      <point x="133" y="552"/>
      <point x="133" y="481" type="curve" smooth="yes"/>
    </contour>
  </outline>
</glyph>
<glyph name="atilde" format="1">
  <advance width="683"/>
  <unicode hex="00E3"/>
  <outline>
    <contour>
      <point x="351" y="805" type="move" name="Anchor-0"/>
    </contour>
    <contour>
      <point x="620" y="547" type="line"/>
      <point x="620" y="0" type="line"/>
      <point x="546" y="0" type="line"/>
      <point x="546" y="96" type="line"/>
      <point x="488" y="18"/>
      <point x="429" y="-13"/>
      <point x="336" y="-13" type="curve" smooth="yes"/>
      <point x="167" y="-13"/>
      <point x="42" y="108"/>
      <point x="42" y="272" type="curve" smooth="yes"/>
      <point x="42" y="436"/>
      <point x="166" y="560"/>
      <point x="330" y="560" type="curve" smooth="yes"/>
      <point x="425" y="560"/>
      <point x="491" y="527"/>
      <point x="546" y="450" type="curve"/>
      <point x="546" y="547" type="line"/>
    </contour>
    <contour>
      <point x="329" y="492" type="curve" smooth="yes"/>
      <point x="212" y="492"/>
      <point x="117" y="395"/>
      <point x="117" y="275" type="curve" smooth="yes"/>
      <point x="117" y="152"/>
      <point x="214" y="55"/>
      <point x="335" y="55" type="curve" smooth="yes"/>
      <point x="454" y="55"/>
      <point x="546" y="151"/>
      <point x="546" y="275" type="curve" smooth="yes"/>
      <point x="546" y="399"/>
      <point x="453" y="492"/>
    </contour>
    <contour>
      <point x="463" y="728" type="curve"/>
      <point x="496" y="682" type="line"/>
      <point x="480" y="656"/>
      <point x="438" y="633"/>
      <point x="405" y="633" type="curve" smooth="yes"/>
      <point x="390" y="633"/>
      <point x="373" y="639"/>
      <point x="339" y="655" type="curve" smooth="yes"/>
      <point x="324" y="661"/>
      <point x="310" y="665"/>
      <point x="299" y="665" type="curve" smooth="yes"/>
      <point x="280" y="665"/>
      <point x="272" y="661"/>
      <point x="246" y="639" type="curve" smooth="yes"/>
      <point x="239" y="633" type="line"/>
      <point x="206" y="679" type="line"/>
      <point x="229" y="710"/>
      <point x="263" y="728"/>
      <point x="299" y="728" type="curve" smooth="yes"/>
      <point x="317" y="728"/>
      <point x="327" y="725"/>
      <point x="358" y="711" type="curve" smooth="yes"/>
      <point x="375" y="704"/>
      <point x="397" y="697"/>
      <point x="406" y="697" type="curve" smooth="yes"/>
      <point x="425" y="697"/>
      <point x="442" y="706"/>
    </contour>
  </outline>
</glyph>
<glyph name="ae" format="1">
  <advance width="1157"/>
  <unicode hex="00E6"/>
  <outline>
    <contour>
      <point x="582" y="623" type="move" name="Anchor-0"/>
    </contour>
    <contour>
      <point x="1118" y="247" type="curve"/>
      <point x="623" y="247" type="line"/>
      <point x="633" y="137"/>
      <point x="726" y="55"/>
      <point x="839" y="55" type="curve" smooth="yes"/>
      <point x="923" y="55"/>
      <point x="997" y="103"/>
      <point x="1028" y="178" type="curve"/>
      <point x="1105" y="178" type="line"/>
      <point x="1067" y="64"/>
      <point x="960" y="-13"/>
      <point x="839" y="-13" type="curve" smooth="yes"/>
      <point x="752" y="-13"/>
      <point x="679" y="22"/>
      <point x="619" y="92" type="curve"/>
      <point x="619" y="0" type="line"/>
      <point x="548" y="0" type="line"/>
      <point x="548" y="92" type="line"/>
      <point x="486" y="18"/>
      <point x="422" y="-13"/>
      <point x="331" y="-13" type="curve" smooth="yes"/>
      <point x="167" y="-13"/>
      <point x="42" y="110"/>
      <point x="42" y="272" type="curve" smooth="yes"/>
      <point x="42" y="345"/>
      <point x="70" y="419"/>
      <point x="119" y="472" type="curve" smooth="yes"/>
      <point x="172" y="530"/>
      <point x="243" y="560"/>
      <point x="330" y="560" type="curve" smooth="yes"/>
      <point x="426" y="560"/>
      <point x="494" y="526"/>
      <point x="548" y="452" type="curve"/>
      <point x="548" y="547" type="line"/>
      <point x="619" y="547" type="line"/>
      <point x="619" y="452" type="line"/>
      <point x="678" y="526"/>
      <point x="745" y="560"/>
      <point x="834" y="560" type="curve" smooth="yes"/>
      <point x="937" y="560"/>
      <point x="1027" y="509"/>
      <point x="1079" y="423" type="curve" smooth="yes"/>
      <point x="1108" y="375"/>
      <point x="1118" y="327"/>
    </contour>
    <contour>
      <point x="626" y="314" type="curve"/>
      <point x="1046" y="314" type="line"/>
      <point x="1026" y="422"/>
      <point x="943" y="492"/>
      <point x="836" y="492" type="curve" smooth="yes"/>
      <point x="727" y="492"/>
      <point x="642" y="419"/>
    </contour>
    <contour>
      <point x="331" y="492" type="curve" smooth="yes"/>
      <point x="210" y="492"/>
      <point x="118" y="397"/>
      <point x="118" y="274" type="curve" smooth="yes"/>
      <point x="118" y="151"/>
      <point x="212" y="55"/>
      <point x="333" y="55" type="curve" smooth="yes"/>
      <point x="456" y="55"/>
      <point x="550" y="151"/>
      <point x="550" y="277" type="curve" smooth="yes"/>
      <point x="550" y="402"/>
      <point x="458" y="492"/>
    </contour>
  </outline>
</glyph>
<glyph name="ccedilla" format="1">
  <advance width="647"/>
  <unicode hex="00E7"/>
  <outline>
    <contour>
      <point x="335" y="623" type="move" name="Anchor-0"/>
    </contour>
    <contour>
      <point x="343" y="-13" type="curve"/>
      <point x="324" y="-58" type="line"/>
      <point x="338" y="-52"/>
      <point x="345" y="-51"/>
      <point x="356" y="-51" type="curve" smooth="yes"/>
      <point x="402" y="-51"/>
      <point x="433" y="-83"/>
      <point x="433" y="-131" type="curve" smooth="yes"/>
      <point x="433" y="-186"/>
      <point x="396" y="-224"/>
      <point x="344" y="-224" type="curve" smooth="yes"/>
      <point x="299" y="-224"/>
      <point x="267" y="-198"/>
      <point x="257" y="-151" type="curve"/>
      <point x="301" y="-146" type="line"/>
      <point x="307" y="-169"/>
      <point x="323" y="-181"/>
      <point x="345" y="-181" type="curve" smooth="yes"/>
      <point x="372" y="-181"/>
      <point x="390" y="-162"/>
      <point x="390" y="-135" type="curve" smooth="yes"/>
      <point x="390" y="-105"/>
      <point x="371" y="-84"/>
      <point x="343" y="-84" type="curve" smooth="yes"/>
      <point x="326" y="-84"/>
      <point x="315" y="-90"/>
      <point x="301" y="-108" type="curve"/>
      <point x="271" y="-90" type="line"/>
      <point x="306" y="-11" type="line"/>
      <point x="152" y="5"/>
      <point x="42" y="124"/>
      <point x="42" y="275" type="curve" smooth="yes"/>
      <point x="42" y="434"/>
      <point x="171" y="560"/>
      <point x="335" y="560" type="curve" smooth="yes"/>
      <point x="459" y="560"/>
      <point x="563" y="491"/>
      <point x="607" y="381" type="curve"/>
      <point x="524" y="381" type="line"/>
      <point x="482" y="453"/>
      <point x="415" y="492"/>
      <point x="334" y="492" type="curve" smooth="yes"/>
      <point x="212" y="492"/>
      <point x="117" y="396"/>
      <point x="117" y="273" type="curve" smooth="yes"/>
      <point x="117" y="151"/>
      <point x="214" y="55"/>
      <point x="337" y="55" type="curve" smooth="yes"/>
      <point x="415" y="55"/>
      <point x="467" y="85"/>
      <point x="524" y="161" type="curve"/>
      <point x="608" y="161" type="line"/>
      <point x="554" y="49"/>
      <point x="463" y="-11"/>
    </contour>
  </outline>
</glyph>
<glyph name="igrave" format="1">
  <advance width="200"/>
  <unicode hex="00EC"/>
  <outline>
    <contour>
      <point x="100" y="805" type="move" name="Top"/>
    </contour>
    <contour>
      <point x="63" y="0" type="curve"/>
      <point x="63" y="0"/>
      <point x="63" y="547"/>
      <point x="63" y="547" type="curve"/>
      <point x="63" y="547"/>
      <point x="137" y="547"/>
      <point x="137" y="547" type="curve"/>
      <point x="137" y="547"/>
      <point x="137" y="0"/>
      <point x="137" y="0" type="curve"/>
      <point x="137" y="0"/>
      <point x="63" y="0"/>
    </contour>
    <contour>
      <point x="17" y="776" type="curve"/>
      <point x="17" y="776"/>
      <point x="215" y="666"/>
      <point x="215" y="666" type="curve"/>
      <point x="215" y="666"/>
      <point x="182" y="610"/>
      <point x="182" y="610" type="curve"/>
      <point x="182" y="610"/>
      <point x="-15" y="718"/>
      <point x="-15" y="718" type="curve"/>
      <point x="-15" y="718"/>
      <point x="17" y="776"/>
    </contour>
  </outline>
</glyph>
<glyph name="iacute" format="1">
  <advance width="200"/>
  <unicode hex="00ED"/>
  <outline>
    <contour>
      <point x="100" y="805" type="move" name="Top"/>
    </contour>
    <contour>
      <point x="63" y="0" type="curve"/>
      <point x="63" y="0"/>
      <point x="63" y="547"/>
      <point x="63" y="547" type="curve"/>
      <point x="63" y="547"/>
      <point x="137" y="547"/>
      <point x="137" y="547" type="curve"/>
      <point x="137" y="547"/>
      <point x="137" y="0"/>
      <point x="137" y="0" type="curve"/>
      <point x="137" y="0"/>
      <point x="63" y="0"/>
    </contour>
    <contour>
      <point x="-13" y="666" type="curve"/>
      <point x="-13" y="666"/>
      <point x="180" y="782"/>
      <point x="180" y="782" type="curve"/>
      <point x="180" y="782"/>
      <point x="214" y="724"/>
      <point x="214" y="724" type="curve"/>
      <point x="214" y="724"/>
      <point x="21" y="610"/>
      <point x="21" y="610" type="curve"/>
      <point x="21" y="610"/>
      <point x="-13" y="666"/>
    </contour>
  </outline>
</glyph>
<glyph name="icircumflex" format="1">
  <advance width="200"/>
  <unicode hex="00EE"/>
  <outline>
    <contour>
      <point x="100" y="805" type="move" name="Top"/>
    </contour>
    <contour>
      <point x="63" y="0" type="curve"/>
      <point x="63" y="0"/>
      <point x="63" y="547"/>
      <point x="63" y="547" type="curve"/>
      <point x="63" y="547"/>
      <point x="137" y="547"/>
      <point x="137" y="547" type="curve"/>
      <point x="137" y="547"/>
      <point x="137" y="0"/>
      <point x="137" y="0" type="curve"/>
      <point x="137" y="0"/>
      <point x="63" y="0"/>
    </contour>
    <contour>
      <point x="-77" y="623" type="curve"/>
      <point x="-77" y="623"/>
      <point x="68" y="749"/>
      <point x="68" y="749" type="curve"/>
      <point x="68" y="749"/>
      <point x="134" y="749"/>
      <point x="134" y="749" type="curve"/>
      <point x="134" y="749"/>
      <point x="277" y="623"/>
      <point x="277" y="623" type="curve"/>
      <point x="277" y="623"/>
      <point x="188" y="623"/>
      <point x="188" y="623" type="curve"/>
      <point x="188" y="623"/>
      <point x="102" y="697"/>
      <point x="102" y="697" type="curve"/>
      <point x="102" y="697"/>
      <point x="14" y="623"/>
      <point x="14" y="623" type="curve"/>
      <point x="14" y="623"/>
      <point x="-77" y="623"/>
    </contour>
  </outline>
</glyph>
<glyph name="idieresis" format="1">
  <advance width="200"/>
  <unicode hex="00EF"/>
  <outline>
    <contour>
      <point x="100" y="805" type="move" name="Top"/>
    </contour>
    <contour>
      <point x="-10" y="749" type="curve"/>
      <point x="-10" y="749"/>
      <point x="64" y="749"/>
      <point x="64" y="749" type="curve"/>
      <point x="64" y="749"/>
      <point x="64" y="623"/>
      <point x="64" y="623" type="curve"/>
      <point x="64" y="623"/>
      <point x="-10" y="623"/>
      <point x="-10" y="623" type="curve"/>
      <point x="-10" y="623"/>
      <point x="-10" y="749"/>
    </contour>
    <contour>
      <point x="137" y="749" type="curve"/>
      <point x="137" y="749"/>
      <point x="211" y="749"/>
      <point x="211" y="749" type="curve"/>
      <point x="211" y="749"/>
      <point x="211" y="623"/>
      <point x="211" y="623" type="curve"/>
      <point x="211" y="623"/>
      <point x="137" y="623"/>
      <point x="137" y="623" type="curve"/>
      <point x="137" y="623"/>
      <point x="137" y="749"/>
    </contour>
    <contour>
      <point x="64" y="0" type="curve"/>
      <point x="64" y="0"/>
      <point x="64" y="547"/>
      <point x="64" y="547" type="curve"/>
      <point x="64" y="547"/>
      <point x="138" y="547"/>
      <point x="138" y="547" type="curve"/>
      <point x="138" y="547"/>
      <point x="138" y="0"/>
      <point x="138" y="0" type="curve"/>
      <point x="138" y="0"/>
      <point x="64" y="0"/>
    </contour>
  </outline>
</glyph>
<glyph name="eth" format="1">
  <advance width="655"/>
  <unicode hex="00F0"/>
  <outline>
    <contour>
      <point x="330" y="805" type="move" name="Anchor-0"/>
    </contour>
    <contour>
      <point x="213" y="727" type="curve"/>
      <point x="266" y="756" type="line"/>
      <point x="296" y="735"/>
      <point x="309" y="724"/>
      <point x="334" y="701" type="curve"/>
      <point x="429" y="743" type="line"/>
      <point x="468" y="699" type="line"/>
      <point x="379" y="660" type="line"/>
      <point x="419" y="625"/>
      <point x="462" y="582"/>
      <point x="504" y="537" type="curve" smooth="yes"/>
      <point x="582" y="451"/>
      <point x="613" y="377"/>
      <point x="613" y="279" type="curve" smooth="yes"/>
      <point x="613" y="107"/>
      <point x="499" y="-13"/>
      <point x="334" y="-13" type="curve" smooth="yes"/>
      <point x="166" y="-13"/>
      <point x="42" y="109"/>
      <point x="42" y="274" type="curve" smooth="yes"/>
      <point x="42" y="435"/>
      <point x="160" y="556"/>
      <point x="316" y="556" type="curve" smooth="yes"/>
      <point x="350" y="556"/>
      <point x="369" y="552"/>
      <point x="412" y="538" type="curve"/>
      <point x="351" y="600"/>
      <point x="349" y="602"/>
      <point x="317" y="630" type="curve"/>
      <point x="230" y="591" type="line"/>
      <point x="194" y="637" type="line"/>
      <point x="273" y="672" type="line"/>
      <point x="257" y="688"/>
      <point x="256" y="688"/>
      <point x="238" y="705" type="curve" smooth="yes"/>
      <point x="229" y="712"/>
      <point x="221" y="719"/>
    </contour>
    <contour>
      <point x="326" y="492" type="curve" smooth="yes"/>
      <point x="206" y="492"/>
      <point x="117" y="398"/>
      <point x="117" y="272" type="curve" smooth="yes"/>
      <point x="117" y="147"/>
      <point x="208" y="55"/>
      <point x="333" y="55" type="curve" smooth="yes"/>
      <point x="453" y="55"/>
      <point x="538" y="144"/>
      <point x="538" y="271" type="curve" smooth="yes"/>
      <point x="538" y="400"/>
      <point x="450" y="492"/>
    </contour>
  </outline>
</glyph>
<glyph name="ntilde" format="1">
  <advance width="610"/>
  <unicode hex="00F1"/>
  <outline>
    <contour>
      <point x="305" y="805" type="move" name="Anchor-0"/>
    </contour>
    <contour>
      <point x="63" y="0" type="line"/>
      <point x="63" y="547" type="line"/>
      <point x="137" y="547" type="line"/>
      <point x="137" y="476" type="line"/>
      <point x="183" y="533"/>
      <point x="241" y="560"/>
      <point x="313" y="560" type="curve" smooth="yes"/>
      <point x="390" y="560"/>
      <point x="456" y="530"/>
      <point x="499" y="475" type="curve" smooth="yes"/>
      <point x="534" y="428"/>
      <point x="547" y="379"/>
      <point x="547" y="287" type="curve" smooth="yes"/>
      <point x="547" y="0" type="line"/>
      <point x="473" y="0" type="line"/>
      <point x="473" y="287" type="line" smooth="yes"/>
      <point x="473" y="361"/>
      <point x="462" y="402"/>
      <point x="434" y="436" type="curve" smooth="yes"/>
      <point x="404" y="472"/>
      <point x="357" y="492"/>
      <point x="304" y="492" type="curve" smooth="yes"/>
      <point x="244" y="492"/>
      <point x="192" y="466"/>
      <point x="163" y="422" type="curve" smooth="yes"/>
      <point x="144" y="392"/>
      <point x="137" y="360"/>
      <point x="137" y="301" type="curve" smooth="yes"/>
      <point x="137" y="0" type="line"/>
    </contour>
    <contour>
      <point x="410" y="728" type="curve"/>
      <point x="443" y="682" type="line"/>
      <point x="427" y="656"/>
      <point x="385" y="633"/>
      <point x="352" y="633" type="curve" smooth="yes"/>
      <point x="337" y="633"/>
      <point x="320" y="639"/>
      <point x="286" y="655" type="curve" smooth="yes"/>
      <point x="271" y="661"/>
      <point x="257" y="665"/>
      <point x="246" y="665" type="curve" smooth="yes"/>
      <point x="227" y="665"/>
      <point x="219" y="661"/>
      <point x="193" y="639" type="curve" smooth="yes"/>
      <point x="186" y="633" type="line"/>
      <point x="153" y="679" type="line"/>
      <point x="176" y="710"/>
      <point x="210" y="728"/>
      <point x="246" y="728" type="curve" smooth="yes"/>
      <point x="264" y="728"/>
      <point x="274" y="725"/>
      <point x="305" y="711" type="curve" smooth="yes"/>
      <point x="322" y="704"/>
      <point x="344" y="697"/>
      <point x="353" y="697" type="curve" smooth="yes"/>
      <point x="372" y="697"/>
      <point x="389" y="706"/>
    </contour>
  </outline>
</glyph>
<glyph name="oacute" format="1">
  <advance width="655"/>
  <unicode hex="00F3"/>
  <outline>
    <contour>
      <point x="327" y="805" type="move" name="Anchor-0"/>
    </contour>
    <contour>
      <point x="332" y="560" type="curve" smooth="yes"/>
      <point x="493" y="560"/>
      <point x="613" y="437"/>
      <point x="613" y="272" type="curve" smooth="yes"/>
      <point x="613" y="108"/>
      <point x="495" y="-13"/>
      <point x="334" y="-13" type="curve" smooth="yes"/>
      <point x="167" y="-13"/>
      <point x="42" y="109"/>
      <point x="42" y="273" type="curve" smooth="yes"/>
      <point x="42" y="439"/>
      <point x="164" y="560"/>
    </contour>
    <contour>
      <point x="326" y="492" type="curve" smooth="yes"/>
      <point x="206" y="492"/>
      <point x="117" y="398"/>
      <point x="117" y="272" type="curve" smooth="yes"/>
      <point x="117" y="147"/>
      <point x="208" y="55"/>
      <point x="332" y="55" type="curve" smooth="yes"/>
      <point x="452" y="55"/>
      <point x="538" y="145"/>
      <point x="538" y="271" type="curve" smooth="yes"/>
      <point x="538" y="400"/>
      <point x="450" y="492"/>
    </contour>
    <contour>
      <point x="247" y="666" type="line"/>
      <point x="440" y="782" type="line"/>
      <point x="474" y="724" type="line"/>
      <point x="281" y="610" type="line"/>
    </contour>
  </outline>
</glyph>
<glyph name="otilde" format="1">
  <advance width="655"/>
  <unicode hex="00F5"/>
  <outline>
    <contour>
      <point x="327" y="805" type="move" name="Anchor-0"/>
    </contour>
    <contour>
      <point x="332" y="560" type="curve" smooth="yes"/>
      <point x="493" y="560"/>
      <point x="613" y="437"/>
      <point x="613" y="272" type="curve" smooth="yes"/>
      <point x="613" y="108"/>
      <point x="495" y="-13"/>
      <point x="334" y="-13" type="curve" smooth="yes"/>
      <point x="167" y="-13"/>
      <point x="42" y="109"/>
      <point x="42" y="273" type="curve" smooth="yes"/>
      <point x="42" y="439"/>
      <point x="164" y="560"/>
    </contour>
    <contour>
      <point x="326" y="492" type="curve" smooth="yes"/>
      <point x="206" y="492"/>
      <point x="117" y="398"/>
      <point x="117" y="272" type="curve" smooth="yes"/>
      <point x="117" y="147"/>
      <point x="208" y="55"/>
      <point x="332" y="55" type="curve" smooth="yes"/>
      <point x="452" y="55"/>
      <point x="538" y="145"/>
      <point x="538" y="271" type="curve" smooth="yes"/>
      <point x="538" y="400"/>
      <point x="450" y="492"/>
    </contour>
    <contour>
      <point x="446" y="728" type="curve"/>
      <point x="479" y="682" type="line"/>
      <point x="463" y="656"/>
      <point x="421" y="633"/>
      <point x="388" y="633" type="curve" smooth="yes"/>
      <point x="373" y="633"/>
      <point x="356" y="639"/>
      <point x="322" y="655" type="curve" smooth="yes"/>
      <point x="307" y="661"/>
      <point x="293" y="665"/>
      <point x="282" y="665" type="curve" smooth="yes"/>
      <point x="263" y="665"/>
      <point x="255" y="661"/>
      <point x="229" y="639" type="curve" smooth="yes"/>
      <point x="222" y="633" type="line"/>
      <point x="189" y="679" type="line"/>
      <point x="212" y="710"/>
      <point x="246" y="728"/>
      <point x="282" y="728" type="curve" smooth="yes"/>
      <point x="300" y="728"/>
      <point x="310" y="725"/>
      <point x="341" y="711" type="curve" smooth="yes"/>
      <point x="358" y="704"/>
      <point x="380" y="697"/>
      <point x="389" y="697" type="curve" smooth="yes"/>
      <point x="408" y="697"/>
      <point x="425" y="706"/>
    </contour>
  </outline>
</glyph>
<glyph name="odieresis" format="1">
  <advance width="655"/>
  <unicode hex="00F6"/>
  <outline>
    <contour>
      <point x="327" y="805" type="move" name="Anchor-0"/>
    </contour>
    <contour>
      <point x="332" y="560" type="curve" smooth="yes"/>
      <point x="493" y="560"/>
      <point x="613" y="437"/>
      <point x="613" y="272" type="curve" smooth="yes"/>
      <point x="613" y="108"/>
      <point x="495" y="-13"/>
      <point x="334" y="-13" type="curve" smooth="yes"/>
      <point x="167" y="-13"/>
      <point x="42" y="109"/>
      <point x="42" y="273" type="curve" smooth="yes"/>
      <point x="42" y="439"/>
      <point x="164" y="560"/>
    </contour>
    <contour>
      <point x="326" y="492" type="curve" smooth="yes"/>
      <point x="206" y="492"/>
      <point x="117" y="398"/>
      <point x="117" y="272" type="curve" smooth="yes"/>
      <point x="117" y="147"/>
      <point x="208" y="55"/>
      <point x="332" y="55" type="curve" smooth="yes"/>
      <point x="452" y="55"/>
      <point x="538" y="145"/>
      <point x="538" y="271" type="curve" smooth="yes"/>
      <point x="538" y="400"/>
      <point x="450" y="492"/>
    </contour>
    <contour>
      <point x="217" y="749" type="line"/>
      <point x="291" y="749" type="line"/>
      <point x="291" y="623" type="line"/>
      <point x="217" y="623" type="line"/>
    </contour>
    <contour>
      <point x="364" y="749" type="line"/>
      <point x="438" y="749" type="line"/>
      <point x="438" y="623" type="line"/>
      <point x="364" y="623" type="line"/>
    </contour>
  </outline>
</glyph>
<glyph name="divide" format="1">
  <advance width="606"/>
  <unicode hex="00F7"/>
  <outline>
    <contour>
      <point x="346" y="409" type="curve"/>
      <point x="346" y="409"/>
      <point x="259" y="409"/>
      <point x="259" y="409" type="curve"/>
      <point x="259" y="409"/>
      <point x="259" y="496"/>
      <point x="259" y="496" type="curve"/>
      <point x="259" y="496"/>
      <point x="346" y="496"/>
      <point x="346" y="496" type="curve"/>
      <point x="346" y="496"/>
      <point x="346" y="409"/>
    </contour>
    <contour>
      <point x="346" y="112" type="curve"/>
      <point x="346" y="112"/>
      <point x="259" y="112"/>
      <point x="259" y="112" type="curve"/>
      <point x="259" y="112"/>
      <point x="259" y="199"/>
      <point x="259" y="199" type="curve"/>
      <point x="259" y="199"/>
      <point x="346" y="199"/>
      <point x="346" y="199" type="curve"/>
      <point x="346" y="199"/>
      <point x="346" y="112"/>
    </contour>
    <contour>
      <point x="555" y="341" type="curve"/>
      <point x="555" y="341"/>
      <point x="555" y="267"/>
      <point x="555" y="267" type="curve"/>
      <point x="555" y="267"/>
      <point x="51" y="267"/>
      <point x="51" y="267" type="curve"/>
      <point x="51" y="267"/>
      <point x="51" y="341"/>
      <point x="51" y="341" type="curve"/>
      <point x="51" y="341"/>
      <point x="555" y="341"/>
    </contour>
  </outline>
</glyph>
<glyph name="oslash" format="1">
  <advance width="653"/>
  <unicode hex="00F8"/>
  <outline>
    <contour>
      <point x="327" y="623" type="move" name="Anchor-0"/>
    </contour>
    <contour>
      <point x="73" y="1" type="line"/>
      <point x="124" y="68" type="line"/>
      <point x="64" y="138"/>
      <point x="42" y="193"/>
      <point x="42" y="272" type="curve" smooth="yes"/>
      <point x="42" y="432"/>
      <point x="168" y="560"/>
      <point x="328" y="560" type="curve" smooth="yes"/>
      <point x="382" y="560"/>
      <point x="429" y="547"/>
      <point x="474" y="519" type="curve"/>
      <point x="531" y="594" type="line"/>
      <point x="584" y="552" type="line"/>
      <point x="528" y="478" type="line"/>
      <point x="584" y="426"/>
      <point x="611" y="363"/>
      <point x="611" y="281" type="curve" smooth="yes"/>
      <point x="611" y="110"/>
      <point x="493" y="-13"/>
      <point x="329" y="-13" type="curve" smooth="yes"/>
      <point x="273" y="-13"/>
      <point x="234" y="-2"/>
      <point x="178" y="28" type="curve"/>
      <point x="126" y="-39" type="line"/>
    </contour>
    <contour>
      <point x="166" y="121" type="curve"/>
      <point x="434" y="468" type="line"/>
      <point x="402" y="484"/>
      <point x="367" y="492"/>
      <point x="329" y="492" type="curve" smooth="yes"/>
      <point x="209" y="492"/>
      <point x="117" y="394"/>
      <point x="117" y="266" type="curve" smooth="yes"/>
      <point x="117" y="211"/>
      <point x="131" y="171"/>
    </contour>
    <contour>
      <point x="487" y="426" type="curve"/>
      <point x="218" y="79" type="line"/>
      <point x="258" y="61"/>
      <point x="284" y="55"/>
      <point x="323" y="55" type="curve" smooth="yes"/>
      <point x="449" y="55"/>
      <point x="536" y="147"/>
      <point x="536" y="280" type="curve" smooth="yes"/>
      <point x="536" y="339"/>
      <point x="521" y="383"/>
    </contour>
  </outline>
</glyph>
